%TF.GenerationSoftware,KiCad,Pcbnew,10.0.5*%
%TF.CreationDate,2026-09-30T11:54:41+02:00*%
%TF.ProjectId,Clavier_drive_1,436c6176-6965-4725-9f64-726976655f31,rev?*%
%TF.SameCoordinates,Original*%
%TF.FileFunction,Paste,Top*%
%TF.FilePolarity,Positive*%
%FSLAX46Y46*%
G04 Gerber Fmt 4.6, Leading zero omitted, Abs format (unit mm)*
G04 Created by KiCad (PCBNEW 10.0.5) date 2026-09-30 11:54:41*
%MOMM*%
%LPD*%
G01*
G04 APERTURE LIST*
G04 Aperture macros list*
%AMRoundRect*
0 Rectangle with rounded corners*
0 $1 Rounding radius*
0 $2 $3 $4 $5 $6 $7 $8 $9 X,Y pos of 4 corners*
0 Add a 4 corners polygon primitive as box body*
4,1,4,$2,$3,$4,$5,$6,$7,$8,$9,$2,$3,0*
0 Add four circle primitives for the rounded corners*
1,1,$1+$1,$2,$3*
1,1,$1+$1,$4,$5*
1,1,$1+$1,$6,$7*
1,1,$1+$1,$8,$9*
0 Add four rect primitives between the rounded corners*
20,1,$1+$1,$2,$3,$4,$5,0*
20,1,$1+$1,$4,$5,$6,$7,0*
20,1,$1+$1,$6,$7,$8,$9,0*
20,1,$1+$1,$8,$9,$2,$3,0*%
%AMRotRect*
0 Rectangle, with rotation*
0 The origin of the aperture is its center*
0 $1 length*
0 $2 width*
0 $3 Rotation angle, in degrees counterclockwise*
0 Add horizontal line*
21,1,$1,$2,0,0,$3*%
G04 Aperture macros list end*
%ADD10R,1.350000X1.800000*%
%ADD11R,3.800000X2.200000*%
%ADD12O,1.100000X1.800000*%
%ADD13R,2.200000X3.800000*%
%ADD14O,1.050000X1.450000*%
%ADD15RoundRect,0.300000X-0.450000X-0.450000X0.450000X-0.450000X0.450000X0.450000X-0.450000X0.450000X0*%
%ADD16RotRect,1.520000X1.780000X280.000000*%
G04 APERTURE END LIST*
D10*
%TO.C,S1*%
X-80925000Y5700000D03*
X-85075000Y5700000D03*
%TD*%
D11*
%TO.C,A1*%
X-111940000Y33500000D03*
X-111940000Y30960000D03*
X-111940000Y28420000D03*
X-111940000Y25880000D03*
X-111940000Y23340000D03*
X-111940000Y20800000D03*
X-111940000Y18260000D03*
X-111940000Y15720000D03*
X-111940000Y13180000D03*
X-111940000Y10640000D03*
X-111940000Y8100000D03*
X-111940000Y5560000D03*
X-111940000Y3020000D03*
X-111940000Y480000D03*
X-111940000Y-2060000D03*
X-111940000Y-4600000D03*
X-111940000Y-7140000D03*
X-111940000Y-9680000D03*
X-111940000Y-12220000D03*
X-111940000Y-14760000D03*
D12*
X-104975000Y33370000D03*
D13*
X-104790000Y-15330000D03*
D14*
X-104675000Y30340000D03*
D13*
X-102250000Y-15330000D03*
D14*
X-99825000Y30340000D03*
D13*
X-99710000Y-15330000D03*
D12*
X-99525000Y33370000D03*
D11*
X-92560000Y33500000D03*
X-92560000Y30960000D03*
X-92560000Y28420000D03*
X-92560000Y25880000D03*
X-92560000Y23340000D03*
X-92560000Y20800000D03*
X-92560000Y18260000D03*
X-92560000Y15720000D03*
X-92560000Y13180000D03*
X-92560000Y10640000D03*
X-92560000Y8100000D03*
X-92560000Y5560000D03*
X-92560000Y3020000D03*
X-92560000Y480000D03*
X-92560000Y-2060000D03*
X-92560000Y-4600000D03*
X-92560000Y-7140000D03*
X-92560000Y-9680000D03*
X-92560000Y-12220000D03*
X-92560000Y-14760000D03*
D15*
X-102250000Y30370000D03*
X-101250000Y33670000D03*
X-103250000Y33670000D03*
X-104750000Y26870000D03*
X-104750000Y24370000D03*
X-104750000Y21870000D03*
%TD*%
D16*
%TO.C,IC103*%
X-54481742Y20682549D03*
X-56983153Y20241483D03*
X-59484565Y19800417D03*
X-57918258Y10917451D03*
X-55416847Y11358517D03*
X-52915435Y11799583D03*
%TD*%
M02*
