M48
; DRILL file KiCad 10.0.5 date 2026-09-30T11:54:41
; FORMAT={-:-/ absolute / inch / decimal}
; #@! TF.CreationDate,2026-09-30T11:54:41+02:00
; #@! TF.GenerationSoftware,Kicad,Pcbnew,10.0.5
; #@! TF.FileFunction,Plated,1,2,PTH
FMAT,2
INCH
; #@! TA.AperFunction,Plated,PTH,ViaDrill
T1C0.0118
; #@! TA.AperFunction,Plated,PTH,ComponentDrill
T2C0.0878
; #@! TA.AperFunction,Plated,PTH,ComponentDrill
T3C0.1181
%
G90
G05
T1
X-10.4124Y-1.5394
X-10.4124Y-1.7008
X-10.1762Y-0.811
X-10.1762Y-0.9843
X-10.0903Y-0.217
X-10.0691Y-0.0968
X-9.9607Y0.5183
X-9.9406Y0.6401
X-9.6407Y-1.4685
X-9.5773Y-1.6267
X-9.5561Y-1.5065
X-9.4447Y-0.8746
X-9.4242Y-0.7582
X-9.4006Y-1.3543
X-9.3189Y-0.1612
X-9.2929Y-0.0138
X-9.1889Y0.5955
X-9.1687Y0.7099
X-9.0541Y-2.185
X-8.873Y-2.0039
X-8.7825Y-1.1772
X-8.7677Y-1.4331
X-8.7323Y-1.2756
X-8.6496Y-0.5472
X-8.6496Y-0.7126
X-8.6053Y-1.1772
X-8.5039Y0.0551
X-8.4764Y0.189
X-8.3583Y0.8031
X-8.3189Y0.9016
X-8.31Y-1.8583
X-8.1756Y-1.9219
X-8.1268Y-2.0384
X-8.0541Y-1.1181
X-7.991Y-1.2828
X-7.9807Y-1.2247
X-7.9134Y-0.3307
X-7.8809Y-1.1181
X-7.8677Y-0.569
X-7.8499Y-0.4682
X-7.7785Y-2.189
X-7.761Y-2.3468
X-7.748Y0.1095
X-7.7392Y-0.7795
X-7.7255Y0.2455
X-7.6065Y0.9201
X-7.5874Y1.0207
X-7.5581Y-0.7795
X-7.5079Y-2.563
X-7.4921Y-0.0276
X-7.409Y-2.2908
X-7.3123Y-1.7383
X-7.2911Y-1.6181
X-7.2392Y-0.8071
X-7.1824Y-1.0016
X-7.1653Y-0.9047
X-7.1289Y-2.4055
X-7.0659Y-0.8189
X-7.0634Y-0.3268
X-7.0225Y-0.0945
X-6.9227Y0.4711
X-6.9028Y0.5842
X-6.7654Y-2.6303
X-6.7261Y-2.7331
X-6.6772Y-1.8661
X-6.6182Y-1.7727
X-6.5433Y-1.126
X-6.5315Y-0.2756
X-6.5305Y-1.0157
X-6.5079Y-1.8976
X-6.5019Y-1.7932
X-6.4764Y0.3937
X-6.436Y-2.7244
X-6.4203Y-2.6024
X-6.3681Y-0.3563
X-6.3543Y-0.4528
X-6.2589Y0.3583
X-6.2352Y-2.6024
X-6.2323Y0.2579
X-6.2205Y-0.1969
X-6.2205Y-0.315
X-6.1555Y-0.3563
X-6.1496Y-0.4528
X-6.1358Y0.2579
X-6.125Y-1.0197
X-6.1211Y-2.4961
X-6.1024Y0.8346
X-6.0984Y0.3937
X-6.0922Y-0.8301
X-6.0827Y-1.9685
X-6.0614Y-0.6556
X-6.0306Y-0.4811
X-5.9882Y0.563
X-5.8819Y0.5472
X-5.8652Y-2.2402
X-5.8447Y-1.0136
X-5.8132Y-0.8425
X-5.7953Y0.5354
X-5.7863Y-0.6601
X-5.7756Y0.1614
X-5.7323Y0.4737
X-5.6959Y-2.0709
X-5.689Y-1.5748
X-5.689Y-1.9685
X-5.6731Y0.5832
X-5.6594Y0.6607
X-5.6548Y0.46
X-5.6411Y0.5376
X-5.6289Y-1.3661
X-5.6274Y0.6151
X-5.6138Y0.6927
X-5.6092Y0.492
X-5.5955Y0.5695
X-5.5906Y-0.5709
X-5.5818Y0.6471
X-5.5772Y0.4464
X-5.5709Y-0.4724
X-5.5682Y0.7246
X-5.5636Y0.5239
X-5.5499Y0.6015
X-5.5394Y-0.2638
X-5.5362Y0.679
X-5.5316Y0.4783
X-5.5266Y-1.2441
X-5.5226Y0.7565
X-5.518Y0.5558
X-5.5079Y0.1614
X-5.5043Y0.6334
X-5.5Y-0.5866
X-5.4997Y0.4327
X-5.4906Y0.7109
X-5.4646Y-0.8504
X-5.4587Y0.6653
X-5.4541Y0.4646
X-5.4528Y-0.7795
X-5.445Y0.7429
X-5.4131Y0.6973
X-5.4055Y0.2559
X-5.3701Y0.4252
X-5.3661Y-0.1811
X-5.3465Y-2.1378
X-5.2953Y-1.1811
X-5.2953Y-1.5748
X-5.2953Y-1.7717
X-5.2953Y-1.9685
X-5.2953Y-2.3622
X-5.2953Y-2.5591
X-5.2953Y-2.7559
X-5.2953Y-2.9528
X-5.2953Y-3.1496
X-5.2953Y-3.3465
X-5.2943Y-1.4173
X-5.2835Y0.3504
X-5.2835Y0.3031
X-5.2795Y-0.5157
X-5.2746Y-2.8425
X-5.2746Y-2.8425
X-5.2638Y-0.9173
X-5.2402Y-0.5118
X-5.2402Y-0.6299
X-5.2362Y0.4055
X-5.2244Y0.5315
X-5.2106Y-0.3366
X-5.1969Y-0.6299
X-5.1417Y-0.3898
X-5.1329Y-0.752
X-5.1329Y-0.9291
X-5.1329Y-1.1063
X-5.1329Y-1.5
X-5.1329Y-1.6811
X-5.1329Y-1.8661
X-5.1329Y-2.2598
X-5.1329Y-2.437
X-5.1329Y-2.6142
X-5.1329Y-3.0079
X-5.1329Y-3.185
X-5.1329Y-3.3622
X-5.1142Y0.3465
X-5.1142Y0.3031
X-5.1142Y0.2559
X-5.0984Y-2.1654
X-5.0984Y-2.9528
X-5.0945Y0.5315
X-5.0472Y-0.4567
X-5.0039Y0.8622
X-5.0Y-0.7283
X-4.9646Y1.0669
X-4.9488Y1.311
X-4.9134Y-0.5787
X-4.9134Y-0.6614
X-4.8661Y0.1654
X-4.8573Y-1.063
X-4.8573Y-1.2441
X-4.8573Y-1.6378
X-4.8573Y-1.815
X-4.8573Y-1.9921
X-4.8573Y-2.3858
X-4.8573Y-2.7441
X-4.8573Y-3.315
X-4.8533Y-0.8858
X-4.8533Y-2.563
X-4.8533Y-3.1417
X-4.8533Y-3.4921
X-4.8415Y-1.3661
X-4.8268Y0.4803
X-4.8268Y-2.1378
X-4.7982Y-0.3425
X-4.748Y0.7047
X-4.7392Y-1.4764
X-4.7072Y0.5748
X-4.7047Y0.1969
X-4.6801Y0.3819
X-4.6762Y-1.8189
X-4.6732Y-0.0811
X-4.6329Y-2.8425
X-4.562Y-0.3661
X-4.562Y-0.5157
X-4.5551Y0.2008
X-4.5236Y0.315
X-4.5197Y-0.3819
X-4.5118Y1.0197
X-4.5118Y0.122
X-4.5079Y1.1024
X-4.5079Y0.9173
X-4.5069Y-0.2638
X-4.503Y-0.1811
X-4.4961Y1.3189
X-4.4945Y1.2189
X-4.4715Y-0.7913
X-4.4715Y-1.3425
X-4.4675Y-1.4606
X-4.3337Y-0.6378
X-4.314Y-1.6142
X-4.311Y1.1181
X-4.311Y0.9843
X-4.311Y0.5906
X-4.311Y0.1181
X-4.311Y-0.3819
X-4.311Y-1.378
X-4.2992Y0.8189
X-4.2992Y0.7126
X-4.2992Y0.4252
X-4.2707Y-0.7008
X-4.2707Y-2.4016
X-4.251Y-0.3504
X-4.251Y-0.5827
X-4.2116Y-0.252
X-4.1329Y-1.5
X-4.1329Y-2.4016
X-4.1289Y-0.7047
X-4.0778Y-1.2402
X-4.0738Y-0.8898
X-4.0719Y-0.3917
X-4.0719Y-0.5157
X-4.0541Y-0.1811
X-4.0266Y-3.1339
X-4.0236Y-2.1417
X-3.9754Y-0.5157
X-3.937Y-2.9843
X-3.9173Y0.9843
X-3.9173Y0.1969
X-3.9173Y-0.1969
X-3.9173Y-1.378
X-3.9006Y-0.3661
X-3.8937Y-1.3228
X-3.874Y0.7795
X-3.8494Y-0.6929
X-3.8425Y-2.1378
X-3.8415Y-1.5472
X-3.811Y-0.5157
X-3.8071Y-0.748
X-3.7825Y-0.3425
X-3.7677Y0.9173
X-3.7667Y-0.626
X-3.7618Y-0.0689
X-3.7549Y0.0669
X-3.7549Y-0.1535
X-3.7441Y1.1181
X-3.7441Y0.1181
X-3.7441Y-0.3819
X-3.7274Y-0.8031
X-3.6053Y-1.5197
X-3.5817Y-0.6417
X-3.5659Y-0.2323
X-3.5394Y1.1181
X-3.5394Y0.1181
X-3.5354Y0.3189
X-3.5354Y-0.3819
X-3.5236Y1.3071
X-3.5236Y1.2323
X-3.5236Y0.1811
X-3.5236Y-1.378
X-3.5236Y-1.5748
X-3.503Y-0.9173
X-3.4951Y-0.5984
X-3.4882Y0.2717
X-3.4685Y-0.1417
X-3.4646Y0.6535
X-3.4636Y-0.3268
X-3.4636Y-0.5157
X-3.4596Y-1.6339
X-3.4528Y0.3937
X-3.4124Y-2.7402
X-3.3583Y0.2953
X-3.3386Y0.7795
X-3.3376Y-1.5709
X-3.3297Y-0.9409
X-3.3297Y-1.2402
X-3.3297Y-2.2441
X-3.3297Y-2.4724
X-3.3268Y0.9843
X-3.3268Y0.5906
X-3.3268Y0.0
X-3.3268Y-1.378
X-3.3268Y-1.378
X-3.3241Y0.4486
X-3.311Y0.0984
X-3.2717Y0.7108
X-3.2717Y0.622
X-3.2628Y-0.3268
X-3.248Y0.5079
X-3.2362Y0.0394
X-3.1959Y-0.9449
X-3.1959Y-1.122
X-3.1959Y-2.4449
X-3.1959Y-3.3701
X-3.1919Y-0.7638
X-3.1919Y-1.5157
X-3.1919Y-1.6929
X-3.1919Y-1.874
X-3.1919Y-2.2638
X-3.1919Y-2.622
X-3.1919Y-3.0118
X-3.1919Y-3.1929
X-3.189Y0.5906
X-3.185Y0.1614
X-3.1811Y0.4764
X-3.1614Y-0.0827
X-3.1614Y-0.1417
X-3.1575Y-2.1378
X-3.1565Y-1.4173
X-3.1407Y-0.622
X-3.1299Y0.3819
X-3.1299Y-0.5748
X-3.1299Y-0.6654
X-3.1201Y0.4429
X-3.1014Y-2.9173
X-3.0945Y0.2087
X-3.0305Y-0.5866
X-3.0167Y-1.4862
X-2.9488Y0.5315
X-2.9173Y0.7795
X-2.9163Y-0.8996
X-2.9163Y-1.0787
X-2.9163Y-1.2598
X-2.9163Y-1.6496
X-2.9163Y-1.8307
X-2.9163Y-2.0118
X-2.9163Y-2.4055
X-2.9163Y-2.5827
X-2.9163Y-2.7598
X-2.9163Y-3.1535
X-2.9163Y-3.3307
X-2.9163Y-3.5118
X-2.9134Y-0.7874
X-2.8583Y0.7108
X-2.8583Y0.622
X-2.8583Y-0.2756
X-2.8573Y-0.3898
X-2.8228Y0.6614
X-2.8219Y-1.6811
X-2.7825Y-0.2283
X-2.7667Y-2.9173
X-2.7549Y-1.4173
X-2.7402Y0.7795
X-2.7362Y0.1969
X-2.7362Y-0.9843
X-2.7362Y-1.1811
X-2.7362Y-1.5748
X-2.7362Y-1.7717
X-2.7362Y-1.9685
X-2.7362Y-2.3622
X-2.7362Y-2.5591
X-2.7362Y-2.7559
X-2.7362Y-2.9528
X-2.7362Y-3.1496
X-2.7362Y-3.3465
X-2.7244Y0.3819
X-2.7092Y-1.2919
X-2.6654Y0.7244
X-2.6358Y0.4429
X-2.6102Y-0.8583
X-2.6102Y-1.6535
X-2.6102Y-2.1378
X-2.5394Y-0.7874
X-2.5Y0.5551
X-2.4961Y0.7795
X-2.473Y-1.2919
X-2.47Y-0.5851
X-2.4331Y-0.8937
X-2.4203Y-1.1732
X-2.4203Y-1.6378
X-2.4026Y-2.502
X-2.3701Y0.311
X-2.3696Y-2.2003
X-2.3543Y-0.8858
X-2.3514Y-2.5531
X-2.3425Y-0.5906
X-2.3376Y-0.7677
X-2.3027Y-1.2919
X-2.288Y-0.5403
X-2.2835Y0.5197
X-2.2698Y0.8981
X-2.2565Y-0.7186
X-2.252Y0.7323
X-2.2431Y-0.3228
X-2.2258Y-0.8931
X-2.2126Y0.311
X-2.1969Y0.5
X-2.1715Y0.9075
X-2.1693Y0.3898
X-2.1457Y-1.9685
X-2.1457Y-2.1654
X-2.1339Y0.7559
X-2.125Y-1.1614
X-2.1232Y0.5315
X-1.9888Y-0.6274
X-1.9636Y-0.5236
X-1.958Y-0.8019
X-1.9272Y-0.9764
X-1.8415Y-0.3228
X-1.752Y-0.5906
X-1.752Y-0.9843
X-1.752Y-1.9685
X-1.752Y-2.1654
X-1.4919Y-2.7686
X-1.4214Y-2.6322
X-1.4006Y-1.8268
X-1.3888Y-2.4764
X-1.3204Y0.5698
X-1.2958Y0.4382
X-1.2352Y-1.6614
X-1.1693Y-0.4882
X-1.1645Y-0.3062
X-1.1447Y-0.4186
X-1.0896Y-0.2087
X-1.0538Y-0.9343
X-1.0433Y-1.68
X-1.0423Y-1.5551
X-1.0353Y-1.039
X-0.9715Y-2.4764
X-0.911Y-1.752
X-0.8818Y-1.9094
X-0.8809Y-1.5551
X-0.8517Y-1.6462
X-0.757Y-2.625
X-0.6676Y-2.4973
X-0.6231Y0.9686
X-0.6088Y0.8872
X-0.5659Y0.126
X-0.5659Y-2.2244
X-0.4492Y-0.0401
X-0.4239Y-0.1836
X-0.3888Y0.126
X-0.3692Y-0.4978
X-0.3527Y-0.5908
X-0.314Y-1.4646
X-0.2756Y-0.689
X-0.1872Y-1.5297
X-0.1642Y-1.6569
X0.0246Y-2.2205
X0.036Y-2.0554
X0.1094Y1.1218
X0.1152Y0.5709
X0.1256Y-1.9227
X0.1327Y0.9899
X0.1821Y-2.0472
X0.1939Y0.5709
X0.2411Y0.3754
X0.2616Y0.2591
X0.2795Y-0.5394
X0.3081Y-1.7835
X0.3667Y-0.352
X0.388Y-0.4582
X0.4459Y-2.0118
X0.5758Y-1.0276
X0.5758Y-1.2283
X0.6978Y-2.0709
X0.7165Y-0.4567
X0.7175Y-1.7953
X0.7835Y1.5136
X0.8268Y-2.0144
X0.919Y0.8348
X0.9398Y0.7205
X0.9746Y1.2739
X1.0236Y-0.3189
X1.0236Y-1.8898
X1.0438Y0.1272
X1.0683Y-0.0084
X1.0915Y-2.1142
X1.1737Y-0.6095
X1.1959Y-0.7355
X1.2165Y-0.6654
X1.2362Y-0.3228
X1.2963Y-2.1575
X1.3054Y-1.3758
X1.3263Y-1.4941
X1.3396Y-2.1142
X1.4567Y-0.811
X1.5955Y-1.7362
X1.7018Y-1.6299
X1.7192Y0.616
X1.7414Y0.49
X1.7717Y-0.3228
X1.8473Y-0.1109
X1.8696Y-0.2369
X1.9488Y-0.311
X1.9815Y-0.8568
X1.9995Y-0.9736
X2.0871Y-1.594
X2.1043Y-1.752
T2
X-5.6893Y1.4775
X-5.6657Y1.1576
X-5.6281Y1.3708
X-5.2647Y1.4027
X-5.2412Y1.0827
X-5.2036Y1.296
X-4.8401Y1.3278
X-4.8166Y1.0079
X-4.779Y1.2211
X-3.149Y1.3388
X-3.055Y1.2594
X-3.0174Y1.0461
X-2.7244Y1.4136
X-2.6305Y1.3342
X-2.5929Y1.121
X-2.2999Y1.4885
X-2.2059Y1.4091
X-2.1683Y1.1959
T3
X-10.7974Y-1.9824
X-10.6672Y-1.2439
X-10.5369Y-0.5053
X-10.5338Y-1.9274
X-10.4067Y0.2333
X-10.4036Y-1.1888
X-10.2765Y0.9719
X-10.2734Y-0.4502
X-10.1431Y0.2884
X-10.0588Y-2.1127
X-10.0129Y1.027
X-9.9286Y-1.3741
X-9.7983Y-0.6355
X-9.7952Y-2.0577
X-9.6681Y0.1031
X-9.665Y-1.319
X-9.5379Y0.8417
X-9.5348Y-0.5804
X-9.4045Y0.1582
X-9.3547Y-2.4388
X-9.2743Y0.8968
X-9.2245Y-1.7001
X-9.0943Y-0.9615
X-9.0912Y-2.3837
X-8.964Y-0.2229
X-8.9609Y-1.6451
X-8.8338Y0.5157
X-8.8307Y-0.9065
X-8.7035Y1.2543
X-8.7004Y-0.1679
X-8.5751Y-2.3364
X-8.5702Y0.5707
X-8.4449Y-1.5978
X-8.44Y1.3093
X-8.3146Y-0.8591
X-8.3115Y-2.2813
X-8.1844Y-0.1205
X-8.1813Y-1.5427
X-8.0542Y0.6181
X-8.0511Y-0.8041
X-7.9239Y1.3567
X-7.9208Y-0.0655
X-7.8912Y-2.7768
X-7.7906Y0.6731
X-7.761Y-2.0382
X-7.6604Y1.4117
X-7.6307Y-1.2996
X-7.6276Y-2.7217
X-7.5005Y-0.561
X-7.4974Y-1.9831
X-7.3702Y0.1777
X-7.3671Y-1.2445
X-7.24Y0.9163
X-7.2369Y-0.5059
X-7.1731Y-3.0233
X-7.1067Y0.2327
X-7.0429Y-2.2847
X-6.9764Y0.9713
X-6.9126Y-1.5461
X-6.9095Y-2.9683
X-6.7824Y-0.8075
X-6.7793Y-2.2296
X-6.6521Y-0.0689
X-6.6491Y-1.491
X-6.5219Y0.6697
X-6.5188Y-0.7524
X-6.4345Y-3.1536
X-6.3886Y-0.0138
X-6.2583Y0.7248
X-6.174Y-1.6763
X-6.1709Y-3.0985
X-5.9135Y-0.1991
X-5.9104Y-1.6213
X-5.65Y-0.1441
X-4.5006Y-1.2039
X-4.5006Y-1.9539
X-4.5006Y-2.7039
X-4.5006Y-3.4539
X-4.2506Y-1.1039
X-4.2506Y-1.8539
X-4.2506Y-2.6039
X-4.2506Y-3.3539
X-3.7506Y-1.2039
X-3.7506Y-1.9539
X-3.7506Y-2.7039
X-3.7506Y-3.4539
X-3.5006Y-1.1039
X-3.5006Y-1.8539
X-3.5006Y-2.6039
X-3.5006Y-3.3539
X-2.3346Y-0.2339
X-2.1058Y-0.092
X-2.0741Y-1.7111
X-1.8453Y-1.5692
X-1.8137Y-3.1883
X-1.7262Y0.635
X-1.596Y-0.1036
X-1.5848Y-3.0464
X-1.4974Y0.7769
X-1.4658Y-0.8422
X-1.3672Y0.0383
X-1.3355Y-1.5808
X-1.2369Y-0.7003
X-1.2053Y-2.3194
X-1.1067Y-1.4389
X-1.0751Y-3.0581
X-1.0081Y0.8815
X-0.9765Y-2.1776
X-0.8779Y0.1429
X-0.8462Y-2.9162
X-0.7793Y1.0234
X-0.7477Y-0.5957
X-0.6491Y0.2848
X-0.6174Y-1.3343
X-0.5188Y-0.4538
X-0.4872Y-2.0729
X-0.3886Y-1.1924
X-0.357Y-2.8115
X-0.3242Y1.3219
X-0.2584Y-1.931
X-0.194Y0.5833
X-0.1281Y-2.6696
X-0.0954Y1.4638
X-0.0638Y-0.1553
X0.0348Y0.7252
X0.0665Y-0.8939
X0.1651Y-0.0134
X0.1967Y-1.6325
X0.2953Y-0.752
X0.327Y-2.3711
X0.4256Y-1.4906
X0.4554Y1.2195
X0.5558Y-2.2292
X0.5856Y0.4809
X0.6842Y1.3614
X0.7159Y-0.2577
X0.8145Y0.6228
X0.8461Y-0.9963
X0.9447Y-0.1158
X0.9763Y-1.7349
X1.0749Y-0.8544
X1.1066Y-2.4735
X1.2052Y-1.593
X1.2897Y0.807
X1.3354Y-2.3316
X1.42Y0.0684
X1.5186Y0.9489
X1.5502Y-0.6702
X1.6488Y0.2103
X1.6804Y-1.4088
X1.779Y-0.5283
X1.8107Y-2.1474
X1.9093Y-1.267
X2.0283Y0.9372
X2.0395Y-2.0056
X2.1586Y0.1986
X2.2572Y1.0791
X2.2888Y-0.54
X2.3874Y0.3405
X2.419Y-1.2786
X2.5176Y-0.3981
X2.5493Y-2.0172
X2.6479Y-1.1367
X2.7781Y-1.8753
M30
