%TF.GenerationSoftware,KiCad,Pcbnew,10.0.5*%
%TF.CreationDate,2026-09-30T11:54:41+02:00*%
%TF.ProjectId,Clavier_drive_1,436c6176-6965-4725-9f64-726976655f31,rev?*%
%TF.SameCoordinates,Original*%
%TF.FileFunction,Profile,NP*%
%FSLAX46Y46*%
G04 Gerber Fmt 4.6, Leading zero omitted, Abs format (unit mm)*
G04 Created by KiCad (PCBNEW 10.0.5) date 2026-09-30 11:54:41*
%MOMM*%
%LPD*%
G01*
G04 APERTURE LIST*
%TA.AperFunction,Profile*%
%ADD10C,0.100000*%
%TD*%
%TA.AperFunction,Profile*%
%ADD11C,0.050000*%
%TD*%
G04 APERTURE END LIST*
D10*
X-281962938Y-53560189D02*
X-265405584Y40341229D01*
X-265405584Y40341229D02*
X-227884409Y33725234D01*
X-245318685Y-65149464D02*
X-244441762Y-60176184D01*
X-244441762Y-60176184D02*
X-281962938Y-53560189D01*
X-227884409Y33725234D02*
X-225453334Y47512542D01*
X-226459617Y-68474826D02*
X-245318685Y-65149464D01*
X-225453334Y47512542D02*
X-206692747Y44204544D01*
X-225417729Y-62565982D02*
X-226459617Y-68474826D01*
X-208144806Y-73735075D02*
X-206755621Y-65856613D01*
X-206755621Y-65856613D02*
X-225417729Y-62565982D01*
X-206692747Y44204544D02*
X-205650858Y50113391D01*
X-205650858Y50113391D02*
X-120263403Y35057278D01*
X-189905245Y-79997958D02*
X-189384219Y-77043072D01*
X-189855833Y-80006193D02*
X-189905245Y-79997958D01*
X-189855830Y-80006195D02*
X-189855833Y-80006193D01*
X-189855524Y-80006248D02*
X-189855830Y-80006195D01*
X-189384219Y-77043072D02*
X-208144806Y-73735075D01*
X-171095336Y-83314176D02*
X-189855524Y-80006248D01*
X-171095336Y-83314175D02*
X-171095336Y-83314176D01*
X-121421141Y-92073077D02*
X-171095335Y-83314176D01*
X-119684659Y-92225000D02*
G75*
G02*
X-121421140Y-92073071I-41J9999100D01*
G01*
X-118526921Y34905356D02*
G75*
G02*
X-120263404Y35057274I21J10000544D01*
G01*
X-118526921Y34905356D02*
X-85973075Y34905356D01*
X-84815343Y-92225000D02*
X-119684659Y-92225000D01*
X-84236593Y35057279D02*
G75*
G02*
X-85973075Y34905361I-1736407J9847521D01*
G01*
X-84236593Y35057279D02*
X1150858Y50113391D01*
X-83078861Y-92073078D02*
G75*
G02*
X-84815343Y-92224994I-1736539J9849178D01*
G01*
X-33404665Y-83314176D02*
X-83078861Y-92073078D01*
X-15115782Y-77043072D02*
X-14594837Y-79997496D01*
X-14594837Y-79997496D02*
X-33404665Y-83314176D01*
X1150858Y50113391D02*
X2192746Y44204544D01*
X2192746Y44204544D02*
X20953334Y47512542D01*
X2255621Y-65856613D02*
X3644806Y-73735075D01*
X3644806Y-73735075D02*
X-15115782Y-77043072D01*
X20917728Y-62565980D02*
X2255621Y-65856613D01*
X20953334Y47512542D02*
X23384408Y33725234D01*
X21959617Y-68474826D02*
X20917728Y-62565980D01*
X23384408Y33725234D02*
X60905584Y40341229D01*
X39941762Y-60176184D02*
X40818685Y-65149464D01*
X40818685Y-65149464D02*
X21959617Y-68474826D01*
X60905584Y40341229D02*
X77462937Y-53560190D01*
X77462937Y-53560190D02*
X39941762Y-60176184D01*
%TO.C,LED125*%
D11*
X-80075000Y-28600000D02*
X-80075000Y-31500000D01*
X-80075000Y-31500000D02*
X-76775000Y-31500000D01*
X-76775000Y-28600000D02*
X-80075000Y-28600000D01*
X-76775000Y-31500000D02*
X-76775000Y-28600000D01*
%TO.C,LED114*%
X-127725000Y-81200000D02*
X-127725000Y-84100000D01*
X-127725000Y-84100000D02*
X-124425000Y-84100000D01*
X-124425000Y-81200000D02*
X-127725000Y-81200000D01*
X-124425000Y-84100000D02*
X-124425000Y-81200000D01*
%TO.C,LED101*%
X-151214991Y-15917455D02*
X-147965125Y-16490494D01*
X-150711411Y-13061512D02*
X-151214991Y-15917455D01*
X-147965125Y-16490494D02*
X-147461545Y-13634551D01*
X-147461545Y-13634551D02*
X-150711411Y-13061512D01*
%TO.C,LED123*%
X-80075000Y-43100000D02*
X-80075000Y-46000000D01*
X-80075000Y-46000000D02*
X-76775000Y-46000000D01*
X-76775000Y-43100000D02*
X-80075000Y-43100000D01*
X-76775000Y-46000000D02*
X-76775000Y-43100000D01*
%TO.C,LED127*%
X-80075000Y-19500000D02*
X-80075000Y-22400000D01*
X-80075000Y-22400000D02*
X-76775000Y-22400000D01*
X-76775000Y-19500000D02*
X-80075000Y-19500000D01*
X-76775000Y-22400000D02*
X-76775000Y-19500000D01*
%TO.C,LED109*%
X-127725000Y-47650000D02*
X-127725000Y-50550000D01*
X-127725000Y-50550000D02*
X-124425000Y-50550000D01*
X-124425000Y-47650000D02*
X-127725000Y-47650000D01*
X-124425000Y-50550000D02*
X-124425000Y-47650000D01*
%TO.C,LED111*%
X-127725000Y-62150000D02*
X-127725000Y-65050000D01*
X-127725000Y-65050000D02*
X-124425000Y-65050000D01*
X-124425000Y-62150000D02*
X-127725000Y-62150000D01*
X-124425000Y-65050000D02*
X-124425000Y-62150000D01*
%TO.C,LED110*%
X-127725000Y-57600000D02*
X-127725000Y-60500000D01*
X-127725000Y-60500000D02*
X-124425000Y-60500000D01*
X-124425000Y-57600000D02*
X-127725000Y-57600000D01*
X-124425000Y-60500000D02*
X-124425000Y-57600000D01*
%TO.C,LED130*%
X-57038455Y-13634551D02*
X-56534875Y-16490494D01*
X-56534875Y-16490494D02*
X-53285009Y-15917455D01*
X-53788589Y-13061512D02*
X-57038455Y-13634551D01*
X-53285009Y-15917455D02*
X-53788589Y-13061512D01*
%TO.C,LED117*%
X-80075000Y-81200000D02*
X-80075000Y-84100000D01*
X-80075000Y-84100000D02*
X-76775000Y-84100000D01*
X-76775000Y-81200000D02*
X-80075000Y-81200000D01*
X-76775000Y-84100000D02*
X-76775000Y-81200000D01*
%TO.C,LED122*%
X-80075000Y-47650000D02*
X-80075000Y-50550000D01*
X-80075000Y-50550000D02*
X-76775000Y-50550000D01*
X-76775000Y-47650000D02*
X-80075000Y-47650000D01*
X-76775000Y-50550000D02*
X-76775000Y-47650000D01*
%TO.C,LED116*%
X-80075000Y-85750000D02*
X-80075000Y-88650000D01*
X-80075000Y-88650000D02*
X-76775000Y-88650000D01*
X-76775000Y-85750000D02*
X-80075000Y-85750000D01*
X-76775000Y-88650000D02*
X-76775000Y-85750000D01*
%TO.C,LED120*%
X-80075000Y-62150000D02*
X-80075000Y-65050000D01*
X-80075000Y-65050000D02*
X-76775000Y-65050000D01*
X-76775000Y-62150000D02*
X-80075000Y-62150000D01*
X-76775000Y-65050000D02*
X-76775000Y-62150000D01*
%TO.C,LED128*%
X-55458257Y-22596302D02*
X-54954677Y-25452245D01*
X-54954677Y-25452245D02*
X-51704811Y-24879206D01*
X-52208391Y-22023263D02*
X-55458257Y-22596302D01*
X-51704811Y-24879206D02*
X-52208391Y-22023263D01*
%TO.C,LED121*%
X-80075000Y-57600000D02*
X-80075000Y-60500000D01*
X-80075000Y-60500000D02*
X-76775000Y-60500000D01*
X-76775000Y-57600000D02*
X-80075000Y-57600000D01*
X-76775000Y-60500000D02*
X-76775000Y-57600000D01*
%TO.C,LED115*%
X-127725000Y-85750000D02*
X-127725000Y-88650000D01*
X-127725000Y-88650000D02*
X-124425000Y-88650000D01*
X-124425000Y-85750000D02*
X-127725000Y-85750000D01*
X-124425000Y-88650000D02*
X-124425000Y-85750000D01*
%TO.C,LED113*%
X-127725000Y-76650000D02*
X-127725000Y-79550000D01*
X-127725000Y-79550000D02*
X-124425000Y-79550000D01*
X-124425000Y-76650000D02*
X-127725000Y-76650000D01*
X-124425000Y-79550000D02*
X-124425000Y-76650000D01*
%TO.C,LED102*%
X-152005090Y-20398331D02*
X-148755224Y-20971370D01*
X-151501510Y-17542388D02*
X-152005090Y-20398331D01*
X-148755224Y-20971370D02*
X-148251644Y-18115427D01*
X-148251644Y-18115427D02*
X-151501510Y-17542388D01*
%TO.C,LED105*%
X-127725000Y-24050000D02*
X-127725000Y-26950000D01*
X-127725000Y-26950000D02*
X-124425000Y-26950000D01*
X-124425000Y-24050000D02*
X-127725000Y-24050000D01*
X-124425000Y-26950000D02*
X-124425000Y-24050000D01*
%TO.C,LED119*%
X-80075000Y-66700000D02*
X-80075000Y-69600000D01*
X-80075000Y-69600000D02*
X-76775000Y-69600000D01*
X-76775000Y-66700000D02*
X-80075000Y-66700000D01*
X-76775000Y-69600000D02*
X-76775000Y-66700000D01*
%TO.C,LED104*%
X-127725000Y-19500000D02*
X-127725000Y-22400000D01*
X-127725000Y-22400000D02*
X-124425000Y-22400000D01*
X-124425000Y-19500000D02*
X-127725000Y-19500000D01*
X-124425000Y-22400000D02*
X-124425000Y-19500000D01*
%TO.C,LED107*%
X-127725000Y-38550000D02*
X-127725000Y-41450000D01*
X-127725000Y-41450000D02*
X-124425000Y-41450000D01*
X-124425000Y-38550000D02*
X-127725000Y-38550000D01*
X-124425000Y-41450000D02*
X-124425000Y-38550000D01*
%TO.C,LED103*%
X-152795189Y-24879206D02*
X-149545323Y-25452245D01*
X-152291609Y-22023263D02*
X-152795189Y-24879206D01*
X-149545323Y-25452245D02*
X-149041743Y-22596302D01*
X-149041743Y-22596302D02*
X-152291609Y-22023263D01*
%TO.C,LED118*%
X-80075000Y-76650000D02*
X-80075000Y-79550000D01*
X-80075000Y-79550000D02*
X-76775000Y-79550000D01*
X-76775000Y-76650000D02*
X-80075000Y-76650000D01*
X-76775000Y-79550000D02*
X-76775000Y-76650000D01*
%TO.C,LED112*%
X-127725000Y-66700000D02*
X-127725000Y-69600000D01*
X-127725000Y-69600000D02*
X-124425000Y-69600000D01*
X-124425000Y-66700000D02*
X-127725000Y-66700000D01*
X-124425000Y-69600000D02*
X-124425000Y-66700000D01*
%TO.C,LED126*%
X-80075000Y-24050000D02*
X-80075000Y-26950000D01*
X-80075000Y-26950000D02*
X-76775000Y-26950000D01*
X-76775000Y-24050000D02*
X-80075000Y-24050000D01*
X-76775000Y-26950000D02*
X-76775000Y-24050000D01*
%TO.C,LED108*%
X-127725000Y-43100000D02*
X-127725000Y-46000000D01*
X-127725000Y-46000000D02*
X-124425000Y-46000000D01*
X-124425000Y-43100000D02*
X-127725000Y-43100000D01*
X-124425000Y-46000000D02*
X-124425000Y-43100000D01*
%TO.C,LED124*%
X-80075000Y-38550000D02*
X-80075000Y-41450000D01*
X-80075000Y-41450000D02*
X-76775000Y-41450000D01*
X-76775000Y-38550000D02*
X-80075000Y-38550000D01*
X-76775000Y-41450000D02*
X-76775000Y-38550000D01*
%TO.C,LED106*%
X-127725000Y-28600000D02*
X-127725000Y-31500000D01*
X-127725000Y-31500000D02*
X-124425000Y-31500000D01*
X-124425000Y-28600000D02*
X-127725000Y-28600000D01*
X-124425000Y-31500000D02*
X-124425000Y-28600000D01*
%TO.C,LED129*%
X-56248356Y-18115427D02*
X-55744776Y-20971370D01*
X-55744776Y-20971370D02*
X-52494910Y-20398331D01*
X-52998490Y-17542388D02*
X-56248356Y-18115427D01*
X-52494910Y-20398331D02*
X-52998490Y-17542388D01*
%TD*%
M02*
