M48
; DRILL file KiCad 10.0.5 date 2026-09-30T11:54:41
; FORMAT={-:-/ absolute / inch / decimal}
; #@! TF.CreationDate,2026-09-30T11:54:41+02:00
; #@! TF.GenerationSoftware,Kicad,Pcbnew,10.0.5
; #@! TF.FileFunction,NonPlated,1,2,NPTH
FMAT,2
INCH
; #@! TA.AperFunction,NonPlated,NPTH,ComponentDrill
T1C0.0689
; #@! TA.AperFunction,NonPlated,NPTH,ComponentDrill
T2C0.1260
; #@! TA.AperFunction,NonPlated,NPTH,ComponentDrill
T3C0.1570
%
G90
G05
T1
X-10.8611Y-1.7681
X-10.7309Y-1.0296
X-10.6007Y-0.2909
X-10.4705Y0.4477
X-10.4672Y-1.8376
X-10.3402Y1.1863
X-10.337Y-1.099
X-10.2068Y-0.3604
X-10.1226Y-1.8984
X-10.0765Y0.3782
X-9.9923Y-1.1598
X-9.9463Y1.1168
X-9.8621Y-0.4212
X-9.7318Y0.3174
X-9.7286Y-1.9679
X-9.6016Y1.056
X-9.5984Y-1.2292
X-9.4682Y-0.4906
X-9.4185Y-2.2244
X-9.3379Y0.248
X-9.2882Y-1.4858
X-9.2077Y0.9866
X-9.158Y-0.7472
X-9.0278Y-0.0086
X-9.0246Y-2.2939
X-8.8975Y0.73
X-8.8943Y-1.5553
X-8.7673Y1.4686
X-8.7641Y-0.8167
X-8.6389Y-2.122
X-8.6338Y-0.0781
X-8.5086Y-1.3834
X-8.5036Y0.6605
X-8.3784Y-0.6448
X-8.3734Y1.3991
X-8.2481Y0.0938
X-8.2449Y-2.1915
X-8.1179Y0.8324
X-8.1147Y-1.4529
X-7.9877Y1.571
X-7.9845Y-0.7143
X-7.9549Y-2.5624
X-7.8542Y0.0243
X-7.8247Y-1.8238
X-7.724Y0.7629
X-7.6945Y-1.0852
X-7.5937Y1.5015
X-7.5642Y-0.3466
X-7.561Y-2.6319
X-7.434Y0.392
X-7.4308Y-1.8933
X-7.3038Y1.1306
X-7.3005Y-1.1547
X-7.2368Y-2.809
X-7.1703Y-0.4161
X-7.1066Y-2.0704
X-7.0401Y0.3225
X-6.9764Y-1.3318
X-6.9098Y1.0611
X-6.8461Y-0.5932
X-6.8429Y-2.8785
X-6.7159Y0.1454
X-6.7127Y-2.1398
X-6.5857Y0.884
X-6.5824Y-1.4012
X-6.4982Y-2.9392
X-6.4522Y-0.6626
X-6.322Y0.076
X-6.2378Y-1.462
X-6.1917Y0.8146
X-6.1043Y-3.0087
X-5.9773Y0.0152
X-5.8438Y-1.5315
X-5.5834Y-0.0543
X-4.6006Y-1.0039
X-4.6006Y-1.7539
X-4.6006Y-2.5039
X-4.6006Y-3.2539
X-4.2006Y-1.0039
X-4.2006Y-1.7539
X-4.2006Y-2.5039
X-4.2006Y-3.2539
X-3.8506Y-1.0039
X-3.8506Y-1.7539
X-3.8506Y-2.5039
X-3.8506Y-3.2539
X-3.4506Y-1.0039
X-3.4506Y-1.7539
X-3.4506Y-2.5039
X-3.4506Y-3.2539
X-2.4678Y-0.0543
X-2.2073Y-1.5315
X-2.0739Y0.0152
X-1.9469Y-3.0087
X-1.8594Y0.8146
X-1.8134Y-1.462
X-1.7292Y0.076
X-1.599Y-0.6626
X-1.5529Y-2.9392
X-1.4687Y-1.4012
X-1.4655Y0.884
X-1.3385Y-2.1398
X-1.3353Y0.1454
X-1.2083Y-2.8785
X-1.205Y-0.5932
X-1.1413Y1.0611
X-1.0748Y-1.3318
X-1.0111Y0.3225
X-0.9446Y-2.0704
X-0.8809Y-0.4161
X-0.8143Y-2.809
X-0.7506Y-1.1547
X-0.7474Y1.1306
X-0.6204Y-1.8933
X-0.6172Y0.392
X-0.4902Y-2.6319
X-0.487Y-0.3466
X-0.4574Y1.5015
X-0.3567Y-1.0852
X-0.3272Y0.7629
X-0.2265Y-1.8238
X-0.197Y0.0243
X-0.0962Y-2.5624
X-0.0667Y-0.7143
X-0.0635Y1.571
X0.0635Y-1.4529
X0.0667Y0.8324
X0.1937Y-2.1915
X0.197Y0.0938
X0.3222Y1.3991
X0.3272Y-0.6448
X0.4524Y0.6605
X0.4574Y-1.3834
X0.5827Y-0.0781
X0.5877Y-2.122
X0.7129Y-0.8167
X0.7161Y1.4686
X0.8431Y-1.5553
X0.8464Y0.73
X0.9734Y-2.2939
X0.9766Y-0.0086
X1.1068Y-0.7472
X1.1565Y0.9866
X1.2371Y-1.4858
X1.2867Y0.248
X1.3673Y-2.2244
X1.417Y-0.4906
X1.5472Y-1.2292
X1.5504Y1.056
X1.6775Y-1.9679
X1.6807Y0.3174
X1.8109Y-0.4212
X1.8951Y1.1168
X1.9411Y-1.1598
X2.0254Y0.3782
X2.0714Y-1.8984
X2.1556Y-0.3604
X2.2858Y-1.099
X2.289Y1.1863
X2.4161Y-1.8376
X2.4193Y0.4477
X2.5495Y-0.2909
X2.6797Y-1.0296
X2.81Y-1.7682
T2
X-10.2323Y-1.5
X-9.8386Y0.7165
X-8.5276Y-0.4803
X-7.3425Y-2.4094
X-6.8031Y0.6614
X-4.0276Y-2.878
X-4.0236Y-1.378
X-1.248Y0.6614
X-0.7087Y-2.4094
X0.4331Y-0.2441
X1.7874Y0.7165
X2.1772Y-1.5
T3
X-10.6641Y-1.8028
X-10.534Y-1.0643
X-10.4037Y-0.3257
X-10.2735Y0.4129
X-10.1433Y1.1515
X-9.9256Y-1.9331
X-9.7954Y-1.1945
X-9.6651Y-0.4559
X-9.5349Y0.2827
X-9.4047Y1.0213
X-9.2215Y-2.2592
X-9.0913Y-1.5206
X-8.961Y-0.7819
X-8.8308Y-0.0433
X-8.7006Y0.6953
X-8.5703Y1.4339
X-8.4419Y-2.1568
X-8.3117Y-1.4182
X-8.1814Y-0.6796
X-8.0512Y0.0591
X-7.9209Y0.7977
X-7.7907Y1.5363
X-7.758Y-2.5972
X-7.6277Y-1.8586
X-7.4975Y-1.12
X-7.3673Y-0.3814
X-7.237Y0.3572
X-7.1068Y1.0959
X-7.0399Y-2.8437
X-6.9096Y-2.1051
X-6.7794Y-1.3665
X-6.6492Y-0.6279
X-6.5189Y0.1107
X-6.3887Y0.8493
X-6.3013Y-2.974
X-6.0408Y-1.4968
X-5.7803Y-0.0195
X-4.4006Y-1.0039
X-4.4006Y-1.7539
X-4.4006Y-2.5039
X-4.4006Y-3.2539
X-3.6506Y-1.0039
X-3.6506Y-1.7539
X-3.6506Y-2.5039
X-3.6506Y-3.2539
X-2.2709Y-0.0195
X-2.0104Y-1.4968
X-1.7499Y-2.974
X-1.6625Y0.8493
X-1.5322Y0.1107
X-1.402Y-0.6279
X-1.2718Y-1.3665
X-1.1415Y-2.1051
X-1.0113Y-2.8437
X-0.9444Y1.0959
X-0.8141Y0.3572
X-0.6839Y-0.3814
X-0.5537Y-1.12
X-0.4234Y-1.8586
X-0.2932Y-2.5972
X-0.2605Y1.5363
X-0.1302Y0.7977
X0.0Y0.0591
X0.1302Y-0.6796
X0.2605Y-1.4182
X0.3907Y-2.1568
X0.5192Y1.4339
X0.6494Y0.6953
X0.7796Y-0.0433
X0.9099Y-0.7819
X1.0401Y-1.5206
X1.1703Y-2.2592
X1.3535Y1.0213
X1.4837Y0.2827
X1.6139Y-0.4559
X1.7442Y-1.1945
X1.8744Y-1.9331
X2.0921Y1.1515
X2.2223Y0.4129
X2.3525Y-0.3257
X2.4828Y-1.0643
X2.613Y-1.8029
M30
