%TF.GenerationSoftware,KiCad,Pcbnew,10.0.5*%
%TF.CreationDate,2026-09-30T11:54:41+02:00*%
%TF.ProjectId,Clavier_drive_1,436c6176-6965-4725-9f64-726976655f31,rev?*%
%TF.SameCoordinates,Original*%
%TF.FileFunction,Legend,Bot*%
%TF.FilePolarity,Positive*%
%FSLAX46Y46*%
G04 Gerber Fmt 4.6, Leading zero omitted, Abs format (unit mm)*
G04 Created by KiCad (PCBNEW 10.0.5) date 2026-09-30 11:54:41*
%MOMM*%
%LPD*%
G01*
G04 APERTURE LIST*
G04 Aperture macros list*
%AMRoundRect*
0 Rectangle with rounded corners*
0 $1 Rounding radius*
0 $2 $3 $4 $5 $6 $7 $8 $9 X,Y pos of 4 corners*
0 Add a 4 corners polygon primitive as box body*
4,1,4,$2,$3,$4,$5,$6,$7,$8,$9,$2,$3,0*
0 Add four circle primitives for the rounded corners*
1,1,$1+$1,$2,$3*
1,1,$1+$1,$4,$5*
1,1,$1+$1,$6,$7*
1,1,$1+$1,$8,$9*
0 Add four rect primitives between the rounded corners*
20,1,$1+$1,$2,$3,$4,$5,0*
20,1,$1+$1,$4,$5,$6,$7,0*
20,1,$1+$1,$6,$7,$8,$9,0*
20,1,$1+$1,$8,$9,$2,$3,0*%
%AMRotRect*
0 Rectangle, with rotation*
0 The origin of the aperture is its center*
0 $1 length*
0 $2 width*
0 $3 Rotation angle, in degrees counterclockwise*
0 Add horizontal line*
21,1,$1,$2,0,0,$3*%
G04 Aperture macros list end*
%ADD10C,0.100000*%
%ADD11C,0.120000*%
%ADD12C,0.250000*%
%ADD13C,0.060000*%
%ADD14C,0.000000*%
%ADD15C,0.200000*%
%ADD16C,0.150000*%
%ADD17C,0.152400*%
%ADD18C,3.200000*%
%ADD19RoundRect,0.200000X0.275000X-0.200000X0.275000X0.200000X-0.275000X0.200000X-0.275000X-0.200000X0*%
%ADD20RoundRect,0.200000X-0.200000X-0.275000X0.200000X-0.275000X0.200000X0.275000X-0.200000X0.275000X0*%
%ADD21C,2.900000*%
%ADD22R,1.700000X0.800000*%
%ADD23RotRect,1.050000X1.820000X80.000000*%
%ADD24C,1.750000*%
%ADD25C,3.987800*%
%ADD26C,3.300000*%
%ADD27RoundRect,0.250000X-1.183076X-0.806818X0.835780X-1.162797X1.183076X0.806818X-0.835780X1.162797X0*%
%ADD28R,1.050000X1.820000*%
%ADD29RoundRect,0.225000X-0.375000X0.225000X-0.375000X-0.225000X0.375000X-0.225000X0.375000X0.225000X0*%
%ADD30RoundRect,0.250000X-0.835780X-1.162797X1.183076X-0.806818X0.835780X1.162797X-1.183076X0.806818X0*%
%ADD31RoundRect,0.140000X0.143107X-0.167393X0.191728X0.108353X-0.143107X0.167393X-0.191728X-0.108353X0*%
%ADD32RoundRect,0.200000X-0.305552X0.149208X-0.236092X-0.244715X0.305552X-0.149208X0.236092X0.244715X0*%
%ADD33RoundRect,0.225000X-0.330232X0.286700X-0.408374X-0.156464X0.330232X-0.286700X0.408374X0.156464X0*%
%ADD34RoundRect,0.140000X0.140000X0.170000X-0.140000X0.170000X-0.140000X-0.170000X0.140000X-0.170000X0*%
%ADD35RoundRect,0.225000X-0.408374X0.156464X-0.330232X-0.286700X0.408374X-0.156464X0.330232X0.286700X0*%
%ADD36RoundRect,0.140000X0.108353X0.191728X-0.167393X0.143107X-0.108353X-0.191728X0.167393X-0.143107X0*%
%ADD37RoundRect,0.250000X-1.025000X-1.000000X1.025000X-1.000000X1.025000X1.000000X-1.025000X1.000000X0*%
%ADD38RoundRect,0.140000X-0.140000X-0.170000X0.140000X-0.170000X0.140000X0.170000X-0.140000X0.170000X0*%
%ADD39RotRect,0.600000X1.200000X280.000000*%
%ADD40RotRect,1.700000X0.800000X350.000000*%
%ADD41RoundRect,0.140000X0.167393X0.143107X-0.108353X0.191728X-0.167393X-0.143107X0.108353X-0.191728X0*%
%ADD42RoundRect,0.140000X-0.108353X-0.191728X0.167393X-0.143107X0.108353X0.191728X-0.167393X0.143107X0*%
%ADD43RoundRect,0.140000X-0.143107X0.167393X-0.191728X-0.108353X0.143107X-0.167393X0.191728X0.108353X0*%
%ADD44RotRect,0.889000X1.625600X260.000000*%
%ADD45RotRect,1.625600X3.175000X350.000000*%
%ADD46C,1.000000*%
%ADD47RotRect,1.050000X1.820000X280.000000*%
%ADD48RotRect,0.650000X1.525000X80.000000*%
%ADD49RotRect,0.600000X1.200000X350.000000*%
%ADD50RoundRect,0.140000X-0.191728X0.108353X-0.143107X-0.167393X0.191728X-0.108353X0.143107X0.167393X0*%
%ADD51RotRect,1.700000X0.800000X190.000000*%
%ADD52RoundRect,0.200000X0.244715X0.236092X-0.149208X0.305552X-0.244715X-0.236092X0.149208X-0.305552X0*%
%ADD53RoundRect,0.250000X-0.583689X0.432934X-0.696561X-0.207191X0.583689X-0.432934X0.696561X0.207191X0*%
%ADD54RoundRect,0.150000X0.587500X0.150000X-0.587500X0.150000X-0.587500X-0.150000X0.587500X-0.150000X0*%
%ADD55RoundRect,0.140000X0.191728X-0.108353X0.143107X0.167393X-0.191728X0.108353X-0.143107X-0.167393X0*%
%ADD56RoundRect,0.200000X-0.236092X0.244715X-0.305552X-0.149208X0.236092X-0.244715X0.305552X0.149208X0*%
%ADD57RoundRect,0.140000X0.170000X-0.140000X0.170000X0.140000X-0.170000X0.140000X-0.170000X-0.140000X0*%
%ADD58RoundRect,0.200000X0.149208X0.305552X-0.244715X0.236092X-0.149208X-0.305552X0.244715X-0.236092X0*%
%ADD59RoundRect,0.250000X-1.097679X-0.466477X0.871936X-0.813773X1.097679X0.466477X-0.871936X0.813773X0*%
%ADD60RoundRect,0.140000X-0.167393X-0.143107X0.108353X-0.191728X0.167393X0.143107X-0.108353X0.191728X0*%
%ADD61RoundRect,0.225000X0.156464X0.408374X-0.286700X0.330232X-0.156464X-0.408374X0.286700X-0.330232X0*%
G04 APERTURE END LIST*
D10*
X-80993497Y-28555038D02*
X-80898259Y-28507419D01*
X-80898259Y-28507419D02*
X-80755402Y-28507419D01*
X-80755402Y-28507419D02*
X-80612545Y-28555038D01*
X-80612545Y-28555038D02*
X-80517307Y-28650276D01*
X-80517307Y-28650276D02*
X-80469688Y-28745514D01*
X-80469688Y-28745514D02*
X-80422069Y-28935990D01*
X-80422069Y-28935990D02*
X-80422069Y-29078847D01*
X-80422069Y-29078847D02*
X-80469688Y-29269323D01*
X-80469688Y-29269323D02*
X-80517307Y-29364561D01*
X-80517307Y-29364561D02*
X-80612545Y-29459800D01*
X-80612545Y-29459800D02*
X-80755402Y-29507419D01*
X-80755402Y-29507419D02*
X-80850640Y-29507419D01*
X-80850640Y-29507419D02*
X-80993497Y-29459800D01*
X-80993497Y-29459800D02*
X-81041116Y-29412180D01*
X-81041116Y-29412180D02*
X-81041116Y-29078847D01*
X-81041116Y-29078847D02*
X-80850640Y-29078847D01*
X-81469688Y-29507419D02*
X-81469688Y-28507419D01*
X-81469688Y-28507419D02*
X-82041116Y-29507419D01*
X-82041116Y-29507419D02*
X-82041116Y-28507419D01*
X-82517307Y-29507419D02*
X-82517307Y-28507419D01*
X-82517307Y-28507419D02*
X-82755402Y-28507419D01*
X-82755402Y-28507419D02*
X-82898259Y-28555038D01*
X-82898259Y-28555038D02*
X-82993497Y-28650276D01*
X-82993497Y-28650276D02*
X-83041116Y-28745514D01*
X-83041116Y-28745514D02*
X-83088735Y-28935990D01*
X-83088735Y-28935990D02*
X-83088735Y-29078847D01*
X-83088735Y-29078847D02*
X-83041116Y-29269323D01*
X-83041116Y-29269323D02*
X-82993497Y-29364561D01*
X-82993497Y-29364561D02*
X-82898259Y-29459800D01*
X-82898259Y-29459800D02*
X-82755402Y-29507419D01*
X-82755402Y-29507419D02*
X-82517307Y-29507419D01*
X-121982694Y-83155038D02*
X-121887456Y-83107419D01*
X-121887456Y-83107419D02*
X-121744599Y-83107419D01*
X-121744599Y-83107419D02*
X-121601742Y-83155038D01*
X-121601742Y-83155038D02*
X-121506504Y-83250276D01*
X-121506504Y-83250276D02*
X-121458885Y-83345514D01*
X-121458885Y-83345514D02*
X-121411266Y-83535990D01*
X-121411266Y-83535990D02*
X-121411266Y-83678847D01*
X-121411266Y-83678847D02*
X-121458885Y-83869323D01*
X-121458885Y-83869323D02*
X-121506504Y-83964561D01*
X-121506504Y-83964561D02*
X-121601742Y-84059800D01*
X-121601742Y-84059800D02*
X-121744599Y-84107419D01*
X-121744599Y-84107419D02*
X-121839837Y-84107419D01*
X-121839837Y-84107419D02*
X-121982694Y-84059800D01*
X-121982694Y-84059800D02*
X-122030313Y-84012180D01*
X-122030313Y-84012180D02*
X-122030313Y-83678847D01*
X-122030313Y-83678847D02*
X-121839837Y-83678847D01*
X-122458885Y-84107419D02*
X-122458885Y-83107419D01*
X-122458885Y-83107419D02*
X-123030313Y-84107419D01*
X-123030313Y-84107419D02*
X-123030313Y-83107419D01*
X-123506504Y-84107419D02*
X-123506504Y-83107419D01*
X-123506504Y-83107419D02*
X-123744599Y-83107419D01*
X-123744599Y-83107419D02*
X-123887456Y-83155038D01*
X-123887456Y-83155038D02*
X-123982694Y-83250276D01*
X-123982694Y-83250276D02*
X-124030313Y-83345514D01*
X-124030313Y-83345514D02*
X-124077932Y-83535990D01*
X-124077932Y-83535990D02*
X-124077932Y-83678847D01*
X-124077932Y-83678847D02*
X-124030313Y-83869323D01*
X-124030313Y-83869323D02*
X-123982694Y-83964561D01*
X-123982694Y-83964561D02*
X-123887456Y-84059800D01*
X-123887456Y-84059800D02*
X-123744599Y-84107419D01*
X-123744599Y-84107419D02*
X-123506504Y-84107419D01*
X-142264935Y-16536051D02*
X-142162874Y-16505694D01*
X-142162874Y-16505694D02*
X-142022188Y-16530501D01*
X-142022188Y-16530501D02*
X-141889770Y-16602203D01*
X-141889770Y-16602203D02*
X-141812516Y-16712532D01*
X-141812516Y-16712532D02*
X-141782159Y-16814592D01*
X-141782159Y-16814592D02*
X-141768339Y-17010444D01*
X-141768339Y-17010444D02*
X-141793146Y-17151131D01*
X-141793146Y-17151131D02*
X-141873117Y-17330444D01*
X-141873117Y-17330444D02*
X-141936551Y-17415966D01*
X-141936551Y-17415966D02*
X-142046880Y-17493220D01*
X-142046880Y-17493220D02*
X-142195836Y-17515308D01*
X-142195836Y-17515308D02*
X-142289627Y-17498770D01*
X-142289627Y-17498770D02*
X-142422045Y-17427068D01*
X-142422045Y-17427068D02*
X-142460672Y-17371903D01*
X-142460672Y-17371903D02*
X-142402789Y-17043634D01*
X-142402789Y-17043634D02*
X-142215206Y-17076710D01*
X-142899270Y-17391274D02*
X-142725622Y-16406466D01*
X-142725622Y-16406466D02*
X-143462017Y-17292046D01*
X-143462017Y-17292046D02*
X-143288369Y-16307239D01*
X-143930973Y-17209357D02*
X-143757325Y-16224549D01*
X-143757325Y-16224549D02*
X-143991803Y-16183204D01*
X-143991803Y-16183204D02*
X-144140759Y-16205293D01*
X-144140759Y-16205293D02*
X-144251088Y-16282546D01*
X-144251088Y-16282546D02*
X-144314522Y-16368069D01*
X-144314522Y-16368069D02*
X-144394493Y-16547382D01*
X-144394493Y-16547382D02*
X-144419300Y-16688069D01*
X-144419300Y-16688069D02*
X-144405480Y-16883920D01*
X-144405480Y-16883920D02*
X-144375122Y-16985980D01*
X-144375122Y-16985980D02*
X-144297869Y-17096310D01*
X-144297869Y-17096310D02*
X-144165451Y-17168012D01*
X-144165451Y-17168012D02*
X-143930973Y-17209357D01*
X-80993497Y-43055038D02*
X-80898259Y-43007419D01*
X-80898259Y-43007419D02*
X-80755402Y-43007419D01*
X-80755402Y-43007419D02*
X-80612545Y-43055038D01*
X-80612545Y-43055038D02*
X-80517307Y-43150276D01*
X-80517307Y-43150276D02*
X-80469688Y-43245514D01*
X-80469688Y-43245514D02*
X-80422069Y-43435990D01*
X-80422069Y-43435990D02*
X-80422069Y-43578847D01*
X-80422069Y-43578847D02*
X-80469688Y-43769323D01*
X-80469688Y-43769323D02*
X-80517307Y-43864561D01*
X-80517307Y-43864561D02*
X-80612545Y-43959800D01*
X-80612545Y-43959800D02*
X-80755402Y-44007419D01*
X-80755402Y-44007419D02*
X-80850640Y-44007419D01*
X-80850640Y-44007419D02*
X-80993497Y-43959800D01*
X-80993497Y-43959800D02*
X-81041116Y-43912180D01*
X-81041116Y-43912180D02*
X-81041116Y-43578847D01*
X-81041116Y-43578847D02*
X-80850640Y-43578847D01*
X-81469688Y-44007419D02*
X-81469688Y-43007419D01*
X-81469688Y-43007419D02*
X-82041116Y-44007419D01*
X-82041116Y-44007419D02*
X-82041116Y-43007419D01*
X-82517307Y-44007419D02*
X-82517307Y-43007419D01*
X-82517307Y-43007419D02*
X-82755402Y-43007419D01*
X-82755402Y-43007419D02*
X-82898259Y-43055038D01*
X-82898259Y-43055038D02*
X-82993497Y-43150276D01*
X-82993497Y-43150276D02*
X-83041116Y-43245514D01*
X-83041116Y-43245514D02*
X-83088735Y-43435990D01*
X-83088735Y-43435990D02*
X-83088735Y-43578847D01*
X-83088735Y-43578847D02*
X-83041116Y-43769323D01*
X-83041116Y-43769323D02*
X-82993497Y-43864561D01*
X-82993497Y-43864561D02*
X-82898259Y-43959800D01*
X-82898259Y-43959800D02*
X-82755402Y-44007419D01*
X-82755402Y-44007419D02*
X-82517307Y-44007419D01*
X-80993497Y-19455038D02*
X-80898259Y-19407419D01*
X-80898259Y-19407419D02*
X-80755402Y-19407419D01*
X-80755402Y-19407419D02*
X-80612545Y-19455038D01*
X-80612545Y-19455038D02*
X-80517307Y-19550276D01*
X-80517307Y-19550276D02*
X-80469688Y-19645514D01*
X-80469688Y-19645514D02*
X-80422069Y-19835990D01*
X-80422069Y-19835990D02*
X-80422069Y-19978847D01*
X-80422069Y-19978847D02*
X-80469688Y-20169323D01*
X-80469688Y-20169323D02*
X-80517307Y-20264561D01*
X-80517307Y-20264561D02*
X-80612545Y-20359800D01*
X-80612545Y-20359800D02*
X-80755402Y-20407419D01*
X-80755402Y-20407419D02*
X-80850640Y-20407419D01*
X-80850640Y-20407419D02*
X-80993497Y-20359800D01*
X-80993497Y-20359800D02*
X-81041116Y-20312180D01*
X-81041116Y-20312180D02*
X-81041116Y-19978847D01*
X-81041116Y-19978847D02*
X-80850640Y-19978847D01*
X-81469688Y-20407419D02*
X-81469688Y-19407419D01*
X-81469688Y-19407419D02*
X-82041116Y-20407419D01*
X-82041116Y-20407419D02*
X-82041116Y-19407419D01*
X-82517307Y-20407419D02*
X-82517307Y-19407419D01*
X-82517307Y-19407419D02*
X-82755402Y-19407419D01*
X-82755402Y-19407419D02*
X-82898259Y-19455038D01*
X-82898259Y-19455038D02*
X-82993497Y-19550276D01*
X-82993497Y-19550276D02*
X-83041116Y-19645514D01*
X-83041116Y-19645514D02*
X-83088735Y-19835990D01*
X-83088735Y-19835990D02*
X-83088735Y-19978847D01*
X-83088735Y-19978847D02*
X-83041116Y-20169323D01*
X-83041116Y-20169323D02*
X-82993497Y-20264561D01*
X-82993497Y-20264561D02*
X-82898259Y-20359800D01*
X-82898259Y-20359800D02*
X-82755402Y-20407419D01*
X-82755402Y-20407419D02*
X-82517307Y-20407419D01*
X-121982694Y-49605038D02*
X-121887456Y-49557419D01*
X-121887456Y-49557419D02*
X-121744599Y-49557419D01*
X-121744599Y-49557419D02*
X-121601742Y-49605038D01*
X-121601742Y-49605038D02*
X-121506504Y-49700276D01*
X-121506504Y-49700276D02*
X-121458885Y-49795514D01*
X-121458885Y-49795514D02*
X-121411266Y-49985990D01*
X-121411266Y-49985990D02*
X-121411266Y-50128847D01*
X-121411266Y-50128847D02*
X-121458885Y-50319323D01*
X-121458885Y-50319323D02*
X-121506504Y-50414561D01*
X-121506504Y-50414561D02*
X-121601742Y-50509800D01*
X-121601742Y-50509800D02*
X-121744599Y-50557419D01*
X-121744599Y-50557419D02*
X-121839837Y-50557419D01*
X-121839837Y-50557419D02*
X-121982694Y-50509800D01*
X-121982694Y-50509800D02*
X-122030313Y-50462180D01*
X-122030313Y-50462180D02*
X-122030313Y-50128847D01*
X-122030313Y-50128847D02*
X-121839837Y-50128847D01*
X-122458885Y-50557419D02*
X-122458885Y-49557419D01*
X-122458885Y-49557419D02*
X-123030313Y-50557419D01*
X-123030313Y-50557419D02*
X-123030313Y-49557419D01*
X-123506504Y-50557419D02*
X-123506504Y-49557419D01*
X-123506504Y-49557419D02*
X-123744599Y-49557419D01*
X-123744599Y-49557419D02*
X-123887456Y-49605038D01*
X-123887456Y-49605038D02*
X-123982694Y-49700276D01*
X-123982694Y-49700276D02*
X-124030313Y-49795514D01*
X-124030313Y-49795514D02*
X-124077932Y-49985990D01*
X-124077932Y-49985990D02*
X-124077932Y-50128847D01*
X-124077932Y-50128847D02*
X-124030313Y-50319323D01*
X-124030313Y-50319323D02*
X-123982694Y-50414561D01*
X-123982694Y-50414561D02*
X-123887456Y-50509800D01*
X-123887456Y-50509800D02*
X-123744599Y-50557419D01*
X-123744599Y-50557419D02*
X-123506504Y-50557419D01*
X-121982694Y-64105038D02*
X-121887456Y-64057419D01*
X-121887456Y-64057419D02*
X-121744599Y-64057419D01*
X-121744599Y-64057419D02*
X-121601742Y-64105038D01*
X-121601742Y-64105038D02*
X-121506504Y-64200276D01*
X-121506504Y-64200276D02*
X-121458885Y-64295514D01*
X-121458885Y-64295514D02*
X-121411266Y-64485990D01*
X-121411266Y-64485990D02*
X-121411266Y-64628847D01*
X-121411266Y-64628847D02*
X-121458885Y-64819323D01*
X-121458885Y-64819323D02*
X-121506504Y-64914561D01*
X-121506504Y-64914561D02*
X-121601742Y-65009800D01*
X-121601742Y-65009800D02*
X-121744599Y-65057419D01*
X-121744599Y-65057419D02*
X-121839837Y-65057419D01*
X-121839837Y-65057419D02*
X-121982694Y-65009800D01*
X-121982694Y-65009800D02*
X-122030313Y-64962180D01*
X-122030313Y-64962180D02*
X-122030313Y-64628847D01*
X-122030313Y-64628847D02*
X-121839837Y-64628847D01*
X-122458885Y-65057419D02*
X-122458885Y-64057419D01*
X-122458885Y-64057419D02*
X-123030313Y-65057419D01*
X-123030313Y-65057419D02*
X-123030313Y-64057419D01*
X-123506504Y-65057419D02*
X-123506504Y-64057419D01*
X-123506504Y-64057419D02*
X-123744599Y-64057419D01*
X-123744599Y-64057419D02*
X-123887456Y-64105038D01*
X-123887456Y-64105038D02*
X-123982694Y-64200276D01*
X-123982694Y-64200276D02*
X-124030313Y-64295514D01*
X-124030313Y-64295514D02*
X-124077932Y-64485990D01*
X-124077932Y-64485990D02*
X-124077932Y-64628847D01*
X-124077932Y-64628847D02*
X-124030313Y-64819323D01*
X-124030313Y-64819323D02*
X-123982694Y-64914561D01*
X-123982694Y-64914561D02*
X-123887456Y-65009800D01*
X-123887456Y-65009800D02*
X-123744599Y-65057419D01*
X-123744599Y-65057419D02*
X-123506504Y-65057419D01*
X-121982694Y-59555038D02*
X-121887456Y-59507419D01*
X-121887456Y-59507419D02*
X-121744599Y-59507419D01*
X-121744599Y-59507419D02*
X-121601742Y-59555038D01*
X-121601742Y-59555038D02*
X-121506504Y-59650276D01*
X-121506504Y-59650276D02*
X-121458885Y-59745514D01*
X-121458885Y-59745514D02*
X-121411266Y-59935990D01*
X-121411266Y-59935990D02*
X-121411266Y-60078847D01*
X-121411266Y-60078847D02*
X-121458885Y-60269323D01*
X-121458885Y-60269323D02*
X-121506504Y-60364561D01*
X-121506504Y-60364561D02*
X-121601742Y-60459800D01*
X-121601742Y-60459800D02*
X-121744599Y-60507419D01*
X-121744599Y-60507419D02*
X-121839837Y-60507419D01*
X-121839837Y-60507419D02*
X-121982694Y-60459800D01*
X-121982694Y-60459800D02*
X-122030313Y-60412180D01*
X-122030313Y-60412180D02*
X-122030313Y-60078847D01*
X-122030313Y-60078847D02*
X-121839837Y-60078847D01*
X-122458885Y-60507419D02*
X-122458885Y-59507419D01*
X-122458885Y-59507419D02*
X-123030313Y-60507419D01*
X-123030313Y-60507419D02*
X-123030313Y-59507419D01*
X-123506504Y-60507419D02*
X-123506504Y-59507419D01*
X-123506504Y-59507419D02*
X-123744599Y-59507419D01*
X-123744599Y-59507419D02*
X-123887456Y-59555038D01*
X-123887456Y-59555038D02*
X-123982694Y-59650276D01*
X-123982694Y-59650276D02*
X-124030313Y-59745514D01*
X-124030313Y-59745514D02*
X-124077932Y-59935990D01*
X-124077932Y-59935990D02*
X-124077932Y-60078847D01*
X-124077932Y-60078847D02*
X-124030313Y-60269323D01*
X-124030313Y-60269323D02*
X-123982694Y-60364561D01*
X-123982694Y-60364561D02*
X-123887456Y-60459800D01*
X-123887456Y-60459800D02*
X-123744599Y-60507419D01*
X-123744599Y-60507419D02*
X-123506504Y-60507419D01*
X-57950805Y-13749767D02*
X-57865283Y-13686333D01*
X-57865283Y-13686333D02*
X-57724596Y-13661527D01*
X-57724596Y-13661527D02*
X-57575640Y-13683615D01*
X-57575640Y-13683615D02*
X-57465311Y-13760869D01*
X-57465311Y-13760869D02*
X-57401878Y-13846391D01*
X-57401878Y-13846391D02*
X-57321906Y-14025704D01*
X-57321906Y-14025704D02*
X-57297099Y-14166391D01*
X-57297099Y-14166391D02*
X-57310919Y-14362242D01*
X-57310919Y-14362242D02*
X-57341277Y-14464303D01*
X-57341277Y-14464303D02*
X-57418530Y-14574632D01*
X-57418530Y-14574632D02*
X-57550948Y-14646334D01*
X-57550948Y-14646334D02*
X-57644739Y-14662872D01*
X-57644739Y-14662872D02*
X-57793695Y-14640783D01*
X-57793695Y-14640783D02*
X-57848859Y-14602157D01*
X-57848859Y-14602157D02*
X-57906742Y-14273888D01*
X-57906742Y-14273888D02*
X-57719160Y-14240812D01*
X-58254382Y-14770369D02*
X-58428030Y-13785561D01*
X-58428030Y-13785561D02*
X-58817129Y-14869596D01*
X-58817129Y-14869596D02*
X-58990777Y-13884788D01*
X-59286085Y-14952286D02*
X-59459733Y-13967478D01*
X-59459733Y-13967478D02*
X-59694211Y-14008823D01*
X-59694211Y-14008823D02*
X-59826629Y-14080525D01*
X-59826629Y-14080525D02*
X-59903883Y-14190854D01*
X-59903883Y-14190854D02*
X-59934240Y-14292915D01*
X-59934240Y-14292915D02*
X-59948060Y-14488766D01*
X-59948060Y-14488766D02*
X-59923253Y-14629453D01*
X-59923253Y-14629453D02*
X-59843282Y-14808766D01*
X-59843282Y-14808766D02*
X-59779848Y-14894289D01*
X-59779848Y-14894289D02*
X-59669519Y-14971542D01*
X-59669519Y-14971542D02*
X-59520563Y-14993631D01*
X-59520563Y-14993631D02*
X-59286085Y-14952286D01*
X-80993497Y-81155038D02*
X-80898259Y-81107419D01*
X-80898259Y-81107419D02*
X-80755402Y-81107419D01*
X-80755402Y-81107419D02*
X-80612545Y-81155038D01*
X-80612545Y-81155038D02*
X-80517307Y-81250276D01*
X-80517307Y-81250276D02*
X-80469688Y-81345514D01*
X-80469688Y-81345514D02*
X-80422069Y-81535990D01*
X-80422069Y-81535990D02*
X-80422069Y-81678847D01*
X-80422069Y-81678847D02*
X-80469688Y-81869323D01*
X-80469688Y-81869323D02*
X-80517307Y-81964561D01*
X-80517307Y-81964561D02*
X-80612545Y-82059800D01*
X-80612545Y-82059800D02*
X-80755402Y-82107419D01*
X-80755402Y-82107419D02*
X-80850640Y-82107419D01*
X-80850640Y-82107419D02*
X-80993497Y-82059800D01*
X-80993497Y-82059800D02*
X-81041116Y-82012180D01*
X-81041116Y-82012180D02*
X-81041116Y-81678847D01*
X-81041116Y-81678847D02*
X-80850640Y-81678847D01*
X-81469688Y-82107419D02*
X-81469688Y-81107419D01*
X-81469688Y-81107419D02*
X-82041116Y-82107419D01*
X-82041116Y-82107419D02*
X-82041116Y-81107419D01*
X-82517307Y-82107419D02*
X-82517307Y-81107419D01*
X-82517307Y-81107419D02*
X-82755402Y-81107419D01*
X-82755402Y-81107419D02*
X-82898259Y-81155038D01*
X-82898259Y-81155038D02*
X-82993497Y-81250276D01*
X-82993497Y-81250276D02*
X-83041116Y-81345514D01*
X-83041116Y-81345514D02*
X-83088735Y-81535990D01*
X-83088735Y-81535990D02*
X-83088735Y-81678847D01*
X-83088735Y-81678847D02*
X-83041116Y-81869323D01*
X-83041116Y-81869323D02*
X-82993497Y-81964561D01*
X-82993497Y-81964561D02*
X-82898259Y-82059800D01*
X-82898259Y-82059800D02*
X-82755402Y-82107419D01*
X-82755402Y-82107419D02*
X-82517307Y-82107419D01*
X-80993497Y-47605038D02*
X-80898259Y-47557419D01*
X-80898259Y-47557419D02*
X-80755402Y-47557419D01*
X-80755402Y-47557419D02*
X-80612545Y-47605038D01*
X-80612545Y-47605038D02*
X-80517307Y-47700276D01*
X-80517307Y-47700276D02*
X-80469688Y-47795514D01*
X-80469688Y-47795514D02*
X-80422069Y-47985990D01*
X-80422069Y-47985990D02*
X-80422069Y-48128847D01*
X-80422069Y-48128847D02*
X-80469688Y-48319323D01*
X-80469688Y-48319323D02*
X-80517307Y-48414561D01*
X-80517307Y-48414561D02*
X-80612545Y-48509800D01*
X-80612545Y-48509800D02*
X-80755402Y-48557419D01*
X-80755402Y-48557419D02*
X-80850640Y-48557419D01*
X-80850640Y-48557419D02*
X-80993497Y-48509800D01*
X-80993497Y-48509800D02*
X-81041116Y-48462180D01*
X-81041116Y-48462180D02*
X-81041116Y-48128847D01*
X-81041116Y-48128847D02*
X-80850640Y-48128847D01*
X-81469688Y-48557419D02*
X-81469688Y-47557419D01*
X-81469688Y-47557419D02*
X-82041116Y-48557419D01*
X-82041116Y-48557419D02*
X-82041116Y-47557419D01*
X-82517307Y-48557419D02*
X-82517307Y-47557419D01*
X-82517307Y-47557419D02*
X-82755402Y-47557419D01*
X-82755402Y-47557419D02*
X-82898259Y-47605038D01*
X-82898259Y-47605038D02*
X-82993497Y-47700276D01*
X-82993497Y-47700276D02*
X-83041116Y-47795514D01*
X-83041116Y-47795514D02*
X-83088735Y-47985990D01*
X-83088735Y-47985990D02*
X-83088735Y-48128847D01*
X-83088735Y-48128847D02*
X-83041116Y-48319323D01*
X-83041116Y-48319323D02*
X-82993497Y-48414561D01*
X-82993497Y-48414561D02*
X-82898259Y-48509800D01*
X-82898259Y-48509800D02*
X-82755402Y-48557419D01*
X-82755402Y-48557419D02*
X-82517307Y-48557419D01*
X-80993497Y-85705038D02*
X-80898259Y-85657419D01*
X-80898259Y-85657419D02*
X-80755402Y-85657419D01*
X-80755402Y-85657419D02*
X-80612545Y-85705038D01*
X-80612545Y-85705038D02*
X-80517307Y-85800276D01*
X-80517307Y-85800276D02*
X-80469688Y-85895514D01*
X-80469688Y-85895514D02*
X-80422069Y-86085990D01*
X-80422069Y-86085990D02*
X-80422069Y-86228847D01*
X-80422069Y-86228847D02*
X-80469688Y-86419323D01*
X-80469688Y-86419323D02*
X-80517307Y-86514561D01*
X-80517307Y-86514561D02*
X-80612545Y-86609800D01*
X-80612545Y-86609800D02*
X-80755402Y-86657419D01*
X-80755402Y-86657419D02*
X-80850640Y-86657419D01*
X-80850640Y-86657419D02*
X-80993497Y-86609800D01*
X-80993497Y-86609800D02*
X-81041116Y-86562180D01*
X-81041116Y-86562180D02*
X-81041116Y-86228847D01*
X-81041116Y-86228847D02*
X-80850640Y-86228847D01*
X-81469688Y-86657419D02*
X-81469688Y-85657419D01*
X-81469688Y-85657419D02*
X-82041116Y-86657419D01*
X-82041116Y-86657419D02*
X-82041116Y-85657419D01*
X-82517307Y-86657419D02*
X-82517307Y-85657419D01*
X-82517307Y-85657419D02*
X-82755402Y-85657419D01*
X-82755402Y-85657419D02*
X-82898259Y-85705038D01*
X-82898259Y-85705038D02*
X-82993497Y-85800276D01*
X-82993497Y-85800276D02*
X-83041116Y-85895514D01*
X-83041116Y-85895514D02*
X-83088735Y-86085990D01*
X-83088735Y-86085990D02*
X-83088735Y-86228847D01*
X-83088735Y-86228847D02*
X-83041116Y-86419323D01*
X-83041116Y-86419323D02*
X-82993497Y-86514561D01*
X-82993497Y-86514561D02*
X-82898259Y-86609800D01*
X-82898259Y-86609800D02*
X-82755402Y-86657419D01*
X-82755402Y-86657419D02*
X-82517307Y-86657419D01*
X-80993497Y-62105038D02*
X-80898259Y-62057419D01*
X-80898259Y-62057419D02*
X-80755402Y-62057419D01*
X-80755402Y-62057419D02*
X-80612545Y-62105038D01*
X-80612545Y-62105038D02*
X-80517307Y-62200276D01*
X-80517307Y-62200276D02*
X-80469688Y-62295514D01*
X-80469688Y-62295514D02*
X-80422069Y-62485990D01*
X-80422069Y-62485990D02*
X-80422069Y-62628847D01*
X-80422069Y-62628847D02*
X-80469688Y-62819323D01*
X-80469688Y-62819323D02*
X-80517307Y-62914561D01*
X-80517307Y-62914561D02*
X-80612545Y-63009800D01*
X-80612545Y-63009800D02*
X-80755402Y-63057419D01*
X-80755402Y-63057419D02*
X-80850640Y-63057419D01*
X-80850640Y-63057419D02*
X-80993497Y-63009800D01*
X-80993497Y-63009800D02*
X-81041116Y-62962180D01*
X-81041116Y-62962180D02*
X-81041116Y-62628847D01*
X-81041116Y-62628847D02*
X-80850640Y-62628847D01*
X-81469688Y-63057419D02*
X-81469688Y-62057419D01*
X-81469688Y-62057419D02*
X-82041116Y-63057419D01*
X-82041116Y-63057419D02*
X-82041116Y-62057419D01*
X-82517307Y-63057419D02*
X-82517307Y-62057419D01*
X-82517307Y-62057419D02*
X-82755402Y-62057419D01*
X-82755402Y-62057419D02*
X-82898259Y-62105038D01*
X-82898259Y-62105038D02*
X-82993497Y-62200276D01*
X-82993497Y-62200276D02*
X-83041116Y-62295514D01*
X-83041116Y-62295514D02*
X-83088735Y-62485990D01*
X-83088735Y-62485990D02*
X-83088735Y-62628847D01*
X-83088735Y-62628847D02*
X-83041116Y-62819323D01*
X-83041116Y-62819323D02*
X-82993497Y-62914561D01*
X-82993497Y-62914561D02*
X-82898259Y-63009800D01*
X-82898259Y-63009800D02*
X-82755402Y-63057419D01*
X-82755402Y-63057419D02*
X-82517307Y-63057419D01*
X-56370607Y-22711518D02*
X-56285085Y-22648084D01*
X-56285085Y-22648084D02*
X-56144398Y-22623278D01*
X-56144398Y-22623278D02*
X-55995442Y-22645366D01*
X-55995442Y-22645366D02*
X-55885113Y-22722620D01*
X-55885113Y-22722620D02*
X-55821680Y-22808142D01*
X-55821680Y-22808142D02*
X-55741708Y-22987455D01*
X-55741708Y-22987455D02*
X-55716901Y-23128142D01*
X-55716901Y-23128142D02*
X-55730721Y-23323993D01*
X-55730721Y-23323993D02*
X-55761079Y-23426054D01*
X-55761079Y-23426054D02*
X-55838332Y-23536383D01*
X-55838332Y-23536383D02*
X-55970750Y-23608085D01*
X-55970750Y-23608085D02*
X-56064541Y-23624623D01*
X-56064541Y-23624623D02*
X-56213497Y-23602534D01*
X-56213497Y-23602534D02*
X-56268661Y-23563908D01*
X-56268661Y-23563908D02*
X-56326544Y-23235639D01*
X-56326544Y-23235639D02*
X-56138962Y-23202563D01*
X-56674184Y-23732120D02*
X-56847832Y-22747312D01*
X-56847832Y-22747312D02*
X-57236931Y-23831347D01*
X-57236931Y-23831347D02*
X-57410579Y-22846539D01*
X-57705887Y-23914037D02*
X-57879535Y-22929229D01*
X-57879535Y-22929229D02*
X-58114013Y-22970574D01*
X-58114013Y-22970574D02*
X-58246431Y-23042276D01*
X-58246431Y-23042276D02*
X-58323685Y-23152605D01*
X-58323685Y-23152605D02*
X-58354042Y-23254666D01*
X-58354042Y-23254666D02*
X-58367862Y-23450517D01*
X-58367862Y-23450517D02*
X-58343055Y-23591204D01*
X-58343055Y-23591204D02*
X-58263084Y-23770517D01*
X-58263084Y-23770517D02*
X-58199650Y-23856040D01*
X-58199650Y-23856040D02*
X-58089321Y-23933293D01*
X-58089321Y-23933293D02*
X-57940365Y-23955382D01*
X-57940365Y-23955382D02*
X-57705887Y-23914037D01*
X-80993497Y-57555038D02*
X-80898259Y-57507419D01*
X-80898259Y-57507419D02*
X-80755402Y-57507419D01*
X-80755402Y-57507419D02*
X-80612545Y-57555038D01*
X-80612545Y-57555038D02*
X-80517307Y-57650276D01*
X-80517307Y-57650276D02*
X-80469688Y-57745514D01*
X-80469688Y-57745514D02*
X-80422069Y-57935990D01*
X-80422069Y-57935990D02*
X-80422069Y-58078847D01*
X-80422069Y-58078847D02*
X-80469688Y-58269323D01*
X-80469688Y-58269323D02*
X-80517307Y-58364561D01*
X-80517307Y-58364561D02*
X-80612545Y-58459800D01*
X-80612545Y-58459800D02*
X-80755402Y-58507419D01*
X-80755402Y-58507419D02*
X-80850640Y-58507419D01*
X-80850640Y-58507419D02*
X-80993497Y-58459800D01*
X-80993497Y-58459800D02*
X-81041116Y-58412180D01*
X-81041116Y-58412180D02*
X-81041116Y-58078847D01*
X-81041116Y-58078847D02*
X-80850640Y-58078847D01*
X-81469688Y-58507419D02*
X-81469688Y-57507419D01*
X-81469688Y-57507419D02*
X-82041116Y-58507419D01*
X-82041116Y-58507419D02*
X-82041116Y-57507419D01*
X-82517307Y-58507419D02*
X-82517307Y-57507419D01*
X-82517307Y-57507419D02*
X-82755402Y-57507419D01*
X-82755402Y-57507419D02*
X-82898259Y-57555038D01*
X-82898259Y-57555038D02*
X-82993497Y-57650276D01*
X-82993497Y-57650276D02*
X-83041116Y-57745514D01*
X-83041116Y-57745514D02*
X-83088735Y-57935990D01*
X-83088735Y-57935990D02*
X-83088735Y-58078847D01*
X-83088735Y-58078847D02*
X-83041116Y-58269323D01*
X-83041116Y-58269323D02*
X-82993497Y-58364561D01*
X-82993497Y-58364561D02*
X-82898259Y-58459800D01*
X-82898259Y-58459800D02*
X-82755402Y-58507419D01*
X-82755402Y-58507419D02*
X-82517307Y-58507419D01*
X-121982694Y-87705038D02*
X-121887456Y-87657419D01*
X-121887456Y-87657419D02*
X-121744599Y-87657419D01*
X-121744599Y-87657419D02*
X-121601742Y-87705038D01*
X-121601742Y-87705038D02*
X-121506504Y-87800276D01*
X-121506504Y-87800276D02*
X-121458885Y-87895514D01*
X-121458885Y-87895514D02*
X-121411266Y-88085990D01*
X-121411266Y-88085990D02*
X-121411266Y-88228847D01*
X-121411266Y-88228847D02*
X-121458885Y-88419323D01*
X-121458885Y-88419323D02*
X-121506504Y-88514561D01*
X-121506504Y-88514561D02*
X-121601742Y-88609800D01*
X-121601742Y-88609800D02*
X-121744599Y-88657419D01*
X-121744599Y-88657419D02*
X-121839837Y-88657419D01*
X-121839837Y-88657419D02*
X-121982694Y-88609800D01*
X-121982694Y-88609800D02*
X-122030313Y-88562180D01*
X-122030313Y-88562180D02*
X-122030313Y-88228847D01*
X-122030313Y-88228847D02*
X-121839837Y-88228847D01*
X-122458885Y-88657419D02*
X-122458885Y-87657419D01*
X-122458885Y-87657419D02*
X-123030313Y-88657419D01*
X-123030313Y-88657419D02*
X-123030313Y-87657419D01*
X-123506504Y-88657419D02*
X-123506504Y-87657419D01*
X-123506504Y-87657419D02*
X-123744599Y-87657419D01*
X-123744599Y-87657419D02*
X-123887456Y-87705038D01*
X-123887456Y-87705038D02*
X-123982694Y-87800276D01*
X-123982694Y-87800276D02*
X-124030313Y-87895514D01*
X-124030313Y-87895514D02*
X-124077932Y-88085990D01*
X-124077932Y-88085990D02*
X-124077932Y-88228847D01*
X-124077932Y-88228847D02*
X-124030313Y-88419323D01*
X-124030313Y-88419323D02*
X-123982694Y-88514561D01*
X-123982694Y-88514561D02*
X-123887456Y-88609800D01*
X-123887456Y-88609800D02*
X-123744599Y-88657419D01*
X-123744599Y-88657419D02*
X-123506504Y-88657419D01*
X-121982694Y-78605038D02*
X-121887456Y-78557419D01*
X-121887456Y-78557419D02*
X-121744599Y-78557419D01*
X-121744599Y-78557419D02*
X-121601742Y-78605038D01*
X-121601742Y-78605038D02*
X-121506504Y-78700276D01*
X-121506504Y-78700276D02*
X-121458885Y-78795514D01*
X-121458885Y-78795514D02*
X-121411266Y-78985990D01*
X-121411266Y-78985990D02*
X-121411266Y-79128847D01*
X-121411266Y-79128847D02*
X-121458885Y-79319323D01*
X-121458885Y-79319323D02*
X-121506504Y-79414561D01*
X-121506504Y-79414561D02*
X-121601742Y-79509800D01*
X-121601742Y-79509800D02*
X-121744599Y-79557419D01*
X-121744599Y-79557419D02*
X-121839837Y-79557419D01*
X-121839837Y-79557419D02*
X-121982694Y-79509800D01*
X-121982694Y-79509800D02*
X-122030313Y-79462180D01*
X-122030313Y-79462180D02*
X-122030313Y-79128847D01*
X-122030313Y-79128847D02*
X-121839837Y-79128847D01*
X-122458885Y-79557419D02*
X-122458885Y-78557419D01*
X-122458885Y-78557419D02*
X-123030313Y-79557419D01*
X-123030313Y-79557419D02*
X-123030313Y-78557419D01*
X-123506504Y-79557419D02*
X-123506504Y-78557419D01*
X-123506504Y-78557419D02*
X-123744599Y-78557419D01*
X-123744599Y-78557419D02*
X-123887456Y-78605038D01*
X-123887456Y-78605038D02*
X-123982694Y-78700276D01*
X-123982694Y-78700276D02*
X-124030313Y-78795514D01*
X-124030313Y-78795514D02*
X-124077932Y-78985990D01*
X-124077932Y-78985990D02*
X-124077932Y-79128847D01*
X-124077932Y-79128847D02*
X-124030313Y-79319323D01*
X-124030313Y-79319323D02*
X-123982694Y-79414561D01*
X-123982694Y-79414561D02*
X-123887456Y-79509800D01*
X-123887456Y-79509800D02*
X-123744599Y-79557419D01*
X-123744599Y-79557419D02*
X-123506504Y-79557419D01*
X-143055034Y-21016927D02*
X-142952973Y-20986570D01*
X-142952973Y-20986570D02*
X-142812287Y-21011377D01*
X-142812287Y-21011377D02*
X-142679869Y-21083079D01*
X-142679869Y-21083079D02*
X-142602615Y-21193408D01*
X-142602615Y-21193408D02*
X-142572258Y-21295468D01*
X-142572258Y-21295468D02*
X-142558438Y-21491320D01*
X-142558438Y-21491320D02*
X-142583245Y-21632007D01*
X-142583245Y-21632007D02*
X-142663216Y-21811320D01*
X-142663216Y-21811320D02*
X-142726650Y-21896842D01*
X-142726650Y-21896842D02*
X-142836979Y-21974096D01*
X-142836979Y-21974096D02*
X-142985935Y-21996184D01*
X-142985935Y-21996184D02*
X-143079726Y-21979646D01*
X-143079726Y-21979646D02*
X-143212144Y-21907944D01*
X-143212144Y-21907944D02*
X-143250771Y-21852779D01*
X-143250771Y-21852779D02*
X-143192888Y-21524510D01*
X-143192888Y-21524510D02*
X-143005305Y-21557586D01*
X-143689369Y-21872150D02*
X-143515721Y-20887342D01*
X-143515721Y-20887342D02*
X-144252116Y-21772922D01*
X-144252116Y-21772922D02*
X-144078468Y-20788115D01*
X-144721072Y-21690233D02*
X-144547424Y-20705425D01*
X-144547424Y-20705425D02*
X-144781902Y-20664080D01*
X-144781902Y-20664080D02*
X-144930858Y-20686169D01*
X-144930858Y-20686169D02*
X-145041187Y-20763422D01*
X-145041187Y-20763422D02*
X-145104621Y-20848945D01*
X-145104621Y-20848945D02*
X-145184592Y-21028258D01*
X-145184592Y-21028258D02*
X-145209399Y-21168945D01*
X-145209399Y-21168945D02*
X-145195579Y-21364796D01*
X-145195579Y-21364796D02*
X-145165221Y-21466856D01*
X-145165221Y-21466856D02*
X-145087968Y-21577186D01*
X-145087968Y-21577186D02*
X-144955550Y-21648888D01*
X-144955550Y-21648888D02*
X-144721072Y-21690233D01*
X-121982694Y-26005038D02*
X-121887456Y-25957419D01*
X-121887456Y-25957419D02*
X-121744599Y-25957419D01*
X-121744599Y-25957419D02*
X-121601742Y-26005038D01*
X-121601742Y-26005038D02*
X-121506504Y-26100276D01*
X-121506504Y-26100276D02*
X-121458885Y-26195514D01*
X-121458885Y-26195514D02*
X-121411266Y-26385990D01*
X-121411266Y-26385990D02*
X-121411266Y-26528847D01*
X-121411266Y-26528847D02*
X-121458885Y-26719323D01*
X-121458885Y-26719323D02*
X-121506504Y-26814561D01*
X-121506504Y-26814561D02*
X-121601742Y-26909800D01*
X-121601742Y-26909800D02*
X-121744599Y-26957419D01*
X-121744599Y-26957419D02*
X-121839837Y-26957419D01*
X-121839837Y-26957419D02*
X-121982694Y-26909800D01*
X-121982694Y-26909800D02*
X-122030313Y-26862180D01*
X-122030313Y-26862180D02*
X-122030313Y-26528847D01*
X-122030313Y-26528847D02*
X-121839837Y-26528847D01*
X-122458885Y-26957419D02*
X-122458885Y-25957419D01*
X-122458885Y-25957419D02*
X-123030313Y-26957419D01*
X-123030313Y-26957419D02*
X-123030313Y-25957419D01*
X-123506504Y-26957419D02*
X-123506504Y-25957419D01*
X-123506504Y-25957419D02*
X-123744599Y-25957419D01*
X-123744599Y-25957419D02*
X-123887456Y-26005038D01*
X-123887456Y-26005038D02*
X-123982694Y-26100276D01*
X-123982694Y-26100276D02*
X-124030313Y-26195514D01*
X-124030313Y-26195514D02*
X-124077932Y-26385990D01*
X-124077932Y-26385990D02*
X-124077932Y-26528847D01*
X-124077932Y-26528847D02*
X-124030313Y-26719323D01*
X-124030313Y-26719323D02*
X-123982694Y-26814561D01*
X-123982694Y-26814561D02*
X-123887456Y-26909800D01*
X-123887456Y-26909800D02*
X-123744599Y-26957419D01*
X-123744599Y-26957419D02*
X-123506504Y-26957419D01*
X-80993497Y-66655038D02*
X-80898259Y-66607419D01*
X-80898259Y-66607419D02*
X-80755402Y-66607419D01*
X-80755402Y-66607419D02*
X-80612545Y-66655038D01*
X-80612545Y-66655038D02*
X-80517307Y-66750276D01*
X-80517307Y-66750276D02*
X-80469688Y-66845514D01*
X-80469688Y-66845514D02*
X-80422069Y-67035990D01*
X-80422069Y-67035990D02*
X-80422069Y-67178847D01*
X-80422069Y-67178847D02*
X-80469688Y-67369323D01*
X-80469688Y-67369323D02*
X-80517307Y-67464561D01*
X-80517307Y-67464561D02*
X-80612545Y-67559800D01*
X-80612545Y-67559800D02*
X-80755402Y-67607419D01*
X-80755402Y-67607419D02*
X-80850640Y-67607419D01*
X-80850640Y-67607419D02*
X-80993497Y-67559800D01*
X-80993497Y-67559800D02*
X-81041116Y-67512180D01*
X-81041116Y-67512180D02*
X-81041116Y-67178847D01*
X-81041116Y-67178847D02*
X-80850640Y-67178847D01*
X-81469688Y-67607419D02*
X-81469688Y-66607419D01*
X-81469688Y-66607419D02*
X-82041116Y-67607419D01*
X-82041116Y-67607419D02*
X-82041116Y-66607419D01*
X-82517307Y-67607419D02*
X-82517307Y-66607419D01*
X-82517307Y-66607419D02*
X-82755402Y-66607419D01*
X-82755402Y-66607419D02*
X-82898259Y-66655038D01*
X-82898259Y-66655038D02*
X-82993497Y-66750276D01*
X-82993497Y-66750276D02*
X-83041116Y-66845514D01*
X-83041116Y-66845514D02*
X-83088735Y-67035990D01*
X-83088735Y-67035990D02*
X-83088735Y-67178847D01*
X-83088735Y-67178847D02*
X-83041116Y-67369323D01*
X-83041116Y-67369323D02*
X-82993497Y-67464561D01*
X-82993497Y-67464561D02*
X-82898259Y-67559800D01*
X-82898259Y-67559800D02*
X-82755402Y-67607419D01*
X-82755402Y-67607419D02*
X-82517307Y-67607419D01*
X-121982694Y-21455038D02*
X-121887456Y-21407419D01*
X-121887456Y-21407419D02*
X-121744599Y-21407419D01*
X-121744599Y-21407419D02*
X-121601742Y-21455038D01*
X-121601742Y-21455038D02*
X-121506504Y-21550276D01*
X-121506504Y-21550276D02*
X-121458885Y-21645514D01*
X-121458885Y-21645514D02*
X-121411266Y-21835990D01*
X-121411266Y-21835990D02*
X-121411266Y-21978847D01*
X-121411266Y-21978847D02*
X-121458885Y-22169323D01*
X-121458885Y-22169323D02*
X-121506504Y-22264561D01*
X-121506504Y-22264561D02*
X-121601742Y-22359800D01*
X-121601742Y-22359800D02*
X-121744599Y-22407419D01*
X-121744599Y-22407419D02*
X-121839837Y-22407419D01*
X-121839837Y-22407419D02*
X-121982694Y-22359800D01*
X-121982694Y-22359800D02*
X-122030313Y-22312180D01*
X-122030313Y-22312180D02*
X-122030313Y-21978847D01*
X-122030313Y-21978847D02*
X-121839837Y-21978847D01*
X-122458885Y-22407419D02*
X-122458885Y-21407419D01*
X-122458885Y-21407419D02*
X-123030313Y-22407419D01*
X-123030313Y-22407419D02*
X-123030313Y-21407419D01*
X-123506504Y-22407419D02*
X-123506504Y-21407419D01*
X-123506504Y-21407419D02*
X-123744599Y-21407419D01*
X-123744599Y-21407419D02*
X-123887456Y-21455038D01*
X-123887456Y-21455038D02*
X-123982694Y-21550276D01*
X-123982694Y-21550276D02*
X-124030313Y-21645514D01*
X-124030313Y-21645514D02*
X-124077932Y-21835990D01*
X-124077932Y-21835990D02*
X-124077932Y-21978847D01*
X-124077932Y-21978847D02*
X-124030313Y-22169323D01*
X-124030313Y-22169323D02*
X-123982694Y-22264561D01*
X-123982694Y-22264561D02*
X-123887456Y-22359800D01*
X-123887456Y-22359800D02*
X-123744599Y-22407419D01*
X-123744599Y-22407419D02*
X-123506504Y-22407419D01*
X-121982694Y-40505038D02*
X-121887456Y-40457419D01*
X-121887456Y-40457419D02*
X-121744599Y-40457419D01*
X-121744599Y-40457419D02*
X-121601742Y-40505038D01*
X-121601742Y-40505038D02*
X-121506504Y-40600276D01*
X-121506504Y-40600276D02*
X-121458885Y-40695514D01*
X-121458885Y-40695514D02*
X-121411266Y-40885990D01*
X-121411266Y-40885990D02*
X-121411266Y-41028847D01*
X-121411266Y-41028847D02*
X-121458885Y-41219323D01*
X-121458885Y-41219323D02*
X-121506504Y-41314561D01*
X-121506504Y-41314561D02*
X-121601742Y-41409800D01*
X-121601742Y-41409800D02*
X-121744599Y-41457419D01*
X-121744599Y-41457419D02*
X-121839837Y-41457419D01*
X-121839837Y-41457419D02*
X-121982694Y-41409800D01*
X-121982694Y-41409800D02*
X-122030313Y-41362180D01*
X-122030313Y-41362180D02*
X-122030313Y-41028847D01*
X-122030313Y-41028847D02*
X-121839837Y-41028847D01*
X-122458885Y-41457419D02*
X-122458885Y-40457419D01*
X-122458885Y-40457419D02*
X-123030313Y-41457419D01*
X-123030313Y-41457419D02*
X-123030313Y-40457419D01*
X-123506504Y-41457419D02*
X-123506504Y-40457419D01*
X-123506504Y-40457419D02*
X-123744599Y-40457419D01*
X-123744599Y-40457419D02*
X-123887456Y-40505038D01*
X-123887456Y-40505038D02*
X-123982694Y-40600276D01*
X-123982694Y-40600276D02*
X-124030313Y-40695514D01*
X-124030313Y-40695514D02*
X-124077932Y-40885990D01*
X-124077932Y-40885990D02*
X-124077932Y-41028847D01*
X-124077932Y-41028847D02*
X-124030313Y-41219323D01*
X-124030313Y-41219323D02*
X-123982694Y-41314561D01*
X-123982694Y-41314561D02*
X-123887456Y-41409800D01*
X-123887456Y-41409800D02*
X-123744599Y-41457419D01*
X-123744599Y-41457419D02*
X-123506504Y-41457419D01*
X-143845133Y-25497802D02*
X-143743072Y-25467445D01*
X-143743072Y-25467445D02*
X-143602386Y-25492252D01*
X-143602386Y-25492252D02*
X-143469968Y-25563954D01*
X-143469968Y-25563954D02*
X-143392714Y-25674283D01*
X-143392714Y-25674283D02*
X-143362357Y-25776343D01*
X-143362357Y-25776343D02*
X-143348537Y-25972195D01*
X-143348537Y-25972195D02*
X-143373344Y-26112882D01*
X-143373344Y-26112882D02*
X-143453315Y-26292195D01*
X-143453315Y-26292195D02*
X-143516749Y-26377717D01*
X-143516749Y-26377717D02*
X-143627078Y-26454971D01*
X-143627078Y-26454971D02*
X-143776034Y-26477059D01*
X-143776034Y-26477059D02*
X-143869825Y-26460521D01*
X-143869825Y-26460521D02*
X-144002243Y-26388819D01*
X-144002243Y-26388819D02*
X-144040870Y-26333654D01*
X-144040870Y-26333654D02*
X-143982987Y-26005385D01*
X-143982987Y-26005385D02*
X-143795404Y-26038461D01*
X-144479468Y-26353025D02*
X-144305820Y-25368217D01*
X-144305820Y-25368217D02*
X-145042215Y-26253797D01*
X-145042215Y-26253797D02*
X-144868567Y-25268990D01*
X-145511171Y-26171108D02*
X-145337523Y-25186300D01*
X-145337523Y-25186300D02*
X-145572001Y-25144955D01*
X-145572001Y-25144955D02*
X-145720957Y-25167044D01*
X-145720957Y-25167044D02*
X-145831286Y-25244297D01*
X-145831286Y-25244297D02*
X-145894720Y-25329820D01*
X-145894720Y-25329820D02*
X-145974691Y-25509133D01*
X-145974691Y-25509133D02*
X-145999498Y-25649820D01*
X-145999498Y-25649820D02*
X-145985678Y-25845671D01*
X-145985678Y-25845671D02*
X-145955320Y-25947731D01*
X-145955320Y-25947731D02*
X-145878067Y-26058061D01*
X-145878067Y-26058061D02*
X-145745649Y-26129763D01*
X-145745649Y-26129763D02*
X-145511171Y-26171108D01*
X-80993497Y-76605038D02*
X-80898259Y-76557419D01*
X-80898259Y-76557419D02*
X-80755402Y-76557419D01*
X-80755402Y-76557419D02*
X-80612545Y-76605038D01*
X-80612545Y-76605038D02*
X-80517307Y-76700276D01*
X-80517307Y-76700276D02*
X-80469688Y-76795514D01*
X-80469688Y-76795514D02*
X-80422069Y-76985990D01*
X-80422069Y-76985990D02*
X-80422069Y-77128847D01*
X-80422069Y-77128847D02*
X-80469688Y-77319323D01*
X-80469688Y-77319323D02*
X-80517307Y-77414561D01*
X-80517307Y-77414561D02*
X-80612545Y-77509800D01*
X-80612545Y-77509800D02*
X-80755402Y-77557419D01*
X-80755402Y-77557419D02*
X-80850640Y-77557419D01*
X-80850640Y-77557419D02*
X-80993497Y-77509800D01*
X-80993497Y-77509800D02*
X-81041116Y-77462180D01*
X-81041116Y-77462180D02*
X-81041116Y-77128847D01*
X-81041116Y-77128847D02*
X-80850640Y-77128847D01*
X-81469688Y-77557419D02*
X-81469688Y-76557419D01*
X-81469688Y-76557419D02*
X-82041116Y-77557419D01*
X-82041116Y-77557419D02*
X-82041116Y-76557419D01*
X-82517307Y-77557419D02*
X-82517307Y-76557419D01*
X-82517307Y-76557419D02*
X-82755402Y-76557419D01*
X-82755402Y-76557419D02*
X-82898259Y-76605038D01*
X-82898259Y-76605038D02*
X-82993497Y-76700276D01*
X-82993497Y-76700276D02*
X-83041116Y-76795514D01*
X-83041116Y-76795514D02*
X-83088735Y-76985990D01*
X-83088735Y-76985990D02*
X-83088735Y-77128847D01*
X-83088735Y-77128847D02*
X-83041116Y-77319323D01*
X-83041116Y-77319323D02*
X-82993497Y-77414561D01*
X-82993497Y-77414561D02*
X-82898259Y-77509800D01*
X-82898259Y-77509800D02*
X-82755402Y-77557419D01*
X-82755402Y-77557419D02*
X-82517307Y-77557419D01*
X-121982694Y-68655038D02*
X-121887456Y-68607419D01*
X-121887456Y-68607419D02*
X-121744599Y-68607419D01*
X-121744599Y-68607419D02*
X-121601742Y-68655038D01*
X-121601742Y-68655038D02*
X-121506504Y-68750276D01*
X-121506504Y-68750276D02*
X-121458885Y-68845514D01*
X-121458885Y-68845514D02*
X-121411266Y-69035990D01*
X-121411266Y-69035990D02*
X-121411266Y-69178847D01*
X-121411266Y-69178847D02*
X-121458885Y-69369323D01*
X-121458885Y-69369323D02*
X-121506504Y-69464561D01*
X-121506504Y-69464561D02*
X-121601742Y-69559800D01*
X-121601742Y-69559800D02*
X-121744599Y-69607419D01*
X-121744599Y-69607419D02*
X-121839837Y-69607419D01*
X-121839837Y-69607419D02*
X-121982694Y-69559800D01*
X-121982694Y-69559800D02*
X-122030313Y-69512180D01*
X-122030313Y-69512180D02*
X-122030313Y-69178847D01*
X-122030313Y-69178847D02*
X-121839837Y-69178847D01*
X-122458885Y-69607419D02*
X-122458885Y-68607419D01*
X-122458885Y-68607419D02*
X-123030313Y-69607419D01*
X-123030313Y-69607419D02*
X-123030313Y-68607419D01*
X-123506504Y-69607419D02*
X-123506504Y-68607419D01*
X-123506504Y-68607419D02*
X-123744599Y-68607419D01*
X-123744599Y-68607419D02*
X-123887456Y-68655038D01*
X-123887456Y-68655038D02*
X-123982694Y-68750276D01*
X-123982694Y-68750276D02*
X-124030313Y-68845514D01*
X-124030313Y-68845514D02*
X-124077932Y-69035990D01*
X-124077932Y-69035990D02*
X-124077932Y-69178847D01*
X-124077932Y-69178847D02*
X-124030313Y-69369323D01*
X-124030313Y-69369323D02*
X-123982694Y-69464561D01*
X-123982694Y-69464561D02*
X-123887456Y-69559800D01*
X-123887456Y-69559800D02*
X-123744599Y-69607419D01*
X-123744599Y-69607419D02*
X-123506504Y-69607419D01*
X-80993497Y-24005038D02*
X-80898259Y-23957419D01*
X-80898259Y-23957419D02*
X-80755402Y-23957419D01*
X-80755402Y-23957419D02*
X-80612545Y-24005038D01*
X-80612545Y-24005038D02*
X-80517307Y-24100276D01*
X-80517307Y-24100276D02*
X-80469688Y-24195514D01*
X-80469688Y-24195514D02*
X-80422069Y-24385990D01*
X-80422069Y-24385990D02*
X-80422069Y-24528847D01*
X-80422069Y-24528847D02*
X-80469688Y-24719323D01*
X-80469688Y-24719323D02*
X-80517307Y-24814561D01*
X-80517307Y-24814561D02*
X-80612545Y-24909800D01*
X-80612545Y-24909800D02*
X-80755402Y-24957419D01*
X-80755402Y-24957419D02*
X-80850640Y-24957419D01*
X-80850640Y-24957419D02*
X-80993497Y-24909800D01*
X-80993497Y-24909800D02*
X-81041116Y-24862180D01*
X-81041116Y-24862180D02*
X-81041116Y-24528847D01*
X-81041116Y-24528847D02*
X-80850640Y-24528847D01*
X-81469688Y-24957419D02*
X-81469688Y-23957419D01*
X-81469688Y-23957419D02*
X-82041116Y-24957419D01*
X-82041116Y-24957419D02*
X-82041116Y-23957419D01*
X-82517307Y-24957419D02*
X-82517307Y-23957419D01*
X-82517307Y-23957419D02*
X-82755402Y-23957419D01*
X-82755402Y-23957419D02*
X-82898259Y-24005038D01*
X-82898259Y-24005038D02*
X-82993497Y-24100276D01*
X-82993497Y-24100276D02*
X-83041116Y-24195514D01*
X-83041116Y-24195514D02*
X-83088735Y-24385990D01*
X-83088735Y-24385990D02*
X-83088735Y-24528847D01*
X-83088735Y-24528847D02*
X-83041116Y-24719323D01*
X-83041116Y-24719323D02*
X-82993497Y-24814561D01*
X-82993497Y-24814561D02*
X-82898259Y-24909800D01*
X-82898259Y-24909800D02*
X-82755402Y-24957419D01*
X-82755402Y-24957419D02*
X-82517307Y-24957419D01*
X-121982694Y-45055038D02*
X-121887456Y-45007419D01*
X-121887456Y-45007419D02*
X-121744599Y-45007419D01*
X-121744599Y-45007419D02*
X-121601742Y-45055038D01*
X-121601742Y-45055038D02*
X-121506504Y-45150276D01*
X-121506504Y-45150276D02*
X-121458885Y-45245514D01*
X-121458885Y-45245514D02*
X-121411266Y-45435990D01*
X-121411266Y-45435990D02*
X-121411266Y-45578847D01*
X-121411266Y-45578847D02*
X-121458885Y-45769323D01*
X-121458885Y-45769323D02*
X-121506504Y-45864561D01*
X-121506504Y-45864561D02*
X-121601742Y-45959800D01*
X-121601742Y-45959800D02*
X-121744599Y-46007419D01*
X-121744599Y-46007419D02*
X-121839837Y-46007419D01*
X-121839837Y-46007419D02*
X-121982694Y-45959800D01*
X-121982694Y-45959800D02*
X-122030313Y-45912180D01*
X-122030313Y-45912180D02*
X-122030313Y-45578847D01*
X-122030313Y-45578847D02*
X-121839837Y-45578847D01*
X-122458885Y-46007419D02*
X-122458885Y-45007419D01*
X-122458885Y-45007419D02*
X-123030313Y-46007419D01*
X-123030313Y-46007419D02*
X-123030313Y-45007419D01*
X-123506504Y-46007419D02*
X-123506504Y-45007419D01*
X-123506504Y-45007419D02*
X-123744599Y-45007419D01*
X-123744599Y-45007419D02*
X-123887456Y-45055038D01*
X-123887456Y-45055038D02*
X-123982694Y-45150276D01*
X-123982694Y-45150276D02*
X-124030313Y-45245514D01*
X-124030313Y-45245514D02*
X-124077932Y-45435990D01*
X-124077932Y-45435990D02*
X-124077932Y-45578847D01*
X-124077932Y-45578847D02*
X-124030313Y-45769323D01*
X-124030313Y-45769323D02*
X-123982694Y-45864561D01*
X-123982694Y-45864561D02*
X-123887456Y-45959800D01*
X-123887456Y-45959800D02*
X-123744599Y-46007419D01*
X-123744599Y-46007419D02*
X-123506504Y-46007419D01*
X-80993497Y-38505038D02*
X-80898259Y-38457419D01*
X-80898259Y-38457419D02*
X-80755402Y-38457419D01*
X-80755402Y-38457419D02*
X-80612545Y-38505038D01*
X-80612545Y-38505038D02*
X-80517307Y-38600276D01*
X-80517307Y-38600276D02*
X-80469688Y-38695514D01*
X-80469688Y-38695514D02*
X-80422069Y-38885990D01*
X-80422069Y-38885990D02*
X-80422069Y-39028847D01*
X-80422069Y-39028847D02*
X-80469688Y-39219323D01*
X-80469688Y-39219323D02*
X-80517307Y-39314561D01*
X-80517307Y-39314561D02*
X-80612545Y-39409800D01*
X-80612545Y-39409800D02*
X-80755402Y-39457419D01*
X-80755402Y-39457419D02*
X-80850640Y-39457419D01*
X-80850640Y-39457419D02*
X-80993497Y-39409800D01*
X-80993497Y-39409800D02*
X-81041116Y-39362180D01*
X-81041116Y-39362180D02*
X-81041116Y-39028847D01*
X-81041116Y-39028847D02*
X-80850640Y-39028847D01*
X-81469688Y-39457419D02*
X-81469688Y-38457419D01*
X-81469688Y-38457419D02*
X-82041116Y-39457419D01*
X-82041116Y-39457419D02*
X-82041116Y-38457419D01*
X-82517307Y-39457419D02*
X-82517307Y-38457419D01*
X-82517307Y-38457419D02*
X-82755402Y-38457419D01*
X-82755402Y-38457419D02*
X-82898259Y-38505038D01*
X-82898259Y-38505038D02*
X-82993497Y-38600276D01*
X-82993497Y-38600276D02*
X-83041116Y-38695514D01*
X-83041116Y-38695514D02*
X-83088735Y-38885990D01*
X-83088735Y-38885990D02*
X-83088735Y-39028847D01*
X-83088735Y-39028847D02*
X-83041116Y-39219323D01*
X-83041116Y-39219323D02*
X-82993497Y-39314561D01*
X-82993497Y-39314561D02*
X-82898259Y-39409800D01*
X-82898259Y-39409800D02*
X-82755402Y-39457419D01*
X-82755402Y-39457419D02*
X-82517307Y-39457419D01*
X-121982694Y-30555038D02*
X-121887456Y-30507419D01*
X-121887456Y-30507419D02*
X-121744599Y-30507419D01*
X-121744599Y-30507419D02*
X-121601742Y-30555038D01*
X-121601742Y-30555038D02*
X-121506504Y-30650276D01*
X-121506504Y-30650276D02*
X-121458885Y-30745514D01*
X-121458885Y-30745514D02*
X-121411266Y-30935990D01*
X-121411266Y-30935990D02*
X-121411266Y-31078847D01*
X-121411266Y-31078847D02*
X-121458885Y-31269323D01*
X-121458885Y-31269323D02*
X-121506504Y-31364561D01*
X-121506504Y-31364561D02*
X-121601742Y-31459800D01*
X-121601742Y-31459800D02*
X-121744599Y-31507419D01*
X-121744599Y-31507419D02*
X-121839837Y-31507419D01*
X-121839837Y-31507419D02*
X-121982694Y-31459800D01*
X-121982694Y-31459800D02*
X-122030313Y-31412180D01*
X-122030313Y-31412180D02*
X-122030313Y-31078847D01*
X-122030313Y-31078847D02*
X-121839837Y-31078847D01*
X-122458885Y-31507419D02*
X-122458885Y-30507419D01*
X-122458885Y-30507419D02*
X-123030313Y-31507419D01*
X-123030313Y-31507419D02*
X-123030313Y-30507419D01*
X-123506504Y-31507419D02*
X-123506504Y-30507419D01*
X-123506504Y-30507419D02*
X-123744599Y-30507419D01*
X-123744599Y-30507419D02*
X-123887456Y-30555038D01*
X-123887456Y-30555038D02*
X-123982694Y-30650276D01*
X-123982694Y-30650276D02*
X-124030313Y-30745514D01*
X-124030313Y-30745514D02*
X-124077932Y-30935990D01*
X-124077932Y-30935990D02*
X-124077932Y-31078847D01*
X-124077932Y-31078847D02*
X-124030313Y-31269323D01*
X-124030313Y-31269323D02*
X-123982694Y-31364561D01*
X-123982694Y-31364561D02*
X-123887456Y-31459800D01*
X-123887456Y-31459800D02*
X-123744599Y-31507419D01*
X-123744599Y-31507419D02*
X-123506504Y-31507419D01*
X-57160706Y-18230643D02*
X-57075184Y-18167209D01*
X-57075184Y-18167209D02*
X-56934497Y-18142403D01*
X-56934497Y-18142403D02*
X-56785541Y-18164491D01*
X-56785541Y-18164491D02*
X-56675212Y-18241745D01*
X-56675212Y-18241745D02*
X-56611779Y-18327267D01*
X-56611779Y-18327267D02*
X-56531807Y-18506580D01*
X-56531807Y-18506580D02*
X-56507000Y-18647267D01*
X-56507000Y-18647267D02*
X-56520820Y-18843118D01*
X-56520820Y-18843118D02*
X-56551178Y-18945179D01*
X-56551178Y-18945179D02*
X-56628431Y-19055508D01*
X-56628431Y-19055508D02*
X-56760849Y-19127210D01*
X-56760849Y-19127210D02*
X-56854640Y-19143748D01*
X-56854640Y-19143748D02*
X-57003596Y-19121659D01*
X-57003596Y-19121659D02*
X-57058760Y-19083033D01*
X-57058760Y-19083033D02*
X-57116643Y-18754764D01*
X-57116643Y-18754764D02*
X-56929061Y-18721688D01*
X-57464283Y-19251245D02*
X-57637931Y-18266437D01*
X-57637931Y-18266437D02*
X-58027030Y-19350472D01*
X-58027030Y-19350472D02*
X-58200678Y-18365664D01*
X-58495986Y-19433162D02*
X-58669634Y-18448354D01*
X-58669634Y-18448354D02*
X-58904112Y-18489699D01*
X-58904112Y-18489699D02*
X-59036530Y-18561401D01*
X-59036530Y-18561401D02*
X-59113784Y-18671730D01*
X-59113784Y-18671730D02*
X-59144141Y-18773791D01*
X-59144141Y-18773791D02*
X-59157961Y-18969642D01*
X-59157961Y-18969642D02*
X-59133154Y-19110329D01*
X-59133154Y-19110329D02*
X-59053183Y-19289642D01*
X-59053183Y-19289642D02*
X-58989749Y-19375165D01*
X-58989749Y-19375165D02*
X-58879420Y-19452418D01*
X-58879420Y-19452418D02*
X-58730464Y-19474507D01*
X-58730464Y-19474507D02*
X-58495986Y-19433162D01*
%TO.C,R34*%
D11*
X-84777500Y9462742D02*
X-84777500Y9937258D01*
X-85822500Y9462742D02*
X-85822500Y9937258D01*
%TO.C,R33*%
X-82037258Y2077500D02*
X-81562742Y2077500D01*
X-82037258Y3122500D02*
X-81562742Y3122500D01*
%TO.C,LED125*%
D12*
X-80275000Y-28690000D02*
X-80275000Y-28350000D01*
X-80275000Y-30140000D02*
X-80275000Y-29960000D01*
X-80275000Y-31650000D02*
X-80275000Y-31410000D01*
X-80275000Y-31650000D02*
X-76575000Y-31650000D01*
X-76575000Y-28350000D02*
X-80275000Y-28350000D01*
X-76575000Y-28690000D02*
X-76575000Y-28350000D01*
X-76575000Y-30140000D02*
X-76575000Y-29960000D01*
X-76575000Y-31650000D02*
X-76575000Y-31410000D01*
D13*
X-81335000Y-28650000D02*
G75*
G02*
X-81395000Y-28650000I-30000J0D01*
G01*
X-81395000Y-28650000D02*
G75*
G02*
X-81335000Y-28650000I30000J0D01*
G01*
D14*
G36*
X-80837822Y-28779975D02*
G01*
X-80837822Y-28272025D01*
X-80329898Y-28272025D01*
X-80837822Y-28779975D01*
G37*
%TO.C,LED114*%
D12*
X-127925000Y-81050000D02*
X-127925000Y-81290000D01*
X-127925000Y-82560000D02*
X-127925000Y-82740000D01*
X-127925000Y-84010000D02*
X-127925000Y-84350000D01*
X-127925000Y-84350000D02*
X-124225000Y-84350000D01*
X-124225000Y-81050000D02*
X-127925000Y-81050000D01*
X-124225000Y-81050000D02*
X-124225000Y-81290000D01*
X-124225000Y-82560000D02*
X-124225000Y-82740000D01*
X-124225000Y-84010000D02*
X-124225000Y-84350000D01*
D13*
X-123105000Y-84050000D02*
G75*
G02*
X-123165000Y-84050000I-30000J0D01*
G01*
X-123165000Y-84050000D02*
G75*
G02*
X-123105000Y-84050000I30000J0D01*
G01*
D14*
G36*
X-123662178Y-84427975D02*
G01*
X-124170102Y-84427975D01*
X-123662178Y-83920025D01*
X-123662178Y-84427975D01*
G37*
%TO.C,C101*%
D15*
X-138999454Y-15025104D02*
X-140378184Y-14781996D01*
%TO.C,SW47*%
D16*
X-193091678Y-15489361D02*
X-193051739Y-15262855D01*
X-192556841Y-12456153D02*
X-192475227Y-11993294D01*
X-191895999Y-11587714D02*
X-187400525Y-12380387D01*
X-191565226Y-15758516D02*
X-193091678Y-15489361D01*
X-184277648Y-17043512D02*
X-190088014Y-16018988D01*
X-181821818Y-14633347D02*
X-181960737Y-15421193D01*
X-181326921Y-11826645D02*
X-181285245Y-11590291D01*
X-192475227Y-11993294D02*
G75*
G02*
X-191895999Y-11587714I492405J-86825D01*
G01*
X-184821546Y-10966746D02*
G75*
G02*
X-187400525Y-12380387I-2170169J899849D01*
G01*
X-181960737Y-15421193D02*
G75*
G02*
X-184277648Y-17043511I-1969618J347301D01*
G01*
%TO.C,SW16*%
X-244841223Y20138115D02*
X-244801284Y20364621D01*
X-244306386Y23171323D02*
X-244224772Y23634182D01*
X-243645544Y24039762D02*
X-239150070Y23247089D01*
X-243314771Y19868960D02*
X-244841223Y20138115D01*
X-236027193Y18583964D02*
X-241837559Y19608488D01*
X-233571363Y20994129D02*
X-233710282Y20206283D01*
X-233076466Y23800831D02*
X-233034790Y24037185D01*
X-244224772Y23634182D02*
G75*
G02*
X-243645544Y24039762I492405J-86825D01*
G01*
X-236571091Y24660730D02*
G75*
G02*
X-239150070Y23247089I-2170169J899849D01*
G01*
X-233710282Y20206283D02*
G75*
G02*
X-236027193Y18583965I-1969618J347301D01*
G01*
%TO.C,C140*%
D15*
X-76825000Y-15340000D02*
X-76825000Y-13940000D01*
%TO.C,SW58*%
D16*
X-254765217Y-36143648D02*
X-254725278Y-35917142D01*
X-254230380Y-33110440D02*
X-254148766Y-32647581D01*
X-253569538Y-32242001D02*
X-249074064Y-33034674D01*
X-253238765Y-36412803D02*
X-254765217Y-36143648D01*
X-245951187Y-37697799D02*
X-251761553Y-36673275D01*
X-243495357Y-35287634D02*
X-243634276Y-36075480D01*
X-243000460Y-32480932D02*
X-242958784Y-32244578D01*
X-254148766Y-32647581D02*
G75*
G02*
X-253569538Y-32242001I492405J-86825D01*
G01*
X-246495085Y-31621033D02*
G75*
G02*
X-249074064Y-33034674I-2170169J899849D01*
G01*
X-243634276Y-36075480D02*
G75*
G02*
X-245951187Y-37697798I-1969618J347301D01*
G01*
%TO.C,D108*%
D11*
X-116075000Y-19540000D02*
X-116075000Y-23550000D01*
X-116075000Y-19540000D02*
X-114075000Y-19540000D01*
X-114075000Y-19540000D02*
X-114075000Y-23550000D01*
%TO.C,SW79*%
D16*
X-33148639Y-57929285D02*
X-33230254Y-57466425D01*
X-32824674Y-56887197D02*
X-28329200Y-56094524D01*
X-32613803Y-60962493D02*
X-32653742Y-60735987D01*
X-31087351Y-60693338D02*
X-32613803Y-60962493D01*
X-23799774Y-59408342D02*
X-29610139Y-60432866D01*
X-22811270Y-53496881D02*
X-22852946Y-53260528D01*
X-22316373Y-56303584D02*
X-22177454Y-57091430D01*
X-33230254Y-57466425D02*
G75*
G02*
X-32824674Y-56887197I492405J86823D01*
G01*
X-26389247Y-53884073D02*
G75*
G02*
X-28329200Y-56094524I-2347061J103342D01*
G01*
X-22177454Y-57091430D02*
G75*
G02*
X-23799775Y-59408338I-1969612J-347295D01*
G01*
%TO.C,C104*%
D11*
X-139771860Y-19060113D02*
X-139734409Y-18847718D01*
X-139062799Y-19185140D02*
X-139025348Y-18972745D01*
%TO.C,R105*%
X-67434330Y21150951D02*
X-67351932Y20683644D01*
X-66405206Y21332414D02*
X-66322808Y20865107D01*
%TO.C,SW29*%
D16*
X-266909809Y4685524D02*
X-266869870Y4912030D01*
X-266374972Y7718732D02*
X-266293358Y8181591D01*
X-265714130Y8587171D02*
X-261218656Y7794498D01*
X-265383357Y4416369D02*
X-266909809Y4685524D01*
X-258095779Y3131373D02*
X-263906145Y4155897D01*
X-255639949Y5541538D02*
X-255778868Y4753692D01*
X-255145052Y8348240D02*
X-255103376Y8584594D01*
X-266293358Y8181591D02*
G75*
G02*
X-265714130Y8587171I492405J-86825D01*
G01*
X-258639677Y9208139D02*
G75*
G02*
X-261218656Y7794498I-2170169J899849D01*
G01*
X-255778868Y4753692D02*
G75*
G02*
X-258095779Y3131374I-1969618J347301D01*
G01*
%TO.C,D58*%
D11*
X-251636965Y-23382778D02*
X-252333294Y-27331857D01*
X-251636965Y-23382778D02*
X-249667350Y-23730074D01*
X-249667350Y-23730074D02*
X-250363679Y-27679153D01*
%TO.C,C137*%
X-128967164Y-65840000D02*
X-129182836Y-65840000D01*
X-128967164Y-66560000D02*
X-129182836Y-66560000D01*
%TO.C,D102*%
X-149375693Y6463166D02*
X-150072022Y2514087D01*
X-149375693Y6463166D02*
X-147406078Y6115870D01*
X-147406078Y6115870D02*
X-148102407Y2166791D01*
%TO.C,D39*%
X-8351631Y25829372D02*
X-7655302Y21880293D01*
X-8351631Y25829372D02*
X-6382016Y26176668D01*
X-6382016Y26176668D02*
X-5685687Y22227589D01*
%TO.C,D86*%
X-237061299Y-50424642D02*
X-237757628Y-54373721D01*
X-237061299Y-50424642D02*
X-235091684Y-50771938D01*
X-235091684Y-50771938D02*
X-235788013Y-54721017D01*
%TO.C,D111*%
X-97075000Y-19540000D02*
X-97075000Y-23550000D01*
X-97075000Y-19540000D02*
X-95075000Y-19540000D01*
X-95075000Y-19540000D02*
X-95075000Y-23550000D01*
%TO.C,SW87*%
D16*
X-220387073Y-60584664D02*
X-220347134Y-60358158D01*
X-219852236Y-57551456D02*
X-219770622Y-57088597D01*
X-219191394Y-56683017D02*
X-214695920Y-57475690D01*
X-218860621Y-60853819D02*
X-220387073Y-60584664D01*
X-211573043Y-62138815D02*
X-217383409Y-61114291D01*
X-209117213Y-59728650D02*
X-209256132Y-60516496D01*
X-208622316Y-56921948D02*
X-208580640Y-56685594D01*
X-219770622Y-57088597D02*
G75*
G02*
X-219191394Y-56683017I492405J-86825D01*
G01*
X-212116941Y-56062049D02*
G75*
G02*
X-214695920Y-57475690I-2170169J899849D01*
G01*
X-209256132Y-60516496D02*
G75*
G02*
X-211573043Y-62138814I-1969618J347301D01*
G01*
%TO.C,D32*%
D11*
X-204026831Y27218557D02*
X-204723160Y23269478D01*
X-204026831Y27218557D02*
X-202057216Y26871261D01*
X-202057216Y26871261D02*
X-202753545Y22922182D01*
%TO.C,C132*%
X-65416438Y15640379D02*
X-65628833Y15602928D01*
X-65291411Y14931318D02*
X-65503806Y14893867D01*
%TO.C,SW55*%
D16*
X36840550Y-16039388D02*
X36758935Y-15576528D01*
X37164515Y-14997300D02*
X41659989Y-14204627D01*
X37375386Y-19072596D02*
X37335447Y-18846090D01*
X38901838Y-18803441D02*
X37375386Y-19072596D01*
X46189415Y-17518445D02*
X40379050Y-18542969D01*
X47177919Y-11606984D02*
X47136243Y-11370631D01*
X47672816Y-14413687D02*
X47811735Y-15201533D01*
X36758935Y-15576528D02*
G75*
G02*
X37164515Y-14997300I492405J86823D01*
G01*
X43599942Y-11994176D02*
G75*
G02*
X41659989Y-14204627I-2347061J103342D01*
G01*
X47811735Y-15201533D02*
G75*
G02*
X46189414Y-17518441I-1969612J-347295D01*
G01*
%TO.C,D90*%
D11*
X-162887189Y-68580673D02*
X-163583518Y-72529752D01*
X-162887189Y-68580673D02*
X-160917574Y-68927969D01*
X-160917574Y-68927969D02*
X-161613903Y-72877048D01*
%TO.C,SW108*%
D16*
X-97589824Y-48220220D02*
X-97589824Y-47750220D01*
X-97589824Y-51300220D02*
X-97589824Y-51070220D01*
X-97089824Y-47250220D02*
X-92525000Y-47250220D01*
X-96039824Y-51300220D02*
X-97589824Y-51300220D01*
X-88639824Y-51300220D02*
X-94539824Y-51300220D01*
X-86639824Y-45650220D02*
X-86639824Y-45410220D01*
X-86639824Y-48500220D02*
X-86639824Y-49300220D01*
X-97589824Y-47750220D02*
G75*
G02*
X-97089824Y-47250220I500001J-1D01*
G01*
X-90230678Y-45410220D02*
G75*
G02*
X-92525000Y-47250220I-2293456J509332D01*
G01*
X-86639824Y-49300220D02*
G75*
G02*
X-88639824Y-51300220I-2000004J4D01*
G01*
%TO.C,SW17*%
X-223649561Y30617426D02*
X-223609622Y30843932D01*
X-223114724Y33650634D02*
X-223033110Y34113493D01*
X-222453882Y34519073D02*
X-217958408Y33726400D01*
X-222123109Y30348271D02*
X-223649561Y30617426D01*
X-214835531Y29063275D02*
X-220645897Y30087799D01*
X-212379701Y31473440D02*
X-212518620Y30685594D01*
X-211884804Y34280142D02*
X-211843128Y34516496D01*
X-223033110Y34113493D02*
G75*
G02*
X-222453882Y34519073I492405J-86825D01*
G01*
X-215379429Y35140041D02*
G75*
G02*
X-217958408Y33726400I-2170169J899849D01*
G01*
X-212518620Y30685594D02*
G75*
G02*
X-214835531Y29063276I-1969618J347301D01*
G01*
%TO.C,D23*%
D11*
X-47270674Y27141080D02*
X-46574345Y23192001D01*
X-47270674Y27141080D02*
X-45301059Y27488376D01*
X-45301059Y27488376D02*
X-44604730Y23539297D01*
%TO.C,SW84*%
D16*
X62217133Y-50252566D02*
X62135518Y-49789706D01*
X62541098Y-49210478D02*
X67036572Y-48417805D01*
X62751969Y-53285774D02*
X62712030Y-53059268D01*
X64278421Y-53016619D02*
X62751969Y-53285774D01*
X71565998Y-51731623D02*
X65755633Y-52756147D01*
X72554502Y-45820162D02*
X72512826Y-45583809D01*
X73049399Y-48626865D02*
X73188318Y-49414711D01*
X62135518Y-49789706D02*
G75*
G02*
X62541098Y-49210478I492405J86823D01*
G01*
X68976525Y-46207354D02*
G75*
G02*
X67036572Y-48417805I-2347061J103342D01*
G01*
X73188318Y-49414711D02*
G75*
G02*
X71565997Y-51731619I-1969612J-347295D01*
G01*
%TO.C,C121*%
D11*
X-75432836Y-84240000D02*
X-75217164Y-84240000D01*
X-75432836Y-84960000D02*
X-75217164Y-84960000D01*
%TO.C,R106*%
X-56023344Y24965398D02*
X-55940946Y24498091D01*
X-54994220Y25146861D02*
X-54911822Y24679554D01*
%TO.C,D80*%
X-15799040Y-41638851D02*
X-15102711Y-45587930D01*
X-15799040Y-41638851D02*
X-13829425Y-41291555D01*
X-13829425Y-41291555D02*
X-13133096Y-45240634D01*
%TO.C,C136*%
X-128967164Y-80340000D02*
X-129182836Y-80340000D01*
X-128967164Y-81060000D02*
X-129182836Y-81060000D01*
%TO.C,SW53*%
D16*
X-4153589Y-2959229D02*
X-4235204Y-2496369D01*
X-3829624Y-1917141D02*
X665850Y-1124468D01*
X-3618753Y-5992437D02*
X-3658692Y-5765931D01*
X-2092301Y-5723282D02*
X-3618753Y-5992437D01*
X5195276Y-4438286D02*
X-615089Y-5462810D01*
X6183780Y1473175D02*
X6142104Y1709528D01*
X6678677Y-1333528D02*
X6817596Y-2121374D01*
X-4235204Y-2496369D02*
G75*
G02*
X-3829624Y-1917141I492405J86823D01*
G01*
X2605803Y1085983D02*
G75*
G02*
X665850Y-1124468I-2347061J103342D01*
G01*
X6817596Y-2121374D02*
G75*
G02*
X5195275Y-4438282I-1969612J-347295D01*
G01*
%TO.C,D51*%
D11*
X-40654677Y-10380096D02*
X-39958348Y-14329175D01*
X-40654677Y-10380096D02*
X-38685062Y-10032800D01*
X-38685062Y-10032800D02*
X-37988733Y-13981879D01*
%TO.C,SW30*%
D16*
X-248149221Y1377527D02*
X-248109282Y1604033D01*
X-247614384Y4410735D02*
X-247532770Y4873594D01*
X-246953542Y5279174D02*
X-242458068Y4486501D01*
X-246622769Y1108372D02*
X-248149221Y1377527D01*
X-239335191Y-176624D02*
X-245145557Y847900D01*
X-236879361Y2233541D02*
X-237018280Y1445695D01*
X-236384464Y5040243D02*
X-236342788Y5276597D01*
X-247532770Y4873594D02*
G75*
G02*
X-246953542Y5279174I492405J-86825D01*
G01*
X-239879089Y5900142D02*
G75*
G02*
X-242458068Y4486501I-2170169J899849D01*
G01*
X-237018280Y1445695D02*
G75*
G02*
X-239335191Y-176623I-1969618J347301D01*
G01*
%TO.C,SW31*%
X-226957559Y11856838D02*
X-226917620Y12083344D01*
X-226422722Y14890046D02*
X-226341108Y15352905D01*
X-225761880Y15758485D02*
X-221266406Y14965812D01*
X-225431107Y11587683D02*
X-226957559Y11856838D01*
X-218143529Y10302687D02*
X-223953895Y11327211D01*
X-215687699Y12712852D02*
X-215826618Y11925006D01*
X-215192802Y15519554D02*
X-215151126Y15755908D01*
X-226341108Y15352905D02*
G75*
G02*
X-225761880Y15758485I492405J-86825D01*
G01*
X-218687427Y16379453D02*
G75*
G02*
X-221266406Y14965812I-2170169J899849D01*
G01*
X-215826618Y11925006D02*
G75*
G02*
X-218143529Y10302688I-1969618J347301D01*
G01*
%TO.C,IC102*%
D15*
X-79972892Y13495084D02*
X-78791123Y13703463D01*
X-78976067Y16767904D02*
X-78472487Y13911961D01*
X-78472487Y13911961D02*
X-77881603Y14016150D01*
X-78385183Y16872093D02*
X-78976067Y16767904D01*
X-77881603Y14016150D02*
X-78385183Y16872093D01*
%TO.C,D47*%
D11*
X-189963426Y-2728490D02*
X-190659755Y-6677569D01*
X-189963426Y-2728490D02*
X-187993811Y-3075786D01*
X-187993811Y-3075786D02*
X-188690140Y-7024865D01*
%TO.C,LED101*%
D12*
X-151455364Y-16128927D02*
X-147811576Y-16771425D01*
X-151396324Y-15794092D02*
X-151455364Y-16128927D01*
X-151144534Y-14366121D02*
X-151175791Y-14543387D01*
X-150882325Y-12879060D02*
X-150924001Y-13115415D01*
X-147752535Y-16436591D02*
X-147811576Y-16771425D01*
X-147500745Y-15008619D02*
X-147532002Y-15185885D01*
X-147238537Y-13521560D02*
X-150882325Y-12879060D01*
X-147238537Y-13521560D02*
X-147280212Y-13757914D01*
D13*
X-146656041Y-16665259D02*
G75*
G02*
X-146716041Y-16665259I-30000J0D01*
G01*
X-146716041Y-16665259D02*
G75*
G02*
X-146656041Y-16665259I30000J0D01*
G01*
D14*
G36*
X-147270844Y-16945949D02*
G01*
X-147771052Y-16857749D01*
X-147182640Y-16445716D01*
X-147270844Y-16945949D01*
G37*
%TO.C,D19*%
D11*
X-183347431Y34792685D02*
X-184043760Y30843606D01*
X-183347431Y34792685D02*
X-181377816Y34445389D01*
X-181377816Y34445389D02*
X-182074145Y30496310D01*
%TO.C,SW74*%
D16*
X-217079076Y-41824076D02*
X-217039137Y-41597570D01*
X-216544239Y-38790868D02*
X-216462625Y-38328009D01*
X-215883397Y-37922429D02*
X-211387923Y-38715102D01*
X-215552624Y-42093231D02*
X-217079076Y-41824076D01*
X-208265046Y-43378227D02*
X-214075412Y-42353703D01*
X-205809216Y-40968062D02*
X-205948135Y-41755908D01*
X-205314319Y-38161360D02*
X-205272643Y-37925006D01*
X-216462625Y-38328009D02*
G75*
G02*
X-215883397Y-37922429I492405J-86825D01*
G01*
X-208808944Y-37301461D02*
G75*
G02*
X-211387923Y-38715102I-2170169J899849D01*
G01*
X-205948135Y-41755908D02*
G75*
G02*
X-208265046Y-43378226I-1969618J347301D01*
G01*
%TO.C,D25*%
D11*
X-11878356Y44246764D02*
X-11182027Y40297685D01*
X-11878356Y44246764D02*
X-9908741Y44594060D01*
X-9908741Y44594060D02*
X-9212412Y40644981D01*
%TO.C,SW106*%
D16*
X-116639824Y-29170220D02*
X-116639824Y-28700220D01*
X-116639824Y-32250220D02*
X-116639824Y-32020220D01*
X-116139824Y-28200220D02*
X-111575000Y-28200220D01*
X-115089824Y-32250220D02*
X-116639824Y-32250220D01*
X-107689824Y-32250220D02*
X-113589824Y-32250220D01*
X-105689824Y-26600220D02*
X-105689824Y-26360220D01*
X-105689824Y-29450220D02*
X-105689824Y-30250220D01*
X-116639824Y-28700220D02*
G75*
G02*
X-116139824Y-28200220I500001J-1D01*
G01*
X-109280678Y-26360220D02*
G75*
G02*
X-111575000Y-28200220I-2293456J509332D01*
G01*
X-105689824Y-30250220D02*
G75*
G02*
X-107689824Y-32250220I-2000004J4D01*
G01*
%TO.C,C142*%
D15*
X-127325000Y-16120000D02*
X-127325000Y-17520000D01*
%TO.C,SW83*%
D16*
X43456546Y-53560564D02*
X43374931Y-53097704D01*
X43780511Y-52518476D02*
X48275985Y-51725803D01*
X43991382Y-56593772D02*
X43951443Y-56367266D01*
X45517834Y-56324617D02*
X43991382Y-56593772D01*
X52805411Y-55039621D02*
X46995046Y-56064145D01*
X53793915Y-49128160D02*
X53752239Y-48891807D01*
X54288812Y-51934863D02*
X54427731Y-52722709D01*
X43374931Y-53097704D02*
G75*
G02*
X43780511Y-52518476I492405J86823D01*
G01*
X50215938Y-49515352D02*
G75*
G02*
X48275985Y-51725803I-2347061J103342D01*
G01*
X54427731Y-52722709D02*
G75*
G02*
X52805410Y-55039617I-1969612J-347295D01*
G01*
%TO.C,D17*%
D11*
X-220521310Y43378296D02*
X-221217639Y39429217D01*
X-220521310Y43378296D02*
X-218551695Y43031000D01*
X-218551695Y43031000D02*
X-219248024Y39081921D01*
%TO.C,C125*%
X-151911820Y-12860002D02*
X-152124215Y-12822551D01*
X-151786793Y-12150941D02*
X-151999188Y-12113490D01*
%TO.C,C130*%
X-76244982Y13705628D02*
X-76457377Y13668177D01*
X-76119955Y12996567D02*
X-76332350Y12959116D01*
%TO.C,C117*%
X-75432836Y-22540000D02*
X-75217164Y-22540000D01*
X-75432836Y-23260000D02*
X-75217164Y-23260000D01*
%TO.C,C128*%
X-51963546Y-15826605D02*
X-51751151Y-15789154D01*
X-51838519Y-16535666D02*
X-51626124Y-16498215D01*
%TO.C,SW105*%
D16*
X-116639824Y-48220220D02*
X-116639824Y-47750220D01*
X-116639824Y-51300220D02*
X-116639824Y-51070220D01*
X-116139824Y-47250220D02*
X-111575000Y-47250220D01*
X-115089824Y-51300220D02*
X-116639824Y-51300220D01*
X-107689824Y-51300220D02*
X-113589824Y-51300220D01*
X-105689824Y-45650220D02*
X-105689824Y-45410220D01*
X-105689824Y-48500220D02*
X-105689824Y-49300220D01*
X-116639824Y-47750220D02*
G75*
G02*
X-116139824Y-47250220I500001J-1D01*
G01*
X-109280678Y-45410220D02*
G75*
G02*
X-111575000Y-47250220I-2293456J509332D01*
G01*
X-105689824Y-49300220D02*
G75*
G02*
X-107689824Y-51300220I-2000004J4D01*
G01*
%TO.C,SW86*%
X-240189550Y-63185513D02*
X-240149611Y-62959007D01*
X-239654713Y-60152305D02*
X-239573099Y-59689446D01*
X-238993871Y-59283866D02*
X-234498397Y-60076539D01*
X-238663098Y-63454668D02*
X-240189550Y-63185513D01*
X-231375520Y-64739664D02*
X-237185886Y-63715140D01*
X-228919690Y-62329499D02*
X-229058609Y-63117345D01*
X-228424793Y-59522797D02*
X-228383117Y-59286443D01*
X-239573099Y-59689446D02*
G75*
G02*
X-238993871Y-59283866I492405J-86825D01*
G01*
X-231919418Y-58662898D02*
G75*
G02*
X-234498397Y-60076539I-2170169J899849D01*
G01*
X-229058609Y-63117345D02*
G75*
G02*
X-231375520Y-64739663I-1969618J347301D01*
G01*
%TO.C,C126*%
D11*
X-152693237Y-17291637D02*
X-152905632Y-17254186D01*
X-152568210Y-16582576D02*
X-152780605Y-16545125D01*
%TO.C,C10*%
X-146986357Y17767842D02*
X-147023808Y17555447D01*
X-146277296Y17642815D02*
X-146314747Y17430420D01*
%TO.C,R103*%
X-76591002Y19524452D02*
X-76508604Y19057145D01*
X-75561878Y19705915D02*
X-75479480Y19238608D01*
%TO.C,C118*%
X-75432836Y-31640000D02*
X-75217164Y-31640000D01*
X-75432836Y-32360000D02*
X-75217164Y-32360000D01*
%TO.C,SW101*%
D16*
X-152783449Y-6299192D02*
X-152743510Y-6072686D01*
X-152248612Y-3265984D02*
X-152166998Y-2803125D01*
X-151587770Y-2397545D02*
X-147092296Y-3190218D01*
X-151256997Y-6568347D02*
X-152783449Y-6299192D01*
X-143969419Y-7853343D02*
X-149779785Y-6828819D01*
X-141513589Y-5443178D02*
X-141652508Y-6231024D01*
X-141018692Y-2636476D02*
X-140977016Y-2400122D01*
X-152166998Y-2803125D02*
G75*
G02*
X-151587770Y-2397545I492405J-86825D01*
G01*
X-144513317Y-1776577D02*
G75*
G02*
X-147092296Y-3190218I-2170169J899849D01*
G01*
X-141652508Y-6231024D02*
G75*
G02*
X-143969419Y-7853342I-1969618J347301D01*
G01*
%TO.C,IC3*%
D17*
X-144447318Y11978351D02*
X-143282903Y18582078D01*
X-143282903Y18582078D02*
X-139630842Y17938121D01*
X-140795257Y11334394D02*
X-144447318Y11978351D01*
X-139630842Y17938121D02*
X-140795257Y11334394D01*
%TO.C,D109*%
D11*
X-97075000Y-57540000D02*
X-97075000Y-61550000D01*
X-97075000Y-57540000D02*
X-95075000Y-57540000D01*
X-95075000Y-57540000D02*
X-95075000Y-61550000D01*
%TO.C,R102*%
X-78265175Y19229250D02*
X-78182777Y18761943D01*
X-77236051Y19410713D02*
X-77153653Y18943406D01*
%TO.C,C108*%
X-128967164Y-18790000D02*
X-129182836Y-18790000D01*
X-128967164Y-19510000D02*
X-129182836Y-19510000D01*
%TO.C,LED123*%
D12*
X-80275000Y-43190000D02*
X-80275000Y-42850000D01*
X-80275000Y-44640000D02*
X-80275000Y-44460000D01*
X-80275000Y-46150000D02*
X-80275000Y-45910000D01*
X-80275000Y-46150000D02*
X-76575000Y-46150000D01*
X-76575000Y-42850000D02*
X-80275000Y-42850000D01*
X-76575000Y-43190000D02*
X-76575000Y-42850000D01*
X-76575000Y-44640000D02*
X-76575000Y-44460000D01*
X-76575000Y-46150000D02*
X-76575000Y-45910000D01*
D13*
X-81335000Y-43150000D02*
G75*
G02*
X-81395000Y-43150000I-30000J0D01*
G01*
X-81395000Y-43150000D02*
G75*
G02*
X-81335000Y-43150000I30000J0D01*
G01*
D14*
G36*
X-80837822Y-43279975D02*
G01*
X-80837822Y-42772025D01*
X-80329898Y-42772025D01*
X-80837822Y-43279975D01*
G37*
%TO.C,D45*%
D11*
X-227137305Y5857121D02*
X-227833634Y1908042D01*
X-227137305Y5857121D02*
X-225167690Y5509825D01*
X-225167690Y5509825D02*
X-225864019Y1560746D01*
%TO.C,LED127*%
D12*
X-80275000Y-19590000D02*
X-80275000Y-19250000D01*
X-80275000Y-21040000D02*
X-80275000Y-20860000D01*
X-80275000Y-22550000D02*
X-80275000Y-22310000D01*
X-80275000Y-22550000D02*
X-76575000Y-22550000D01*
X-76575000Y-19250000D02*
X-80275000Y-19250000D01*
X-76575000Y-19590000D02*
X-76575000Y-19250000D01*
X-76575000Y-21040000D02*
X-76575000Y-20860000D01*
X-76575000Y-22550000D02*
X-76575000Y-22310000D01*
D13*
X-81335000Y-19550000D02*
G75*
G02*
X-81395000Y-19550000I-30000J0D01*
G01*
X-81395000Y-19550000D02*
G75*
G02*
X-81335000Y-19550000I30000J0D01*
G01*
D14*
G36*
X-80837822Y-19679975D02*
G01*
X-80837822Y-19172025D01*
X-80329898Y-19172025D01*
X-80837822Y-19679975D01*
G37*
%TO.C,C113*%
D11*
X-75432836Y-65240000D02*
X-75217164Y-65240000D01*
X-75432836Y-65960000D02*
X-75217164Y-65960000D01*
%TO.C,SW95*%
D16*
X25572881Y-61841841D02*
X25491266Y-61378981D01*
X25896846Y-60799753D02*
X30392320Y-60007080D01*
X26107717Y-64875049D02*
X26067778Y-64648543D01*
X27634169Y-64605894D02*
X26107717Y-64875049D01*
X34921746Y-63320898D02*
X29111381Y-64345422D01*
X35910250Y-57409437D02*
X35868574Y-57173084D01*
X36405147Y-60216140D02*
X36544066Y-61003986D01*
X25491266Y-61378981D02*
G75*
G02*
X25896846Y-60799753I492405J86823D01*
G01*
X32332273Y-57796629D02*
G75*
G02*
X30392320Y-60007080I-2347061J103342D01*
G01*
X36544066Y-61003986D02*
G75*
G02*
X34921745Y-63320894I-1969612J-347295D01*
G01*
%TO.C,LED109*%
D12*
X-127925000Y-47500000D02*
X-127925000Y-47740000D01*
X-127925000Y-49010000D02*
X-127925000Y-49190000D01*
X-127925000Y-50460000D02*
X-127925000Y-50800000D01*
X-127925000Y-50800000D02*
X-124225000Y-50800000D01*
X-124225000Y-47500000D02*
X-127925000Y-47500000D01*
X-124225000Y-47500000D02*
X-124225000Y-47740000D01*
X-124225000Y-49010000D02*
X-124225000Y-49190000D01*
X-124225000Y-50460000D02*
X-124225000Y-50800000D01*
D13*
X-123105000Y-50500000D02*
G75*
G02*
X-123165000Y-50500000I-30000J0D01*
G01*
X-123165000Y-50500000D02*
G75*
G02*
X-123105000Y-50500000I30000J0D01*
G01*
D14*
G36*
X-123662178Y-50877975D02*
G01*
X-124170102Y-50877975D01*
X-123662178Y-50370025D01*
X-123662178Y-50877975D01*
G37*
%TO.C,SW54*%
D16*
X15648888Y-5560078D02*
X15567273Y-5097218D01*
X15972853Y-4517990D02*
X20468327Y-3725317D01*
X16183724Y-8593286D02*
X16143785Y-8366780D01*
X17710176Y-8324131D02*
X16183724Y-8593286D01*
X24997753Y-7039135D02*
X19187388Y-8063659D01*
X25986257Y-1127674D02*
X25944581Y-891321D01*
X26481154Y-3934377D02*
X26620073Y-4722223D01*
X15567273Y-5097218D02*
G75*
G02*
X15972853Y-4517990I492405J86823D01*
G01*
X22408280Y-1514866D02*
G75*
G02*
X20468327Y-3725317I-2347061J103342D01*
G01*
X26620073Y-4722223D02*
G75*
G02*
X24997752Y-7039131I-1969612J-347295D01*
G01*
%TO.C,C143*%
D15*
X-62113204Y-25597517D02*
X-60734474Y-25354409D01*
%TO.C,D54*%
D11*
X14758845Y4467936D02*
X15455174Y518857D01*
X14758845Y4467936D02*
X16728460Y4815232D01*
X16728460Y4815232D02*
X17424789Y866153D01*
%TO.C,D37*%
X-43962675Y8380491D02*
X-43266346Y4431412D01*
X-43962675Y8380491D02*
X-41993060Y8727787D01*
X-41993060Y8727787D02*
X-41296731Y4778708D01*
%TO.C,D59*%
X-230445303Y-12903467D02*
X-231141632Y-16852546D01*
X-230445303Y-12903467D02*
X-228475688Y-13250763D01*
X-228475688Y-13250763D02*
X-229172017Y-17199842D01*
%TO.C,D66*%
X-19107036Y-22878263D02*
X-18410707Y-26827342D01*
X-19107036Y-22878263D02*
X-17137421Y-22530967D01*
X-17137421Y-22530967D02*
X-16441092Y-26480046D01*
%TO.C,SW46*%
D16*
X-210463080Y-4302901D02*
X-210423141Y-4076395D01*
X-209928243Y-1269693D02*
X-209846629Y-806834D01*
X-209267401Y-401254D02*
X-204771927Y-1193927D01*
X-208936628Y-4572056D02*
X-210463080Y-4302901D01*
X-201649050Y-5857052D02*
X-207459416Y-4832528D01*
X-199193220Y-3446887D02*
X-199332139Y-4234733D01*
X-198698323Y-640185D02*
X-198656647Y-403831D01*
X-209846629Y-806834D02*
G75*
G02*
X-209267401Y-401254I492405J-86825D01*
G01*
X-202192948Y219714D02*
G75*
G02*
X-204771927Y-1193927I-2170169J899849D01*
G01*
X-199332139Y-4234733D02*
G75*
G02*
X-201649050Y-5857051I-1969618J347301D01*
G01*
%TO.C,D72*%
D11*
X-254944963Y-42143365D02*
X-255641292Y-46092444D01*
X-254944963Y-42143365D02*
X-252975348Y-42490661D01*
X-252975348Y-42490661D02*
X-253671677Y-46439740D01*
%TO.C,C115*%
X-75432836Y-50740000D02*
X-75217164Y-50740000D01*
X-75432836Y-51460000D02*
X-75217164Y-51460000D01*
%TO.C,IC12*%
D15*
X-126858303Y15028184D02*
X-123706919Y14472510D01*
X-126007427Y19853742D02*
X-126858303Y15028184D01*
X-123706919Y14472510D02*
X-122856043Y19298068D01*
X-122856043Y19298068D02*
X-126007427Y19853742D01*
X-120986954Y19100503D02*
X-122488786Y19365316D01*
%TO.C,SW43*%
D16*
X-270217807Y-14075063D02*
X-270177868Y-13848557D01*
X-269682970Y-11041855D02*
X-269601356Y-10578996D01*
X-269022128Y-10173416D02*
X-264526654Y-10966089D01*
X-268691355Y-14344218D02*
X-270217807Y-14075063D01*
X-261403777Y-15629214D02*
X-267214143Y-14604690D01*
X-258947947Y-13219049D02*
X-259086866Y-14006895D01*
X-258453050Y-10412347D02*
X-258411374Y-10175993D01*
X-269601356Y-10578996D02*
G75*
G02*
X-269022128Y-10173416I492405J-86825D01*
G01*
X-261947675Y-9552448D02*
G75*
G02*
X-264526654Y-10966089I-2170169J899849D01*
G01*
X-259086866Y-14006895D02*
G75*
G02*
X-261403777Y-15629213I-1969618J347301D01*
G01*
%TO.C,C141*%
D15*
X-127325000Y-13950000D02*
X-127325000Y-15350000D01*
%TO.C,C107*%
D11*
X-128967164Y-47040000D02*
X-129182836Y-47040000D01*
X-128967164Y-47760000D02*
X-129182836Y-47760000D01*
%TO.C,SW65*%
D16*
X-36456637Y-39168698D02*
X-36538252Y-38705838D01*
X-36132672Y-38126610D02*
X-31637198Y-37333937D01*
X-35921801Y-42201906D02*
X-35961740Y-41975400D01*
X-34395349Y-41932751D02*
X-35921801Y-42201906D01*
X-27107772Y-40647755D02*
X-32918137Y-41672279D01*
X-26119268Y-34736294D02*
X-26160944Y-34499941D01*
X-25624371Y-37542997D02*
X-25485452Y-38330843D01*
X-36538252Y-38705838D02*
G75*
G02*
X-36132672Y-38126610I492405J86823D01*
G01*
X-29697245Y-35123486D02*
G75*
G02*
X-31637198Y-37333937I-2347061J103342D01*
G01*
X-25485452Y-38330843D02*
G75*
G02*
X-27107773Y-40647751I-1969612J-347295D01*
G01*
%TO.C,SW60*%
X-213771078Y-23063489D02*
X-213731139Y-22836983D01*
X-213236241Y-20030281D02*
X-213154627Y-19567422D01*
X-212575399Y-19161842D02*
X-208079925Y-19954515D01*
X-212244626Y-23332644D02*
X-213771078Y-23063489D01*
X-204957048Y-24617640D02*
X-210767414Y-23593116D01*
X-202501218Y-22207475D02*
X-202640137Y-22995321D01*
X-202006321Y-19400773D02*
X-201964645Y-19164419D01*
X-213154627Y-19567422D02*
G75*
G02*
X-212575399Y-19161842I492405J-86825D01*
G01*
X-205500946Y-18540874D02*
G75*
G02*
X-208079925Y-19954515I-2170169J899849D01*
G01*
X-202640137Y-22995321D02*
G75*
G02*
X-204957048Y-24617639I-1969618J347301D01*
G01*
%TO.C,D46*%
D11*
X-207334829Y8457970D02*
X-208031158Y4508891D01*
X-207334829Y8457970D02*
X-205365214Y8110674D01*
X-205365214Y8110674D02*
X-206061543Y4161595D01*
%TO.C,D110*%
X-97075000Y-38540000D02*
X-97075000Y-42550000D01*
X-97075000Y-38540000D02*
X-95075000Y-38540000D01*
X-95075000Y-38540000D02*
X-95075000Y-42550000D01*
%TO.C,SW107*%
D16*
X-97589824Y-67270220D02*
X-97589824Y-66800220D01*
X-97589824Y-70350220D02*
X-97589824Y-70120220D01*
X-97089824Y-66300220D02*
X-92525000Y-66300220D01*
X-96039824Y-70350220D02*
X-97589824Y-70350220D01*
X-88639824Y-70350220D02*
X-94539824Y-70350220D01*
X-86639824Y-64700220D02*
X-86639824Y-64460220D01*
X-86639824Y-67550220D02*
X-86639824Y-68350220D01*
X-97589824Y-66800220D02*
G75*
G02*
X-97089824Y-66300220I500001J-1D01*
G01*
X-90230678Y-64460220D02*
G75*
G02*
X-92525000Y-66300220I-2293456J509332D01*
G01*
X-86639824Y-68350220D02*
G75*
G02*
X-88639824Y-70350220I-2000004J4D01*
G01*
%TO.C,C110*%
D11*
X-50383347Y-24788356D02*
X-50170952Y-24750905D01*
X-50258320Y-25497417D02*
X-50045925Y-25459966D01*
%TO.C,SW104*%
D16*
X-116639824Y-67270220D02*
X-116639824Y-66800220D01*
X-116639824Y-70350220D02*
X-116639824Y-70120220D01*
X-116139824Y-66300220D02*
X-111575000Y-66300220D01*
X-115089824Y-70350220D02*
X-116639824Y-70350220D01*
X-107689824Y-70350220D02*
X-113589824Y-70350220D01*
X-105689824Y-64700220D02*
X-105689824Y-64460220D01*
X-105689824Y-67550220D02*
X-105689824Y-68350220D01*
X-116639824Y-66800220D02*
G75*
G02*
X-116139824Y-66300220I500001J-1D01*
G01*
X-109280678Y-64460220D02*
G75*
G02*
X-111575000Y-66300220I-2293456J509332D01*
G01*
X-105689824Y-68350220D02*
G75*
G02*
X-107689824Y-70350220I-2000004J4D01*
G01*
%TO.C,D105*%
D11*
X-116075000Y-76540000D02*
X-116075000Y-80550000D01*
X-116075000Y-76540000D02*
X-114075000Y-76540000D01*
X-114075000Y-76540000D02*
X-114075000Y-80550000D01*
%TO.C,D48*%
X-171723783Y-8990911D02*
X-172420112Y-12939990D01*
X-171723783Y-8990911D02*
X-169754168Y-9338207D01*
X-169754168Y-9338207D02*
X-170450497Y-13287286D01*
%TO.C,SW111*%
D16*
X-55217224Y-42476695D02*
X-55298839Y-42013835D01*
X-54893259Y-41434607D02*
X-50397785Y-40641934D01*
X-54682388Y-45509903D02*
X-54722327Y-45283397D01*
X-53155936Y-45240748D02*
X-54682388Y-45509903D01*
X-45868359Y-43955752D02*
X-51678724Y-44980276D01*
X-44879855Y-38044291D02*
X-44921531Y-37807938D01*
X-44384958Y-40850994D02*
X-44246039Y-41638840D01*
X-55298839Y-42013835D02*
G75*
G02*
X-54893259Y-41434607I492405J86823D01*
G01*
X-48457832Y-38431483D02*
G75*
G02*
X-50397785Y-40641934I-2347061J103342D01*
G01*
X-44246039Y-41638840D02*
G75*
G02*
X-45868360Y-43955748I-1969612J-347295D01*
G01*
%TO.C,SW41*%
X33532552Y2721199D02*
X33450937Y3184059D01*
X33856517Y3763287D02*
X38351991Y4555960D01*
X34067388Y-312009D02*
X34027449Y-85503D01*
X35593840Y-42854D02*
X34067388Y-312009D01*
X42881417Y1242142D02*
X37071052Y217618D01*
X43869921Y7153603D02*
X43828245Y7389956D01*
X44364818Y4346900D02*
X44503737Y3559054D01*
X33450937Y3184059D02*
G75*
G02*
X33856517Y3763287I492405J86823D01*
G01*
X40291944Y6766411D02*
G75*
G02*
X38351991Y4555960I-2347061J103342D01*
G01*
X44503737Y3559054D02*
G75*
G02*
X42881416Y1242146I-1969612J-347295D01*
G01*
%TO.C,SW109*%
X-97589824Y-29170220D02*
X-97589824Y-28700220D01*
X-97589824Y-32250220D02*
X-97589824Y-32020220D01*
X-97089824Y-28200220D02*
X-92525000Y-28200220D01*
X-96039824Y-32250220D02*
X-97589824Y-32250220D01*
X-88639824Y-32250220D02*
X-94539824Y-32250220D01*
X-86639824Y-26600220D02*
X-86639824Y-26360220D01*
X-86639824Y-29450220D02*
X-86639824Y-30250220D01*
X-97589824Y-28700220D02*
G75*
G02*
X-97089824Y-28200220I500001J-1D01*
G01*
X-90230678Y-26360220D02*
G75*
G02*
X-92525000Y-28200220I-2293456J509332D01*
G01*
X-86639824Y-30250220D02*
G75*
G02*
X-88639824Y-32250220I-2000004J4D01*
G01*
%TO.C,SW28*%
X48985142Y24789785D02*
X48903527Y25252645D01*
X49309107Y25831873D02*
X53804581Y26624546D01*
X49519978Y21756577D02*
X49480039Y21983083D01*
X51046430Y22025732D02*
X49519978Y21756577D01*
X58334007Y23310728D02*
X52523642Y22286204D01*
X59322511Y29222189D02*
X59280835Y29458542D01*
X59817408Y26415486D02*
X59956327Y25627640D01*
X48903527Y25252645D02*
G75*
G02*
X49309107Y25831873I492405J86823D01*
G01*
X55744534Y28834997D02*
G75*
G02*
X53804581Y26624546I-2347061J103342D01*
G01*
X59956327Y25627640D02*
G75*
G02*
X58334006Y23310732I-1969612J-347295D01*
G01*
%TO.C,SW38*%
X-24832989Y4614899D02*
X-24914604Y5077759D01*
X-24509024Y5656987D02*
X-20013550Y6449660D01*
X-24298153Y1581691D02*
X-24338092Y1808197D01*
X-22771701Y1850846D02*
X-24298153Y1581691D01*
X-15484124Y3135842D02*
X-21294489Y2111318D01*
X-14495620Y9047303D02*
X-14537296Y9283656D01*
X-14000723Y6240600D02*
X-13861804Y5452754D01*
X-24914604Y5077759D02*
G75*
G02*
X-24509024Y5656987I492405J86823D01*
G01*
X-18073597Y8660111D02*
G75*
G02*
X-20013550Y6449660I-2347061J103342D01*
G01*
X-13861804Y5452754D02*
G75*
G02*
X-15484125Y3135846I-1969612J-347295D01*
G01*
%TO.C,C124*%
D11*
X-128967164Y-23290000D02*
X-129182836Y-23290000D01*
X-128967164Y-24010000D02*
X-129182836Y-24010000D01*
%TO.C,SW42*%
D16*
X52293140Y6029197D02*
X52211525Y6492057D01*
X52617105Y7071285D02*
X57112579Y7863958D01*
X52827976Y2995989D02*
X52788037Y3222495D01*
X54354428Y3265144D02*
X52827976Y2995989D01*
X61642005Y4550140D02*
X55831640Y3525616D01*
X62630509Y10461601D02*
X62588833Y10697954D01*
X63125406Y7654898D02*
X63264325Y6867052D01*
X52211525Y6492057D02*
G75*
G02*
X52617105Y7071285I492405J86823D01*
G01*
X59052532Y10074409D02*
G75*
G02*
X57112579Y7863958I-2347061J103342D01*
G01*
X63264325Y6867052D02*
G75*
G02*
X61642004Y4550144I-1969612J-347295D01*
G01*
%TO.C,SW45*%
X-230265557Y-6903750D02*
X-230225618Y-6677244D01*
X-229730720Y-3870542D02*
X-229649106Y-3407683D01*
X-229069878Y-3002103D02*
X-224574404Y-3794776D01*
X-228739105Y-7172905D02*
X-230265557Y-6903750D01*
X-221451527Y-8457901D02*
X-227261893Y-7433377D01*
X-218995697Y-6047736D02*
X-219134616Y-6835582D01*
X-218500800Y-3241034D02*
X-218459124Y-3004680D01*
X-229649106Y-3407683D02*
G75*
G02*
X-229069878Y-3002103I492405J-86825D01*
G01*
X-221995425Y-2381135D02*
G75*
G02*
X-224574404Y-3794776I-2170169J899849D01*
G01*
X-219134616Y-6835582D02*
G75*
G02*
X-221451527Y-8457900I-1969618J347301D01*
G01*
%TO.C,SW23*%
X-46380630Y17113066D02*
X-46462245Y17575926D01*
X-46056665Y18155154D02*
X-41561191Y18947827D01*
X-45845794Y14079858D02*
X-45885733Y14306364D01*
X-44319342Y14349013D02*
X-45845794Y14079858D01*
X-37031765Y15634009D02*
X-42842130Y14609485D01*
X-36043261Y21545470D02*
X-36084937Y21781823D01*
X-35548364Y18738767D02*
X-35409445Y17950921D01*
X-46462245Y17575926D02*
G75*
G02*
X-46056665Y18155154I492405J86823D01*
G01*
X-39621238Y21158278D02*
G75*
G02*
X-41561191Y18947827I-2347061J103342D01*
G01*
X-35409445Y17950921D02*
G75*
G02*
X-37031766Y15634013I-1969612J-347295D01*
G01*
%TO.C,SW59*%
X-233573555Y-25664337D02*
X-233533616Y-25437831D01*
X-233038718Y-22631129D02*
X-232957104Y-22168270D01*
X-232377876Y-21762690D02*
X-227882402Y-22555363D01*
X-232047103Y-25933492D02*
X-233573555Y-25664337D01*
X-224759525Y-27218488D02*
X-230569891Y-26193964D01*
X-222303695Y-24808323D02*
X-222442614Y-25596169D01*
X-221808798Y-22001621D02*
X-221767122Y-21765267D01*
X-232957104Y-22168270D02*
G75*
G02*
X-232377876Y-21762690I492405J-86825D01*
G01*
X-225303423Y-21141722D02*
G75*
G02*
X-227882402Y-22555363I-2170169J899849D01*
G01*
X-222442614Y-25596169D02*
G75*
G02*
X-224759525Y-27218487I-1969618J347301D01*
G01*
%TO.C,LED111*%
D12*
X-127925000Y-62000000D02*
X-127925000Y-62240000D01*
X-127925000Y-63510000D02*
X-127925000Y-63690000D01*
X-127925000Y-64960000D02*
X-127925000Y-65300000D01*
X-127925000Y-65300000D02*
X-124225000Y-65300000D01*
X-124225000Y-62000000D02*
X-127925000Y-62000000D01*
X-124225000Y-62000000D02*
X-124225000Y-62240000D01*
X-124225000Y-63510000D02*
X-124225000Y-63690000D01*
X-124225000Y-64960000D02*
X-124225000Y-65300000D01*
D13*
X-123105000Y-65000000D02*
G75*
G02*
X-123165000Y-65000000I-30000J0D01*
G01*
X-123165000Y-65000000D02*
G75*
G02*
X-123105000Y-65000000I30000J0D01*
G01*
D14*
G36*
X-123662178Y-65377975D02*
G01*
X-124170102Y-65377975D01*
X-123662178Y-64870025D01*
X-123662178Y-65377975D01*
G37*
%TO.C,IC101*%
D15*
X-143624475Y-19083635D02*
X-140768532Y-19587215D01*
X-143520286Y-18492751D02*
X-143624475Y-19083635D01*
X-140889966Y-21139714D02*
X-140681588Y-19957945D01*
X-140768532Y-19587215D02*
X-140664343Y-18996331D01*
X-140664343Y-18996331D02*
X-143520286Y-18492751D01*
%TO.C,C131*%
D11*
X-70706449Y16457020D02*
X-70668998Y16244625D01*
X-69997388Y16582047D02*
X-69959937Y16369652D01*
%TO.C,D69*%
X39258505Y-24771963D02*
X39954834Y-28721042D01*
X39258505Y-24771963D02*
X41228120Y-24424667D01*
X41228120Y-24424667D02*
X41924449Y-28373746D01*
%TO.C,D44*%
X-248328968Y-4622190D02*
X-249025297Y-8571269D01*
X-248328968Y-4622190D02*
X-246359353Y-4969486D01*
X-246359353Y-4969486D02*
X-247055682Y-8918565D01*
%TO.C,LED110*%
D12*
X-127925000Y-57450000D02*
X-127925000Y-57690000D01*
X-127925000Y-58960000D02*
X-127925000Y-59140000D01*
X-127925000Y-60410000D02*
X-127925000Y-60750000D01*
X-127925000Y-60750000D02*
X-124225000Y-60750000D01*
X-124225000Y-57450000D02*
X-127925000Y-57450000D01*
X-124225000Y-57450000D02*
X-124225000Y-57690000D01*
X-124225000Y-58960000D02*
X-124225000Y-59140000D01*
X-124225000Y-60410000D02*
X-124225000Y-60750000D01*
D13*
X-123105000Y-60450000D02*
G75*
G02*
X-123165000Y-60450000I-30000J0D01*
G01*
X-123165000Y-60450000D02*
G75*
G02*
X-123105000Y-60450000I30000J0D01*
G01*
D14*
G36*
X-123662178Y-60827975D02*
G01*
X-124170102Y-60827975D01*
X-123662178Y-60320025D01*
X-123662178Y-60827975D01*
G37*
%TO.C,LED130*%
D12*
X-57219788Y-13757914D02*
X-57278828Y-13423079D01*
X-56967998Y-15185885D02*
X-56999255Y-15008619D01*
X-56705789Y-16672946D02*
X-56747465Y-16436591D01*
X-56705789Y-16672946D02*
X-53062001Y-16030446D01*
X-53635040Y-12780581D02*
X-57278828Y-13423079D01*
X-53575999Y-13115415D02*
X-53635040Y-12780581D01*
X-53324209Y-14543387D02*
X-53355466Y-14366121D01*
X-53062001Y-16030446D02*
X-53103676Y-15794092D01*
D13*
X-58270174Y-13907798D02*
G75*
G02*
X-58330174Y-13907798I-30000J0D01*
G01*
X-58330174Y-13907798D02*
G75*
G02*
X-58270174Y-13907798I30000J0D01*
G01*
D14*
G36*
X-57758435Y-13944255D02*
G01*
X-57846640Y-13444022D01*
X-57346432Y-13355822D01*
X-57758435Y-13944255D01*
G37*
%TO.C,C103*%
D11*
X-140119156Y-21029729D02*
X-140081705Y-20817334D01*
X-139410095Y-21154756D02*
X-139372644Y-20942361D01*
%TO.C,LED117*%
D12*
X-80275000Y-81290000D02*
X-80275000Y-80950000D01*
X-80275000Y-82740000D02*
X-80275000Y-82560000D01*
X-80275000Y-84250000D02*
X-80275000Y-84010000D01*
X-80275000Y-84250000D02*
X-76575000Y-84250000D01*
X-76575000Y-80950000D02*
X-80275000Y-80950000D01*
X-76575000Y-81290000D02*
X-76575000Y-80950000D01*
X-76575000Y-82740000D02*
X-76575000Y-82560000D01*
X-76575000Y-84250000D02*
X-76575000Y-84010000D01*
D13*
X-81335000Y-81250000D02*
G75*
G02*
X-81395000Y-81250000I-30000J0D01*
G01*
X-81395000Y-81250000D02*
G75*
G02*
X-81335000Y-81250000I30000J0D01*
G01*
D14*
G36*
X-80837822Y-81379975D02*
G01*
X-80837822Y-80872025D01*
X-80329898Y-80872025D01*
X-80837822Y-81379975D01*
G37*
%TO.C,SW27*%
D16*
X30224554Y21481787D02*
X30142939Y21944647D01*
X30548519Y22523875D02*
X35043993Y23316548D01*
X30759390Y18448579D02*
X30719451Y18675085D01*
X32285842Y18717734D02*
X30759390Y18448579D01*
X39573419Y20002730D02*
X33763054Y18978206D01*
X40561923Y25914191D02*
X40520247Y26150544D01*
X41056820Y23107488D02*
X41195739Y22319642D01*
X30142939Y21944647D02*
G75*
G02*
X30548519Y22523875I492405J86823D01*
G01*
X36983946Y25526999D02*
G75*
G02*
X35043993Y23316548I-2347061J103342D01*
G01*
X41195739Y22319642D02*
G75*
G02*
X39573418Y20002734I-1969612J-347295D01*
G01*
%TO.C,R24*%
D11*
X-129778188Y19561590D02*
X-130245495Y19643988D01*
X-129596725Y20590714D02*
X-130064032Y20673112D01*
%TO.C,SW40*%
D16*
X12340890Y13200510D02*
X12259275Y13663370D01*
X12664855Y14242598D02*
X17160329Y15035271D01*
X12875726Y10167302D02*
X12835787Y10393808D01*
X14402178Y10436457D02*
X12875726Y10167302D01*
X21689755Y11721453D02*
X15879390Y10696929D01*
X22678259Y17632914D02*
X22636583Y17869267D01*
X23173156Y14826211D02*
X23312075Y14038365D01*
X12259275Y13663370D02*
G75*
G02*
X12664855Y14242598I492405J86823D01*
G01*
X19100282Y17245722D02*
G75*
G02*
X17160329Y15035271I-2347061J103342D01*
G01*
X23312075Y14038365D02*
G75*
G02*
X21689754Y11721457I-1969612J-347295D01*
G01*
%TO.C,D41*%
D11*
X32642508Y12749213D02*
X33338837Y8800134D01*
X32642508Y12749213D02*
X34612123Y13096509D01*
X34612123Y13096509D02*
X35308452Y9147430D01*
%TO.C,D67*%
X-1735634Y-11691803D02*
X-1039305Y-15640882D01*
X-1735634Y-11691803D02*
X233981Y-11344507D01*
X233981Y-11344507D02*
X930310Y-15293586D01*
%TO.C,C138*%
X-128967164Y-75840000D02*
X-129182836Y-75840000D01*
X-128967164Y-76560000D02*
X-129182836Y-76560000D01*
%TO.C,SW72*%
D16*
X-258073215Y-54904236D02*
X-258033276Y-54677730D01*
X-257538378Y-51871028D02*
X-257456764Y-51408169D01*
X-256877536Y-51002589D02*
X-252382062Y-51795262D01*
X-256546763Y-55173391D02*
X-258073215Y-54904236D01*
X-249259185Y-56458387D02*
X-255069551Y-55433863D01*
X-246803355Y-54048222D02*
X-246942274Y-54836068D01*
X-246308458Y-51241520D02*
X-246266782Y-51005166D01*
X-257456764Y-51408169D02*
G75*
G02*
X-256877536Y-51002589I492405J-86825D01*
G01*
X-249803083Y-50381621D02*
G75*
G02*
X-252382062Y-51795262I-2170169J899849D01*
G01*
X-246942274Y-54836068D02*
G75*
G02*
X-249259185Y-56458386I-1969618J347301D01*
G01*
%TO.C,SW112*%
X-97589824Y-86320220D02*
X-97589824Y-85850220D01*
X-97589824Y-89400220D02*
X-97589824Y-89170220D01*
X-97089824Y-85350220D02*
X-92525000Y-85350220D01*
X-96039824Y-89400220D02*
X-97589824Y-89400220D01*
X-88639824Y-89400220D02*
X-94539824Y-89400220D01*
X-86639824Y-83750220D02*
X-86639824Y-83510220D01*
X-86639824Y-86600220D02*
X-86639824Y-87400220D01*
X-97589824Y-85850220D02*
G75*
G02*
X-97089824Y-85350220I500001J-1D01*
G01*
X-90230678Y-83510220D02*
G75*
G02*
X-92525000Y-85350220I-2293456J509332D01*
G01*
X-86639824Y-87400220D02*
G75*
G02*
X-88639824Y-89400220I-2000004J4D01*
G01*
%TO.C,SW75*%
X-199707673Y-53010536D02*
X-199667734Y-52784030D01*
X-199172836Y-49977328D02*
X-199091222Y-49514469D01*
X-198511994Y-49108889D02*
X-194016520Y-49901562D01*
X-198181221Y-53279691D02*
X-199707673Y-53010536D01*
X-190893643Y-54564687D02*
X-196704009Y-53540163D01*
X-188437813Y-52154522D02*
X-188576732Y-52942368D01*
X-187942916Y-49347820D02*
X-187901240Y-49111466D01*
X-199091222Y-49514469D02*
G75*
G02*
X-198511994Y-49108889I492405J-86825D01*
G01*
X-191437541Y-48487921D02*
G75*
G02*
X-194016520Y-49901562I-2170169J899849D01*
G01*
X-188576732Y-52942368D02*
G75*
G02*
X-190893643Y-54564686I-1969618J347301D01*
G01*
%TO.C,C1*%
D11*
X-135193757Y12950305D02*
X-135440773Y11549412D01*
X-133401407Y12634266D02*
X-133648423Y11233373D01*
%TO.C,SW82*%
D16*
X22264883Y-43081253D02*
X22183268Y-42618393D01*
X22588848Y-42039165D02*
X27084322Y-41246492D01*
X22799719Y-46114461D02*
X22759780Y-45887955D01*
X24326171Y-45845306D02*
X22799719Y-46114461D01*
X31613748Y-44560310D02*
X25803383Y-45584834D01*
X32602252Y-38648849D02*
X32560576Y-38412496D01*
X33097149Y-41455552D02*
X33236068Y-42243398D01*
X22183268Y-42618393D02*
G75*
G02*
X22588848Y-42039165I492405J86823D01*
G01*
X29024275Y-39036041D02*
G75*
G02*
X27084322Y-41246492I-2347061J103342D01*
G01*
X33236068Y-42243398D02*
G75*
G02*
X31613747Y-44560306I-1969612J-347295D01*
G01*
%TO.C,D28*%
D11*
X48095098Y34817798D02*
X48791427Y30868719D01*
X48095098Y34817798D02*
X50064713Y35165094D01*
X50064713Y35165094D02*
X50761042Y31216015D01*
%TO.C,SW15*%
D16*
X-263601811Y23446113D02*
X-263561872Y23672619D01*
X-263066974Y26479321D02*
X-262985360Y26942180D01*
X-262406132Y27347760D02*
X-257910658Y26555087D01*
X-262075359Y23176958D02*
X-263601811Y23446113D01*
X-254787781Y21891962D02*
X-260598147Y22916486D01*
X-252331951Y24302127D02*
X-252470870Y23514281D01*
X-251837054Y27108829D02*
X-251795378Y27345183D01*
X-262985360Y26942180D02*
G75*
G02*
X-262406132Y27347760I492405J-86825D01*
G01*
X-255331679Y27968728D02*
G75*
G02*
X-257910658Y26555087I-2170169J899849D01*
G01*
X-252470870Y23514281D02*
G75*
G02*
X-254787781Y21891963I-1969618J347301D01*
G01*
%TO.C,R107*%
D11*
X-65760157Y21446153D02*
X-65677759Y20978846D01*
X-64731033Y21627616D02*
X-64648635Y21160309D01*
%TO.C,D70*%
X58019091Y-21463965D02*
X58715420Y-25413044D01*
X58019091Y-21463965D02*
X59988706Y-21116669D01*
X59988706Y-21116669D02*
X60685035Y-25065748D01*
%TO.C,SW32*%
D16*
X-207155082Y14457687D02*
X-207115143Y14684193D01*
X-206620245Y17490895D02*
X-206538631Y17953754D01*
X-205959403Y18359334D02*
X-201463929Y17566661D01*
X-205628630Y14188532D02*
X-207155082Y14457687D01*
X-198341052Y12903536D02*
X-204151418Y13928060D01*
X-195885222Y15313701D02*
X-196024141Y14525855D01*
X-195390325Y18120403D02*
X-195348649Y18356757D01*
X-206538631Y17953754D02*
G75*
G02*
X-205959403Y18359334I492405J-86825D01*
G01*
X-198884950Y18980302D02*
G75*
G02*
X-201463929Y17566661I-2170169J899849D01*
G01*
X-196024141Y14525855D02*
G75*
G02*
X-198341052Y12903537I-1969618J347301D01*
G01*
%TO.C,LED122*%
D12*
X-80275000Y-47740000D02*
X-80275000Y-47400000D01*
X-80275000Y-49190000D02*
X-80275000Y-49010000D01*
X-80275000Y-50700000D02*
X-80275000Y-50460000D01*
X-80275000Y-50700000D02*
X-76575000Y-50700000D01*
X-76575000Y-47400000D02*
X-80275000Y-47400000D01*
X-76575000Y-47740000D02*
X-76575000Y-47400000D01*
X-76575000Y-49190000D02*
X-76575000Y-49010000D01*
X-76575000Y-50700000D02*
X-76575000Y-50460000D01*
D13*
X-81335000Y-47700000D02*
G75*
G02*
X-81395000Y-47700000I-30000J0D01*
G01*
X-81395000Y-47700000D02*
G75*
G02*
X-81335000Y-47700000I30000J0D01*
G01*
D14*
G36*
X-80837822Y-47829975D02*
G01*
X-80837822Y-47322025D01*
X-80329898Y-47322025D01*
X-80837822Y-47829975D01*
G37*
%TO.C,LED116*%
D12*
X-80275000Y-85840000D02*
X-80275000Y-85500000D01*
X-80275000Y-87290000D02*
X-80275000Y-87110000D01*
X-80275000Y-88800000D02*
X-80275000Y-88560000D01*
X-80275000Y-88800000D02*
X-76575000Y-88800000D01*
X-76575000Y-85500000D02*
X-80275000Y-85500000D01*
X-76575000Y-85840000D02*
X-76575000Y-85500000D01*
X-76575000Y-87290000D02*
X-76575000Y-87110000D01*
X-76575000Y-88800000D02*
X-76575000Y-88560000D01*
D13*
X-81335000Y-85800000D02*
G75*
G02*
X-81395000Y-85800000I-30000J0D01*
G01*
X-81395000Y-85800000D02*
G75*
G02*
X-81335000Y-85800000I30000J0D01*
G01*
D14*
G36*
X-80837822Y-85929975D02*
G01*
X-80837822Y-85422025D01*
X-80329898Y-85422025D01*
X-80837822Y-85929975D01*
G37*
%TO.C,SW68*%
D16*
X18956886Y-24320665D02*
X18875271Y-23857805D01*
X19280851Y-23278577D02*
X23776325Y-22485904D01*
X19491722Y-27353873D02*
X19451783Y-27127367D01*
X21018174Y-27084718D02*
X19491722Y-27353873D01*
X28305751Y-25799722D02*
X22495386Y-26824246D01*
X29294255Y-19888261D02*
X29252579Y-19651908D01*
X29789152Y-22694964D02*
X29928071Y-23482810D01*
X18875271Y-23857805D02*
G75*
G02*
X19280851Y-23278577I492405J86823D01*
G01*
X25716278Y-20275453D02*
G75*
G02*
X23776325Y-22485904I-2347061J103342D01*
G01*
X29928071Y-23482810D02*
G75*
G02*
X28305750Y-25799718I-1969612J-347295D01*
G01*
%TO.C,D30*%
D11*
X-245020970Y14138398D02*
X-245717299Y10189319D01*
X-245020970Y14138398D02*
X-243051355Y13791102D01*
X-243051355Y13791102D02*
X-243747684Y9842023D01*
%TO.C,C114*%
X-75432836Y-60740000D02*
X-75217164Y-60740000D01*
X-75432836Y-61460000D02*
X-75217164Y-61460000D01*
%TO.C,Q1*%
X-88760000Y33760000D02*
X-88760000Y32760000D01*
X-88760000Y31640000D02*
X-88760000Y30640000D01*
X-88760000Y30640000D02*
X-87240000Y30640000D01*
X-87240000Y33760000D02*
X-88760000Y33760000D01*
X-87240000Y33710000D02*
X-87240000Y33760000D01*
X-87240000Y31810000D02*
X-87240000Y32590000D01*
X-87240000Y30640000D02*
X-87240000Y30690000D01*
X-86700000Y32580000D02*
X-86940000Y32250000D01*
X-86460000Y32250000D01*
X-86700000Y32580000D01*
G36*
X-86460000Y32250000D02*
G01*
X-86940000Y32250000D01*
X-86700000Y32580000D01*
X-86460000Y32250000D01*
G37*
%TO.C,C102*%
D15*
X-141324861Y-14615072D02*
X-142703591Y-14371964D01*
%TO.C,C122*%
D11*
X-75432836Y-79740000D02*
X-75217164Y-79740000D01*
X-75432836Y-80460000D02*
X-75217164Y-80460000D01*
%TO.C,C134*%
X-128967164Y-84940000D02*
X-129182836Y-84940000D01*
X-128967164Y-85660000D02*
X-129182836Y-85660000D01*
%TO.C,C106*%
X-128967164Y-42290000D02*
X-129182836Y-42290000D01*
X-128967164Y-43010000D02*
X-129182836Y-43010000D01*
%TO.C,SW93*%
D16*
X-11600998Y-70427452D02*
X-11682613Y-69964592D01*
X-11277033Y-69385364D02*
X-6781559Y-68592691D01*
X-11066162Y-73460660D02*
X-11106101Y-73234154D01*
X-9539710Y-73191505D02*
X-11066162Y-73460660D01*
X-2252133Y-71906509D02*
X-8062498Y-72931033D01*
X-1263629Y-65995048D02*
X-1305305Y-65758695D01*
X-768732Y-68801751D02*
X-629813Y-69589597D01*
X-11682613Y-69964592D02*
G75*
G02*
X-11277033Y-69385364I492405J86823D01*
G01*
X-4841606Y-66382240D02*
G75*
G02*
X-6781559Y-68592691I-2347061J103342D01*
G01*
X-629813Y-69589597D02*
G75*
G02*
X-2252134Y-71906505I-1969612J-347295D01*
G01*
%TO.C,SW34*%
X-171544037Y-2991194D02*
X-171504098Y-2764688D01*
X-171009200Y42014D02*
X-170927586Y504873D01*
X-170348358Y910453D02*
X-165852884Y117780D01*
X-170017585Y-3260349D02*
X-171544037Y-2991194D01*
X-162730007Y-4545345D02*
X-168540373Y-3520821D01*
X-160274177Y-2135180D02*
X-160413096Y-2923026D01*
X-159779280Y671522D02*
X-159737604Y907876D01*
X-170927586Y504873D02*
G75*
G02*
X-170348358Y910453I492405J-86825D01*
G01*
X-163273905Y1531421D02*
G75*
G02*
X-165852884Y117780I-2170169J899849D01*
G01*
X-160413096Y-2923026D02*
G75*
G02*
X-162730007Y-4545344I-1969618J347301D01*
G01*
%TO.C,D68*%
D11*
X18066843Y-14292652D02*
X18763172Y-18241731D01*
X18066843Y-14292652D02*
X20036458Y-13945356D01*
X20036458Y-13945356D02*
X20732787Y-17894435D01*
%TO.C,SW103*%
D16*
X-116639824Y-86320220D02*
X-116639824Y-85850220D01*
X-116639824Y-89400220D02*
X-116639824Y-89170220D01*
X-116139824Y-85350220D02*
X-111575000Y-85350220D01*
X-115089824Y-89400220D02*
X-116639824Y-89400220D01*
X-107689824Y-89400220D02*
X-113589824Y-89400220D01*
X-105689824Y-83750220D02*
X-105689824Y-83510220D01*
X-105689824Y-86600220D02*
X-105689824Y-87400220D01*
X-116639824Y-85850220D02*
G75*
G02*
X-116139824Y-85350220I500001J-1D01*
G01*
X-109280678Y-83510220D02*
G75*
G02*
X-111575000Y-85350220I-2293456J509332D01*
G01*
X-105689824Y-87400220D02*
G75*
G02*
X-107689824Y-89400220I-2000004J4D01*
G01*
%TO.C,D34*%
D11*
X-168415785Y9769676D02*
X-169112114Y5820597D01*
X-168415785Y9769676D02*
X-166446170Y9422380D01*
X-166446170Y9422380D02*
X-167142499Y5473301D01*
%TO.C,D65*%
X-37346680Y-29140684D02*
X-36650351Y-33089763D01*
X-37346680Y-29140684D02*
X-35377065Y-28793388D01*
X-35377065Y-28793388D02*
X-34680736Y-32742467D01*
%TO.C,D88*%
X-199887420Y-59010253D02*
X-200583749Y-62959332D01*
X-199887420Y-59010253D02*
X-197917805Y-59357549D01*
X-197917805Y-59357549D02*
X-198614134Y-63306628D01*
%TO.C,D57*%
X-270397553Y-20074780D02*
X-271093882Y-24023859D01*
X-270397553Y-20074780D02*
X-268427938Y-20422076D01*
X-268427938Y-20422076D02*
X-269124267Y-24371155D01*
%TO.C,SW88*%
D16*
X-203015671Y-71771124D02*
X-202975732Y-71544618D01*
X-202480834Y-68737916D02*
X-202399220Y-68275057D01*
X-201819992Y-67869477D02*
X-197324518Y-68662150D01*
X-201489219Y-72040279D02*
X-203015671Y-71771124D01*
X-194201641Y-73325275D02*
X-200012007Y-72300751D01*
X-191745811Y-70915110D02*
X-191884730Y-71702956D01*
X-191250914Y-68108408D02*
X-191209238Y-67872054D01*
X-202399220Y-68275057D02*
G75*
G02*
X-201819992Y-67869477I492405J-86825D01*
G01*
X-194745539Y-67248509D02*
G75*
G02*
X-197324518Y-68662150I-2170169J899849D01*
G01*
X-191884730Y-71702956D02*
G75*
G02*
X-194201641Y-73325274I-1969618J347301D01*
G01*
%TO.C,D16*%
D11*
X-241712972Y32898985D02*
X-242409301Y28949906D01*
X-241712972Y32898985D02*
X-239743357Y32551689D01*
X-239743357Y32551689D02*
X-240439686Y28602610D01*
%TO.C,C129*%
X-81435805Y13331289D02*
X-81473256Y13543684D01*
X-80726744Y13456316D02*
X-80764195Y13668711D01*
%TO.C,SW67*%
D16*
X-845591Y-21719817D02*
X-927206Y-21256957D01*
X-521626Y-20677729D02*
X3973848Y-19885056D01*
X-310755Y-24753025D02*
X-350694Y-24526519D01*
X1215697Y-24483870D02*
X-310755Y-24753025D01*
X8503274Y-23198874D02*
X2692909Y-24223398D01*
X9491778Y-17287413D02*
X9450102Y-17051060D01*
X9986675Y-20094116D02*
X10125594Y-20881962D01*
X-927206Y-21256957D02*
G75*
G02*
X-521626Y-20677729I492405J86823D01*
G01*
X5913801Y-17674605D02*
G75*
G02*
X3973848Y-19885056I-2347061J103342D01*
G01*
X10125594Y-20881962D02*
G75*
G02*
X8503273Y-23198870I-1969612J-347295D01*
G01*
%TO.C,C135*%
D11*
X-128967164Y-56740000D02*
X-129182836Y-56740000D01*
X-128967164Y-57460000D02*
X-129182836Y-57460000D01*
%TO.C,D31*%
X-223829308Y24617709D02*
X-224525637Y20668630D01*
X-223829308Y24617709D02*
X-221859693Y24270413D01*
X-221859693Y24270413D02*
X-222556022Y20321334D01*
%TO.C,C119*%
X-75432836Y-69740000D02*
X-75217164Y-69740000D01*
X-75432836Y-70460000D02*
X-75217164Y-70460000D01*
%TO.C,SW39*%
D16*
X-7461587Y15801359D02*
X-7543202Y16264219D01*
X-7137622Y16843447D02*
X-2642148Y17636120D01*
X-6926751Y12768151D02*
X-6966690Y12994657D01*
X-5400299Y13037306D02*
X-6926751Y12768151D01*
X1887278Y14322302D02*
X-3923087Y13297778D01*
X2875782Y20233763D02*
X2834106Y20470116D01*
X3370679Y17427060D02*
X3509598Y16639214D01*
X-7543202Y16264219D02*
G75*
G02*
X-7137622Y16843447I492405J86823D01*
G01*
X-702195Y19846571D02*
G75*
G02*
X-2642148Y17636120I-2347061J103342D01*
G01*
X3509598Y16639214D02*
G75*
G02*
X1887277Y14322306I-1969612J-347295D01*
G01*
%TO.C,D61*%
D11*
X-193271424Y-21489078D02*
X-193967753Y-25438157D01*
X-193271424Y-21489078D02*
X-191301809Y-21836374D01*
X-191301809Y-21836374D02*
X-191998138Y-25785453D01*
%TO.C,LED120*%
D12*
X-80275000Y-62240000D02*
X-80275000Y-61900000D01*
X-80275000Y-63690000D02*
X-80275000Y-63510000D01*
X-80275000Y-65200000D02*
X-80275000Y-64960000D01*
X-80275000Y-65200000D02*
X-76575000Y-65200000D01*
X-76575000Y-61900000D02*
X-80275000Y-61900000D01*
X-76575000Y-62240000D02*
X-76575000Y-61900000D01*
X-76575000Y-63690000D02*
X-76575000Y-63510000D01*
X-76575000Y-65200000D02*
X-76575000Y-64960000D01*
D13*
X-81335000Y-62200000D02*
G75*
G02*
X-81395000Y-62200000I-30000J0D01*
G01*
X-81395000Y-62200000D02*
G75*
G02*
X-81335000Y-62200000I30000J0D01*
G01*
D14*
G36*
X-80837822Y-62329975D02*
G01*
X-80837822Y-61822025D01*
X-80329898Y-61822025D01*
X-80837822Y-62329975D01*
G37*
%TO.C,SW70*%
D16*
X58909136Y-31491978D02*
X58827521Y-31029118D01*
X59233101Y-30449890D02*
X63728575Y-29657217D01*
X59443972Y-34525186D02*
X59404033Y-34298680D01*
X60970424Y-34256031D02*
X59443972Y-34525186D01*
X68258001Y-32971035D02*
X62447636Y-33995559D01*
X69246505Y-27059574D02*
X69204829Y-26823221D01*
X69741402Y-29866277D02*
X69880321Y-30654123D01*
X58827521Y-31029118D02*
G75*
G02*
X59233101Y-30449890I492405J86823D01*
G01*
X65668528Y-27446766D02*
G75*
G02*
X63728575Y-29657217I-2347061J103342D01*
G01*
X69880321Y-30654123D02*
G75*
G02*
X68258000Y-32971031I-1969612J-347295D01*
G01*
%TO.C,R101*%
D11*
X-144822414Y-15382123D02*
X-144904812Y-15849430D01*
X-143793290Y-15563586D02*
X-143875688Y-16030893D01*
%TO.C,D40*%
X11450846Y23228523D02*
X12147175Y19279444D01*
X11450846Y23228523D02*
X13420461Y23575819D01*
X13420461Y23575819D02*
X14116790Y19626740D01*
%TO.C,SW52*%
D16*
X-21524991Y-14145689D02*
X-21606606Y-13682829D01*
X-21201026Y-13103601D02*
X-16705552Y-12310928D01*
X-20990155Y-17178897D02*
X-21030094Y-16952391D01*
X-19463703Y-16909742D02*
X-20990155Y-17178897D01*
X-12176126Y-15624746D02*
X-17986491Y-16649270D01*
X-11187622Y-9713285D02*
X-11229298Y-9476932D01*
X-10692725Y-12519988D02*
X-10553806Y-13307834D01*
X-21606606Y-13682829D02*
G75*
G02*
X-21201026Y-13103601I492405J86823D01*
G01*
X-14765599Y-10100477D02*
G75*
G02*
X-16705552Y-12310928I-2347061J103342D01*
G01*
X-10553806Y-13307834D02*
G75*
G02*
X-12176127Y-15624742I-1969612J-347295D01*
G01*
%TO.C,D76*%
D11*
X-178339779Y-46512087D02*
X-179036108Y-50461166D01*
X-178339779Y-46512087D02*
X-176370164Y-46859383D01*
X-176370164Y-46859383D02*
X-177066493Y-50808462D01*
%TO.C,SW33*%
D16*
X-189783680Y3271227D02*
X-189743741Y3497733D01*
X-189248843Y6304435D02*
X-189167229Y6767294D01*
X-188588001Y7172874D02*
X-184092527Y6380201D01*
X-188257228Y3002072D02*
X-189783680Y3271227D01*
X-180969650Y1717076D02*
X-186780016Y2741600D01*
X-178513820Y4127241D02*
X-178652739Y3339395D01*
X-178018923Y6933943D02*
X-177977247Y7170297D01*
X-189167229Y6767294D02*
G75*
G02*
X-188588001Y7172874I492405J-86825D01*
G01*
X-181513548Y7793842D02*
G75*
G02*
X-184092527Y6380201I-2170169J899849D01*
G01*
X-178652739Y3339395D02*
G75*
G02*
X-180969650Y1717077I-1969618J347301D01*
G01*
%TO.C,LED128*%
D12*
X-55639590Y-22719665D02*
X-55698630Y-22384830D01*
X-55387800Y-24147636D02*
X-55419057Y-23970370D01*
X-55125591Y-25634697D02*
X-55167267Y-25398342D01*
X-55125591Y-25634697D02*
X-51481803Y-24992197D01*
X-52054842Y-21742332D02*
X-55698630Y-22384830D01*
X-51995801Y-22077166D02*
X-52054842Y-21742332D01*
X-51744011Y-23505138D02*
X-51775268Y-23327872D01*
X-51481803Y-24992197D02*
X-51523478Y-24755843D01*
D13*
X-56689976Y-22869549D02*
G75*
G02*
X-56749976Y-22869549I-30000J0D01*
G01*
X-56749976Y-22869549D02*
G75*
G02*
X-56689976Y-22869549I30000J0D01*
G01*
D14*
G36*
X-56178237Y-22906006D02*
G01*
X-56266442Y-22405773D01*
X-55766234Y-22317573D01*
X-56178237Y-22906006D01*
G37*
%TO.C,C111*%
D11*
X-75432836Y-27040000D02*
X-75217164Y-27040000D01*
X-75432836Y-27760000D02*
X-75217164Y-27760000D01*
%TO.C,C144*%
D15*
X-59892463Y-25205941D02*
X-58513733Y-24962833D01*
%TO.C,D84*%
D11*
X61327089Y-40224553D02*
X62023418Y-44173632D01*
X61327089Y-40224553D02*
X63296704Y-39877257D01*
X63296704Y-39877257D02*
X63993033Y-43826336D01*
%TO.C,SW56*%
D16*
X55601138Y-12731391D02*
X55519523Y-12268531D01*
X55925103Y-11689303D02*
X60420577Y-10896630D01*
X56135974Y-15764599D02*
X56096035Y-15538093D01*
X57662426Y-15495444D02*
X56135974Y-15764599D01*
X64950003Y-14210448D02*
X59139638Y-15234972D01*
X65938507Y-8298987D02*
X65896831Y-8062634D01*
X66433404Y-11105690D02*
X66572323Y-11893536D01*
X55519523Y-12268531D02*
G75*
G02*
X55925103Y-11689303I492405J86823D01*
G01*
X62360530Y-8686179D02*
G75*
G02*
X60420577Y-10896630I-2347061J103342D01*
G01*
X66572323Y-11893536D02*
G75*
G02*
X64950002Y-14210444I-1969612J-347295D01*
G01*
%TO.C,IC104*%
D15*
X-69095108Y15438516D02*
X-67913339Y15646895D01*
X-68098283Y18711336D02*
X-67594703Y15855393D01*
X-67594703Y15855393D02*
X-67003819Y15959582D01*
X-67507399Y18815525D02*
X-68098283Y18711336D01*
X-67003819Y15959582D02*
X-67507399Y18815525D01*
%TO.C,SW57*%
D16*
X-273525804Y-32835650D02*
X-273485865Y-32609144D01*
X-272990967Y-29802442D02*
X-272909353Y-29339583D01*
X-272330125Y-28934003D02*
X-267834651Y-29726676D01*
X-271999352Y-33104805D02*
X-273525804Y-32835650D01*
X-264711774Y-34389801D02*
X-270522140Y-33365277D01*
X-262255944Y-31979636D02*
X-262394863Y-32767482D01*
X-261761047Y-29172934D02*
X-261719371Y-28936580D01*
X-272909353Y-29339583D02*
G75*
G02*
X-272330125Y-28934003I492405J-86825D01*
G01*
X-265255672Y-28313035D02*
G75*
G02*
X-267834651Y-29726676I-2170169J899849D01*
G01*
X-262394863Y-32767482D02*
G75*
G02*
X-264711774Y-34389800I-1969618J347301D01*
G01*
%TO.C,SW71*%
X-276832313Y-51594814D02*
X-276792374Y-51368308D01*
X-276297476Y-48561606D02*
X-276215862Y-48098747D01*
X-275636634Y-47693167D02*
X-271141160Y-48485840D01*
X-275305861Y-51863969D02*
X-276832313Y-51594814D01*
X-268018283Y-53148965D02*
X-273828649Y-52124441D01*
X-265562453Y-50738800D02*
X-265701372Y-51526646D01*
X-265067556Y-47932098D02*
X-265025880Y-47695744D01*
X-276215862Y-48098747D02*
G75*
G02*
X-275636634Y-47693167I492405J-86825D01*
G01*
X-268562181Y-47072199D02*
G75*
G02*
X-271141160Y-48485840I-2170169J899849D01*
G01*
X-265701372Y-51526646D02*
G75*
G02*
X-268018283Y-53148964I-1969618J347301D01*
G01*
%TO.C,SW24*%
X-28140987Y23375487D02*
X-28222602Y23838347D01*
X-27817022Y24417575D02*
X-23321548Y25210248D01*
X-27606151Y20342279D02*
X-27646090Y20568785D01*
X-26079699Y20611434D02*
X-27606151Y20342279D01*
X-18792122Y21896430D02*
X-24602487Y20871906D01*
X-17803618Y27807891D02*
X-17845294Y28044244D01*
X-17308721Y25001188D02*
X-17169802Y24213342D01*
X-28222602Y23838347D02*
G75*
G02*
X-27817022Y24417575I492405J86823D01*
G01*
X-21381595Y27420699D02*
G75*
G02*
X-23321548Y25210248I-2347061J103342D01*
G01*
X-17169802Y24213342D02*
G75*
G02*
X-18792123Y21896434I-1969612J-347295D01*
G01*
%TO.C,SW89*%
X-184776028Y-78033545D02*
X-184736089Y-77807039D01*
X-184241191Y-75000337D02*
X-184159577Y-74537478D01*
X-183580349Y-74131898D02*
X-179084875Y-74924571D01*
X-183249576Y-78302700D02*
X-184776028Y-78033545D01*
X-175961998Y-79587696D02*
X-181772364Y-78563172D01*
X-173506168Y-77177531D02*
X-173645087Y-77965377D01*
X-173011271Y-74370829D02*
X-172969595Y-74134475D01*
X-184159577Y-74537478D02*
G75*
G02*
X-183580349Y-74131898I492405J-86825D01*
G01*
X-176505896Y-73510930D02*
G75*
G02*
X-179084875Y-74924571I-2170169J899849D01*
G01*
X-173645087Y-77965377D02*
G75*
G02*
X-175961998Y-79587695I-1969618J347301D01*
G01*
%TO.C,LED121*%
D12*
X-80275000Y-57690000D02*
X-80275000Y-57350000D01*
X-80275000Y-59140000D02*
X-80275000Y-58960000D01*
X-80275000Y-60650000D02*
X-80275000Y-60410000D01*
X-80275000Y-60650000D02*
X-76575000Y-60650000D01*
X-76575000Y-57350000D02*
X-80275000Y-57350000D01*
X-76575000Y-57690000D02*
X-76575000Y-57350000D01*
X-76575000Y-59140000D02*
X-76575000Y-58960000D01*
X-76575000Y-60650000D02*
X-76575000Y-60410000D01*
D13*
X-81335000Y-57650000D02*
G75*
G02*
X-81395000Y-57650000I-30000J0D01*
G01*
X-81395000Y-57650000D02*
G75*
G02*
X-81335000Y-57650000I30000J0D01*
G01*
D14*
G36*
X-80837822Y-57779975D02*
G01*
X-80837822Y-57272025D01*
X-80329898Y-57272025D01*
X-80837822Y-57779975D01*
G37*
%TO.C,SW20*%
D16*
X-168236039Y15769394D02*
X-168196100Y15995900D01*
X-167701202Y18802602D02*
X-167619588Y19265461D01*
X-167040360Y19671041D02*
X-162544886Y18878368D01*
X-166709587Y15500239D02*
X-168236039Y15769394D01*
X-159422009Y14215243D02*
X-165232375Y15239767D01*
X-156966179Y16625408D02*
X-157105098Y15837562D01*
X-156471282Y19432110D02*
X-156429606Y19668464D01*
X-167619588Y19265461D02*
G75*
G02*
X-167040360Y19671041I492405J-86825D01*
G01*
X-159965907Y20292009D02*
G75*
G02*
X-162544886Y18878368I-2170169J899849D01*
G01*
X-157105098Y15837562D02*
G75*
G02*
X-159422009Y14215244I-1969618J347301D01*
G01*
%TO.C,SW18*%
X-203847085Y33218275D02*
X-203807146Y33444781D01*
X-203312248Y36251483D02*
X-203230634Y36714342D01*
X-202651406Y37119922D02*
X-198155932Y36327249D01*
X-202320633Y32949120D02*
X-203847085Y33218275D01*
X-195033055Y31664124D02*
X-200843421Y32688648D01*
X-192577225Y34074289D02*
X-192716144Y33286443D01*
X-192082328Y36880991D02*
X-192040652Y37117345D01*
X-203230634Y36714342D02*
G75*
G02*
X-202651406Y37119922I492405J-86825D01*
G01*
X-195576953Y37740890D02*
G75*
G02*
X-198155932Y36327249I-2170169J899849D01*
G01*
X-192716144Y33286443D02*
G75*
G02*
X-195033055Y31664125I-1969618J347301D01*
G01*
%TO.C,LED115*%
D12*
X-127925000Y-85600000D02*
X-127925000Y-85840000D01*
X-127925000Y-87110000D02*
X-127925000Y-87290000D01*
X-127925000Y-88560000D02*
X-127925000Y-88900000D01*
X-127925000Y-88900000D02*
X-124225000Y-88900000D01*
X-124225000Y-85600000D02*
X-127925000Y-85600000D01*
X-124225000Y-85600000D02*
X-124225000Y-85840000D01*
X-124225000Y-87110000D02*
X-124225000Y-87290000D01*
X-124225000Y-88560000D02*
X-124225000Y-88900000D01*
D13*
X-123105000Y-88600000D02*
G75*
G02*
X-123165000Y-88600000I-30000J0D01*
G01*
X-123165000Y-88600000D02*
G75*
G02*
X-123105000Y-88600000I30000J0D01*
G01*
D14*
G36*
X-123662178Y-88977975D02*
G01*
X-124170102Y-88977975D01*
X-123662178Y-88470025D01*
X-123662178Y-88977975D01*
G37*
%TO.C,C109*%
D11*
X-51182129Y-20258240D02*
X-50969734Y-20220789D01*
X-51057102Y-20967301D02*
X-50844707Y-20929850D01*
%TO.C,SW62*%
D16*
X-178160032Y-40512370D02*
X-178120093Y-40285864D01*
X-177625195Y-37479162D02*
X-177543581Y-37016303D01*
X-176964353Y-36610723D02*
X-172468879Y-37403396D01*
X-176633580Y-40781525D02*
X-178160032Y-40512370D01*
X-169346002Y-42066521D02*
X-175156368Y-41041997D01*
X-166890172Y-39656356D02*
X-167029091Y-40444202D01*
X-166395275Y-36849654D02*
X-166353599Y-36613300D01*
X-177543581Y-37016303D02*
G75*
G02*
X-176964353Y-36610723I492405J-86825D01*
G01*
X-169889900Y-35989755D02*
G75*
G02*
X-172468879Y-37403396I-2170169J899849D01*
G01*
X-167029091Y-40444202D02*
G75*
G02*
X-169346002Y-42066520I-1969618J347301D01*
G01*
%TO.C,SW92*%
X-29840641Y-76689873D02*
X-29922256Y-76227013D01*
X-29516676Y-75647785D02*
X-25021202Y-74855112D01*
X-29305805Y-79723081D02*
X-29345744Y-79496575D01*
X-27779353Y-79453926D02*
X-29305805Y-79723081D01*
X-20491776Y-78168930D02*
X-26302141Y-79193454D01*
X-19503272Y-72257469D02*
X-19544948Y-72021116D01*
X-19008375Y-75064172D02*
X-18869456Y-75852018D01*
X-29922256Y-76227013D02*
G75*
G02*
X-29516676Y-75647785I492405J86823D01*
G01*
X-23081249Y-72644661D02*
G75*
G02*
X-25021202Y-74855112I-2347061J103342D01*
G01*
X-18869456Y-75852018D02*
G75*
G02*
X-20491777Y-78168926I-1969612J-347295D01*
G01*
%TO.C,D43*%
D11*
X-267089555Y-1314192D02*
X-267785884Y-5263271D01*
X-267089555Y-1314192D02*
X-265119940Y-1661488D01*
X-265119940Y-1661488D02*
X-265816269Y-5610567D01*
%TO.C,D18*%
X-200718833Y45979144D02*
X-201415162Y42030065D01*
X-200718833Y45979144D02*
X-198749218Y45631848D01*
X-198749218Y45631848D02*
X-199445547Y41682769D01*
%TO.C,C133*%
X-128967164Y-61340000D02*
X-129182836Y-61340000D01*
X-128967164Y-62060000D02*
X-129182836Y-62060000D01*
%TO.C,C99*%
X-87060000Y9292164D02*
X-87060000Y9507836D01*
X-86340000Y9292164D02*
X-86340000Y9507836D01*
%TO.C,D26*%
X8142848Y41989112D02*
X8839177Y38040033D01*
X8142848Y41989112D02*
X10112463Y42336408D01*
X10112463Y42336408D02*
X10808792Y38387329D01*
%TO.C,SW51*%
D16*
X-39764634Y-20408110D02*
X-39846249Y-19945250D01*
X-39440669Y-19366022D02*
X-34945195Y-18573349D01*
X-39229798Y-23441318D02*
X-39269737Y-23214812D01*
X-37703346Y-23172163D02*
X-39229798Y-23441318D01*
X-30415769Y-21887167D02*
X-36226134Y-22911691D01*
X-29427265Y-15975706D02*
X-29468941Y-15739353D01*
X-28932368Y-18782409D02*
X-28793449Y-19570255D01*
X-39846249Y-19945250D02*
G75*
G02*
X-39440669Y-19366022I492405J86823D01*
G01*
X-33005242Y-16362898D02*
G75*
G02*
X-34945195Y-18573349I-2347061J103342D01*
G01*
X-28793449Y-19570255D02*
G75*
G02*
X-30415770Y-21887163I-1969612J-347295D01*
G01*
%TO.C,C139*%
D15*
X-76825000Y-17600000D02*
X-76825000Y-16200000D01*
%TO.C,SW48*%
D16*
X-174852035Y-21751782D02*
X-174812096Y-21525276D01*
X-174317198Y-18718574D02*
X-174235584Y-18255715D01*
X-173656356Y-17850135D02*
X-169160882Y-18642808D01*
X-173325583Y-22020937D02*
X-174852035Y-21751782D01*
X-166038005Y-23305933D02*
X-171848371Y-22281409D01*
X-163582175Y-20895768D02*
X-163721094Y-21683614D01*
X-163087278Y-18089066D02*
X-163045602Y-17852712D01*
X-174235584Y-18255715D02*
G75*
G02*
X-173656356Y-17850135I492405J-86825D01*
G01*
X-166581903Y-17229167D02*
G75*
G02*
X-169160882Y-18642808I-2170169J899849D01*
G01*
X-163721094Y-21683614D02*
G75*
G02*
X-166038005Y-23305932I-1969618J347301D01*
G01*
%TO.C,D71*%
D11*
X-274153959Y-38930940D02*
X-274850288Y-42880019D01*
X-274153959Y-38930940D02*
X-272184344Y-39278236D01*
X-272184344Y-39278236D02*
X-272880673Y-43227315D01*
%TO.C,LED113*%
D12*
X-127925000Y-76500000D02*
X-127925000Y-76740000D01*
X-127925000Y-78010000D02*
X-127925000Y-78190000D01*
X-127925000Y-79460000D02*
X-127925000Y-79800000D01*
X-127925000Y-79800000D02*
X-124225000Y-79800000D01*
X-124225000Y-76500000D02*
X-127925000Y-76500000D01*
X-124225000Y-76500000D02*
X-124225000Y-76740000D01*
X-124225000Y-78010000D02*
X-124225000Y-78190000D01*
X-124225000Y-79460000D02*
X-124225000Y-79800000D01*
D13*
X-123105000Y-79500000D02*
G75*
G02*
X-123165000Y-79500000I-30000J0D01*
G01*
X-123165000Y-79500000D02*
G75*
G02*
X-123105000Y-79500000I30000J0D01*
G01*
D14*
G36*
X-123662178Y-79877975D02*
G01*
X-124170102Y-79877975D01*
X-123662178Y-79370025D01*
X-123662178Y-79877975D01*
G37*
%TO.C,D113*%
D11*
X-56059455Y-32287937D02*
X-55363126Y-36237016D01*
X-56059455Y-32287937D02*
X-54089840Y-31940641D01*
X-54089840Y-31940641D02*
X-53393511Y-35889720D01*
%TO.C,D62*%
X-175031781Y-27751500D02*
X-175728110Y-31700579D01*
X-175031781Y-27751500D02*
X-173062166Y-28098796D01*
X-173062166Y-28098796D02*
X-173758495Y-32047875D01*
%TO.C,D93*%
X-12491042Y-60399438D02*
X-11794713Y-64348517D01*
X-12491042Y-60399438D02*
X-10521427Y-60052142D01*
X-10521427Y-60052142D02*
X-9825098Y-64001221D01*
%TO.C,SW76*%
D16*
X-181468030Y-59272957D02*
X-181428091Y-59046451D01*
X-180933193Y-56239749D02*
X-180851579Y-55776890D01*
X-180272351Y-55371310D02*
X-175776877Y-56163983D01*
X-179941578Y-59542112D02*
X-181468030Y-59272957D01*
X-172654000Y-60827108D02*
X-178464366Y-59802584D01*
X-170198170Y-58416943D02*
X-170337089Y-59204789D01*
X-169703273Y-55610241D02*
X-169661597Y-55373887D01*
X-180851579Y-55776890D02*
G75*
G02*
X-180272351Y-55371310I492405J-86825D01*
G01*
X-173197898Y-54750342D02*
G75*
G02*
X-175776877Y-56163983I-2170169J899849D01*
G01*
X-170337089Y-59204789D02*
G75*
G02*
X-172654000Y-60827107I-1969618J347301D01*
G01*
%TO.C,LED102*%
D12*
X-152245463Y-20609803D02*
X-148601675Y-21252301D01*
X-152186423Y-20274968D02*
X-152245463Y-20609803D01*
X-151934633Y-18846997D02*
X-151965890Y-19024263D01*
X-151672424Y-17359936D02*
X-151714100Y-17596291D01*
X-148542634Y-20917467D02*
X-148601675Y-21252301D01*
X-148290844Y-19489495D02*
X-148322101Y-19666761D01*
X-148028636Y-18002436D02*
X-151672424Y-17359936D01*
X-148028636Y-18002436D02*
X-148070311Y-18238790D01*
D13*
X-147446140Y-21146135D02*
G75*
G02*
X-147506140Y-21146135I-30000J0D01*
G01*
X-147506140Y-21146135D02*
G75*
G02*
X-147446140Y-21146135I30000J0D01*
G01*
D14*
G36*
X-148060943Y-21426825D02*
G01*
X-148561151Y-21338625D01*
X-147972739Y-20926592D01*
X-148060943Y-21426825D01*
G37*
%TO.C,D60*%
D11*
X-210642826Y-10302618D02*
X-211339155Y-14251697D01*
X-210642826Y-10302618D02*
X-208673211Y-10649914D01*
X-208673211Y-10649914D02*
X-209369540Y-14598993D01*
%TO.C,C9*%
X-149575165Y17770845D02*
X-149822181Y16369952D01*
X-147782815Y17454806D02*
X-148029831Y16053913D01*
%TO.C,SW69*%
D16*
X40148548Y-34799976D02*
X40066933Y-34337116D01*
X40472513Y-33757888D02*
X44967987Y-32965215D01*
X40683384Y-37833184D02*
X40643445Y-37606678D01*
X42209836Y-37564029D02*
X40683384Y-37833184D01*
X49497413Y-36279033D02*
X43687048Y-37303557D01*
X50485917Y-30367572D02*
X50444241Y-30131219D01*
X50980814Y-33174275D02*
X51119733Y-33962121D01*
X40066933Y-34337116D02*
G75*
G02*
X40472513Y-33757888I492405J86823D01*
G01*
X46907940Y-30754764D02*
G75*
G02*
X44967987Y-32965215I-2347061J103342D01*
G01*
X51119733Y-33962121D02*
G75*
G02*
X49497412Y-36279029I-1969612J-347295D01*
G01*
%TO.C,LED105*%
D12*
X-127925000Y-23900000D02*
X-127925000Y-24140000D01*
X-127925000Y-25410000D02*
X-127925000Y-25590000D01*
X-127925000Y-26860000D02*
X-127925000Y-27200000D01*
X-127925000Y-27200000D02*
X-124225000Y-27200000D01*
X-124225000Y-23900000D02*
X-127925000Y-23900000D01*
X-124225000Y-23900000D02*
X-124225000Y-24140000D01*
X-124225000Y-25410000D02*
X-124225000Y-25590000D01*
X-124225000Y-26860000D02*
X-124225000Y-27200000D01*
D13*
X-123105000Y-26900000D02*
G75*
G02*
X-123165000Y-26900000I-30000J0D01*
G01*
X-123165000Y-26900000D02*
G75*
G02*
X-123105000Y-26900000I30000J0D01*
G01*
D14*
G36*
X-123662178Y-27277975D02*
G01*
X-124170102Y-27277975D01*
X-123662178Y-26770025D01*
X-123662178Y-27277975D01*
G37*
%TO.C,SW44*%
D16*
X-251457219Y-17383060D02*
X-251417280Y-17156554D01*
X-250922382Y-14349852D02*
X-250840768Y-13886993D01*
X-250261540Y-13481413D02*
X-245766066Y-14274086D01*
X-249930767Y-17652215D02*
X-251457219Y-17383060D01*
X-242643189Y-18937211D02*
X-248453555Y-17912687D01*
X-240187359Y-16527046D02*
X-240326278Y-17314892D01*
X-239692462Y-13720344D02*
X-239650786Y-13483990D01*
X-250840768Y-13886993D02*
G75*
G02*
X-250261540Y-13481413I492405J-86825D01*
G01*
X-243187087Y-12860445D02*
G75*
G02*
X-245766066Y-14274086I-2170169J899849D01*
G01*
X-240326278Y-17314892D02*
G75*
G02*
X-242643189Y-18937210I-1969618J347301D01*
G01*
%TO.C,LED119*%
D12*
X-80275000Y-66790000D02*
X-80275000Y-66450000D01*
X-80275000Y-68240000D02*
X-80275000Y-68060000D01*
X-80275000Y-69750000D02*
X-80275000Y-69510000D01*
X-80275000Y-69750000D02*
X-76575000Y-69750000D01*
X-76575000Y-66450000D02*
X-80275000Y-66450000D01*
X-76575000Y-66790000D02*
X-76575000Y-66450000D01*
X-76575000Y-68240000D02*
X-76575000Y-68060000D01*
X-76575000Y-69750000D02*
X-76575000Y-69510000D01*
D13*
X-81335000Y-66750000D02*
G75*
G02*
X-81395000Y-66750000I-30000J0D01*
G01*
X-81395000Y-66750000D02*
G75*
G02*
X-81335000Y-66750000I30000J0D01*
G01*
D14*
G36*
X-80837822Y-66879975D02*
G01*
X-80837822Y-66372025D01*
X-80329898Y-66372025D01*
X-80837822Y-66879975D01*
G37*
%TO.C,D107*%
D11*
X-116075000Y-38540000D02*
X-116075000Y-42550000D01*
X-116075000Y-38540000D02*
X-114075000Y-38540000D01*
X-114075000Y-38540000D02*
X-114075000Y-42550000D01*
%TO.C,D112*%
X-62545214Y4494632D02*
X-61848885Y545553D01*
X-62545214Y4494632D02*
X-60575599Y4841928D01*
X-60575599Y4841928D02*
X-59879270Y892849D01*
%TO.C,D106*%
X-116075000Y-57540000D02*
X-116075000Y-61550000D01*
X-116075000Y-57540000D02*
X-114075000Y-57540000D01*
X-114075000Y-57540000D02*
X-114075000Y-61550000D01*
%TO.C,D91*%
X-49491273Y-69969857D02*
X-48794944Y-73918936D01*
X-49491273Y-69969857D02*
X-47521658Y-69622561D01*
X-47521658Y-69622561D02*
X-46825329Y-73571640D01*
%TO.C,C112*%
X-75432836Y-41540000D02*
X-75217164Y-41540000D01*
X-75432836Y-42260000D02*
X-75217164Y-42260000D01*
%TO.C,SW25*%
D16*
X-10769585Y34561946D02*
X-10851200Y35024806D01*
X-10445620Y35604034D02*
X-5950146Y36396707D01*
X-10234749Y31528738D02*
X-10274688Y31755244D01*
X-8708297Y31797893D02*
X-10234749Y31528738D01*
X-1420720Y33082889D02*
X-7231085Y32058365D01*
X-432216Y38994350D02*
X-473892Y39230703D01*
X62681Y36187647D02*
X201600Y35399801D01*
X-10851200Y35024806D02*
G75*
G02*
X-10445620Y35604034I492405J86823D01*
G01*
X-4010193Y38607158D02*
G75*
G02*
X-5950146Y36396707I-2347061J103342D01*
G01*
X201600Y35399801D02*
G75*
G02*
X-1420721Y33082893I-1969612J-347295D01*
G01*
%TO.C,R104*%
D11*
X-56057078Y14855761D02*
X-56524385Y14773363D01*
X-55875615Y13826637D02*
X-56342922Y13744239D01*
%TO.C,D104*%
X-144783798Y19605453D02*
X-144210759Y22855319D01*
X-144783798Y19605453D02*
X-139357507Y18648652D01*
X-144210759Y22855319D02*
X-138784468Y21898517D01*
%TO.C,D75*%
X-196579422Y-40249666D02*
X-197275751Y-44198745D01*
X-196579422Y-40249666D02*
X-194609807Y-40596962D01*
X-194609807Y-40596962D02*
X-195306136Y-44546041D01*
%TO.C,LED104*%
D12*
X-127925000Y-19350000D02*
X-127925000Y-19590000D01*
X-127925000Y-20860000D02*
X-127925000Y-21040000D01*
X-127925000Y-22310000D02*
X-127925000Y-22650000D01*
X-127925000Y-22650000D02*
X-124225000Y-22650000D01*
X-124225000Y-19350000D02*
X-127925000Y-19350000D01*
X-124225000Y-19350000D02*
X-124225000Y-19590000D01*
X-124225000Y-20860000D02*
X-124225000Y-21040000D01*
X-124225000Y-22310000D02*
X-124225000Y-22650000D01*
D13*
X-123105000Y-22350000D02*
G75*
G02*
X-123165000Y-22350000I-30000J0D01*
G01*
X-123165000Y-22350000D02*
G75*
G02*
X-123105000Y-22350000I30000J0D01*
G01*
D14*
G36*
X-123662178Y-22727975D02*
G01*
X-124170102Y-22727975D01*
X-123662178Y-22220025D01*
X-123662178Y-22727975D01*
G37*
%TO.C,C78*%
D11*
X-120196003Y15180844D02*
X-119983608Y15143393D01*
X-120070976Y15889905D02*
X-119858581Y15852454D01*
%TO.C,SW94*%
D16*
X5770404Y-59240992D02*
X5688789Y-58778132D01*
X6094369Y-58198904D02*
X10589843Y-57406231D01*
X6305240Y-62274200D02*
X6265301Y-62047694D01*
X7831692Y-62005045D02*
X6305240Y-62274200D01*
X15119269Y-60720049D02*
X9308904Y-61744573D01*
X16107773Y-54808588D02*
X16066097Y-54572235D01*
X16602670Y-57615291D02*
X16741589Y-58403137D01*
X5688789Y-58778132D02*
G75*
G02*
X6094369Y-58198904I492405J86823D01*
G01*
X12529796Y-55195780D02*
G75*
G02*
X10589843Y-57406231I-2347061J103342D01*
G01*
X16741589Y-58403137D02*
G75*
G02*
X15119268Y-60720045I-1969612J-347295D01*
G01*
%TO.C,SW91*%
X-48601229Y-79997871D02*
X-48682844Y-79535011D01*
X-48277264Y-78955783D02*
X-43781790Y-78163110D01*
X-48066393Y-83031079D02*
X-48106332Y-82804573D01*
X-46539941Y-82761924D02*
X-48066393Y-83031079D01*
X-39252364Y-81476928D02*
X-45062729Y-82501452D01*
X-38263860Y-75565467D02*
X-38305536Y-75329114D01*
X-37768963Y-78372170D02*
X-37630044Y-79160016D01*
X-48682844Y-79535011D02*
G75*
G02*
X-48277264Y-78955783I492405J86823D01*
G01*
X-41841837Y-75952659D02*
G75*
G02*
X-43781790Y-78163110I-2347061J103342D01*
G01*
X-37630044Y-79160016D02*
G75*
G02*
X-39252365Y-81476924I-1969612J-347295D01*
G01*
%TO.C,SW61*%
X-196399676Y-34249949D02*
X-196359737Y-34023443D01*
X-195864839Y-31216741D02*
X-195783225Y-30753882D01*
X-195203997Y-30348302D02*
X-190708523Y-31140975D01*
X-194873224Y-34519104D02*
X-196399676Y-34249949D01*
X-187585646Y-35804100D02*
X-193396012Y-34779576D01*
X-185129816Y-33393935D02*
X-185268735Y-34181781D01*
X-184634919Y-30587233D02*
X-184593243Y-30350879D01*
X-195783225Y-30753882D02*
G75*
G02*
X-195203997Y-30348302I492405J-86825D01*
G01*
X-188129544Y-29727334D02*
G75*
G02*
X-190708523Y-31140975I-2170169J899849D01*
G01*
X-185268735Y-34181781D02*
G75*
G02*
X-187585646Y-35804099I-1969618J347301D01*
G01*
%TO.C,D33*%
D11*
X-186655428Y16032097D02*
X-187351757Y12083018D01*
X-186655428Y16032097D02*
X-184685813Y15684801D01*
X-184685813Y15684801D02*
X-185382142Y11735722D01*
%TO.C,LED107*%
D12*
X-127925000Y-38400000D02*
X-127925000Y-38640000D01*
X-127925000Y-39910000D02*
X-127925000Y-40090000D01*
X-127925000Y-41360000D02*
X-127925000Y-41700000D01*
X-127925000Y-41700000D02*
X-124225000Y-41700000D01*
X-124225000Y-38400000D02*
X-127925000Y-38400000D01*
X-124225000Y-38400000D02*
X-124225000Y-38640000D01*
X-124225000Y-39910000D02*
X-124225000Y-40090000D01*
X-124225000Y-41360000D02*
X-124225000Y-41700000D01*
D13*
X-123105000Y-41400000D02*
G75*
G02*
X-123165000Y-41400000I-30000J0D01*
G01*
X-123165000Y-41400000D02*
G75*
G02*
X-123105000Y-41400000I30000J0D01*
G01*
D14*
G36*
X-123662178Y-41777975D02*
G01*
X-124170102Y-41777975D01*
X-123662178Y-41270025D01*
X-123662178Y-41777975D01*
G37*
%TO.C,LED103*%
D12*
X-153035562Y-25090678D02*
X-149391774Y-25733176D01*
X-152976522Y-24755843D02*
X-153035562Y-25090678D01*
X-152724732Y-23327872D02*
X-152755989Y-23505138D01*
X-152462523Y-21840811D02*
X-152504199Y-22077166D01*
X-149332733Y-25398342D02*
X-149391774Y-25733176D01*
X-149080943Y-23970370D02*
X-149112200Y-24147636D01*
X-148818735Y-22483311D02*
X-152462523Y-21840811D01*
X-148818735Y-22483311D02*
X-148860410Y-22719665D01*
D13*
X-148236239Y-25627010D02*
G75*
G02*
X-148296239Y-25627010I-30000J0D01*
G01*
X-148296239Y-25627010D02*
G75*
G02*
X-148236239Y-25627010I30000J0D01*
G01*
D14*
G36*
X-148851042Y-25907700D02*
G01*
X-149351250Y-25819500D01*
X-148762838Y-25407467D01*
X-148851042Y-25907700D01*
G37*
%TO.C,SW26*%
D16*
X9032892Y31961098D02*
X8951277Y32423958D01*
X9356857Y33003186D02*
X13852331Y33795859D01*
X9567728Y28927890D02*
X9527789Y29154396D01*
X11094180Y29197045D02*
X9567728Y28927890D01*
X18381757Y30482041D02*
X12571392Y29457517D01*
X19370261Y36393502D02*
X19328585Y36629855D01*
X19865158Y33586799D02*
X20004077Y32798953D01*
X8951277Y32423958D02*
G75*
G02*
X9356857Y33003186I492405J86823D01*
G01*
X15792284Y36006310D02*
G75*
G02*
X13852331Y33795859I-2347061J103342D01*
G01*
X20004077Y32798953D02*
G75*
G02*
X18381756Y30482045I-1969612J-347295D01*
G01*
%TO.C,D83*%
D11*
X42566503Y-43532550D02*
X43262832Y-47481629D01*
X42566503Y-43532550D02*
X44536118Y-43185254D01*
X44536118Y-43185254D02*
X45232447Y-47134333D01*
%TO.C,D53*%
X-5043633Y7068784D02*
X-4347304Y3119705D01*
X-5043633Y7068784D02*
X-3074018Y7416080D01*
X-3074018Y7416080D02*
X-2377689Y3467001D01*
%TO.C,D27*%
X29334511Y31509801D02*
X30030840Y27560722D01*
X29334511Y31509801D02*
X31304126Y31857097D01*
X31304126Y31857097D02*
X32000455Y27908018D01*
%TO.C,SW80*%
D16*
X-14908996Y-51666864D02*
X-14990611Y-51204004D01*
X-14585031Y-50624776D02*
X-10089557Y-49832103D01*
X-14374160Y-54700072D02*
X-14414099Y-54473566D01*
X-12847708Y-54430917D02*
X-14374160Y-54700072D01*
X-5560131Y-53145921D02*
X-11370496Y-54170445D01*
X-4571627Y-47234460D02*
X-4613303Y-46998107D01*
X-4076730Y-50041163D02*
X-3937811Y-50829009D01*
X-14990611Y-51204004D02*
G75*
G02*
X-14585031Y-50624776I492405J86823D01*
G01*
X-8149604Y-47621652D02*
G75*
G02*
X-10089557Y-49832103I-2347061J103342D01*
G01*
X-3937811Y-50829009D02*
G75*
G02*
X-5560132Y-53145917I-1969612J-347295D01*
G01*
%TO.C,D103*%
D11*
X-156000371Y-31107251D02*
X-156696700Y-35056330D01*
X-156000371Y-31107251D02*
X-154030756Y-31454547D01*
X-154030756Y-31454547D02*
X-154727085Y-35403626D01*
%TO.C,SW37*%
D16*
X-43072632Y-1647522D02*
X-43154247Y-1184662D01*
X-42748667Y-605434D02*
X-38253193Y187239D01*
X-42537796Y-4680730D02*
X-42577735Y-4454224D01*
X-41011344Y-4411575D02*
X-42537796Y-4680730D01*
X-33723767Y-3126579D02*
X-39534132Y-4151103D01*
X-32735263Y2784882D02*
X-32776939Y3021235D01*
X-32240366Y-21821D02*
X-32101447Y-809667D01*
X-43154247Y-1184662D02*
G75*
G02*
X-42748667Y-605434I492405J86823D01*
G01*
X-36313240Y2397690D02*
G75*
G02*
X-38253193Y187239I-2347061J103342D01*
G01*
X-32101447Y-809667D02*
G75*
G02*
X-33723768Y-3126575I-1969612J-347295D01*
G01*
%TO.C,D92*%
D11*
X-30730685Y-66661859D02*
X-30034356Y-70610938D01*
X-30730685Y-66661859D02*
X-28761070Y-66314563D01*
X-28761070Y-66314563D02*
X-28064741Y-70263642D01*
%TO.C,LED118*%
D12*
X-80275000Y-76740000D02*
X-80275000Y-76400000D01*
X-80275000Y-78190000D02*
X-80275000Y-78010000D01*
X-80275000Y-79700000D02*
X-80275000Y-79460000D01*
X-80275000Y-79700000D02*
X-76575000Y-79700000D01*
X-76575000Y-76400000D02*
X-80275000Y-76400000D01*
X-76575000Y-76740000D02*
X-76575000Y-76400000D01*
X-76575000Y-78190000D02*
X-76575000Y-78010000D01*
X-76575000Y-79700000D02*
X-76575000Y-79460000D01*
D13*
X-81335000Y-76700000D02*
G75*
G02*
X-81395000Y-76700000I-30000J0D01*
G01*
X-81395000Y-76700000D02*
G75*
G02*
X-81335000Y-76700000I30000J0D01*
G01*
D14*
G36*
X-80837822Y-76829975D02*
G01*
X-80837822Y-76322025D01*
X-80329898Y-76322025D01*
X-80837822Y-76829975D01*
G37*
%TO.C,LED112*%
D12*
X-127925000Y-66550000D02*
X-127925000Y-66790000D01*
X-127925000Y-68060000D02*
X-127925000Y-68240000D01*
X-127925000Y-69510000D02*
X-127925000Y-69850000D01*
X-127925000Y-69850000D02*
X-124225000Y-69850000D01*
X-124225000Y-66550000D02*
X-127925000Y-66550000D01*
X-124225000Y-66550000D02*
X-124225000Y-66790000D01*
X-124225000Y-68060000D02*
X-124225000Y-68240000D01*
X-124225000Y-69510000D02*
X-124225000Y-69850000D01*
D13*
X-123105000Y-69550000D02*
G75*
G02*
X-123165000Y-69550000I-30000J0D01*
G01*
X-123165000Y-69550000D02*
G75*
G02*
X-123105000Y-69550000I30000J0D01*
G01*
D14*
G36*
X-123662178Y-69927975D02*
G01*
X-124170102Y-69927975D01*
X-123662178Y-69420025D01*
X-123662178Y-69927975D01*
G37*
%TO.C,D42*%
D11*
X51403097Y16057211D02*
X52099426Y12108132D01*
X51403097Y16057211D02*
X53372712Y16404507D01*
X53372712Y16404507D02*
X54069041Y12455428D01*
%TO.C,LED126*%
D12*
X-80275000Y-24140000D02*
X-80275000Y-23800000D01*
X-80275000Y-25590000D02*
X-80275000Y-25410000D01*
X-80275000Y-27100000D02*
X-80275000Y-26860000D01*
X-80275000Y-27100000D02*
X-76575000Y-27100000D01*
X-76575000Y-23800000D02*
X-80275000Y-23800000D01*
X-76575000Y-24140000D02*
X-76575000Y-23800000D01*
X-76575000Y-25590000D02*
X-76575000Y-25410000D01*
X-76575000Y-27100000D02*
X-76575000Y-26860000D01*
D13*
X-81335000Y-24100000D02*
G75*
G02*
X-81395000Y-24100000I-30000J0D01*
G01*
X-81395000Y-24100000D02*
G75*
G02*
X-81335000Y-24100000I30000J0D01*
G01*
D14*
G36*
X-80837822Y-24229975D02*
G01*
X-80837822Y-23722025D01*
X-80329898Y-23722025D01*
X-80837822Y-24229975D01*
G37*
%TO.C,D52*%
D11*
X-22415034Y-4117675D02*
X-21718705Y-8066754D01*
X-22415034Y-4117675D02*
X-20445419Y-3770379D01*
X-20445419Y-3770379D02*
X-19749090Y-7719458D01*
%TO.C,C120*%
X-75432836Y-88840000D02*
X-75217164Y-88840000D01*
X-75432836Y-89560000D02*
X-75217164Y-89560000D01*
%TO.C,SW81*%
D16*
X2462407Y-40480404D02*
X2380792Y-40017544D01*
X2786372Y-39438316D02*
X7281846Y-38645643D01*
X2997243Y-43513612D02*
X2957304Y-43287106D01*
X4523695Y-43244457D02*
X2997243Y-43513612D01*
X11811272Y-41959461D02*
X6000907Y-42983985D01*
X12799776Y-36048000D02*
X12758100Y-35811647D01*
X13294673Y-38854703D02*
X13433592Y-39642549D01*
X2380792Y-40017544D02*
G75*
G02*
X2786372Y-39438316I492405J86823D01*
G01*
X9221799Y-36435192D02*
G75*
G02*
X7281846Y-38645643I-2347061J103342D01*
G01*
X13433592Y-39642549D02*
G75*
G02*
X11811271Y-41959457I-1969612J-347295D01*
G01*
%TO.C,C123*%
D11*
X-128967164Y-27790000D02*
X-129182836Y-27790000D01*
X-128967164Y-28510000D02*
X-129182836Y-28510000D01*
%TO.C,D29*%
X-263781558Y17446396D02*
X-264477887Y13497317D01*
X-263781558Y17446396D02*
X-261811943Y17099100D01*
X-261811943Y17099100D02*
X-262508272Y13150021D01*
%TO.C,D24*%
X-29031031Y33403501D02*
X-28334702Y29454422D01*
X-29031031Y33403501D02*
X-27061416Y33750797D01*
X-27061416Y33750797D02*
X-26365087Y29801718D01*
%TO.C,D20*%
X-165107788Y28530264D02*
X-165804117Y24581185D01*
X-165107788Y28530264D02*
X-163138173Y28182968D01*
X-163138173Y28182968D02*
X-163834502Y24233889D01*
%TO.C,SW90*%
D16*
X-166015440Y-81341543D02*
X-165975501Y-81115037D01*
X-165480603Y-78308335D02*
X-165398989Y-77845476D01*
X-164819761Y-77439896D02*
X-160324287Y-78232569D01*
X-164488988Y-81610698D02*
X-166015440Y-81341543D01*
X-157201410Y-82895694D02*
X-163011776Y-81871170D01*
X-154745580Y-80485529D02*
X-154884499Y-81273375D01*
X-154250683Y-77678827D02*
X-154209007Y-77442473D01*
X-165398989Y-77845476D02*
G75*
G02*
X-164819761Y-77439896I492405J-86825D01*
G01*
X-157745308Y-76818928D02*
G75*
G02*
X-160324287Y-78232569I-2170169J899849D01*
G01*
X-154884499Y-81273375D02*
G75*
G02*
X-157201410Y-82895693I-1969618J347301D01*
G01*
%TO.C,D95*%
D11*
X24682837Y-51813827D02*
X25379166Y-55762906D01*
X24682837Y-51813827D02*
X26652452Y-51466531D01*
X26652452Y-51466531D02*
X27348781Y-55415610D01*
%TO.C,D38*%
X-25723033Y14642912D02*
X-25026704Y10693833D01*
X-25723033Y14642912D02*
X-23753418Y14990208D01*
X-23753418Y14990208D02*
X-23057089Y11041129D01*
%TO.C,SW66*%
D16*
X-18216993Y-32906277D02*
X-18298608Y-32443417D01*
X-17893028Y-31864189D02*
X-13397554Y-31071516D01*
X-17682157Y-35939485D02*
X-17722096Y-35712979D01*
X-16155705Y-35670330D02*
X-17682157Y-35939485D01*
X-8868128Y-34385334D02*
X-14678493Y-35409858D01*
X-7879624Y-28473873D02*
X-7921300Y-28237520D01*
X-7384727Y-31280576D02*
X-7245808Y-32068422D01*
X-18298608Y-32443417D02*
G75*
G02*
X-17893028Y-31864189I492405J86823D01*
G01*
X-11457601Y-28861065D02*
G75*
G02*
X-13397554Y-31071516I-2347061J103342D01*
G01*
X-7245808Y-32068422D02*
G75*
G02*
X-8868129Y-34385330I-1969612J-347295D01*
G01*
%TO.C,LED108*%
D12*
X-127925000Y-42950000D02*
X-127925000Y-43190000D01*
X-127925000Y-44460000D02*
X-127925000Y-44640000D01*
X-127925000Y-45910000D02*
X-127925000Y-46250000D01*
X-127925000Y-46250000D02*
X-124225000Y-46250000D01*
X-124225000Y-42950000D02*
X-127925000Y-42950000D01*
X-124225000Y-42950000D02*
X-124225000Y-43190000D01*
X-124225000Y-44460000D02*
X-124225000Y-44640000D01*
X-124225000Y-45910000D02*
X-124225000Y-46250000D01*
D13*
X-123105000Y-45950000D02*
G75*
G02*
X-123165000Y-45950000I-30000J0D01*
G01*
X-123165000Y-45950000D02*
G75*
G02*
X-123105000Y-45950000I30000J0D01*
G01*
D14*
G36*
X-123662178Y-46327975D02*
G01*
X-124170102Y-46327975D01*
X-123662178Y-45820025D01*
X-123662178Y-46327975D01*
G37*
%TO.C,D74*%
D11*
X-213950824Y-29063206D02*
X-214647153Y-33012285D01*
X-213950824Y-29063206D02*
X-211981209Y-29410502D01*
X-211981209Y-29410502D02*
X-212677538Y-33359581D01*
%TO.C,SW19*%
D16*
X-186475682Y22031815D02*
X-186435743Y22258321D01*
X-185940845Y25065023D02*
X-185859231Y25527882D01*
X-185280003Y25933462D02*
X-180784529Y25140789D01*
X-184949230Y21762660D02*
X-186475682Y22031815D01*
X-177661652Y20477664D02*
X-183472018Y21502188D01*
X-175205822Y22887829D02*
X-175344741Y22099983D01*
X-174710925Y25694531D02*
X-174669249Y25930885D01*
X-185859231Y25527882D02*
G75*
G02*
X-185280003Y25933462I492405J-86825D01*
G01*
X-178205550Y26554430D02*
G75*
G02*
X-180784529Y25140789I-2170169J899849D01*
G01*
X-175344741Y22099983D02*
G75*
G02*
X-177661652Y20477665I-1969618J347301D01*
G01*
%TO.C,D55*%
D11*
X35950506Y-6011375D02*
X36646835Y-9960454D01*
X35950506Y-6011375D02*
X37920121Y-5664079D01*
X37920121Y-5664079D02*
X38616450Y-9613158D01*
%TO.C,C116*%
X-75432836Y-46140000D02*
X-75217164Y-46140000D01*
X-75432836Y-46860000D02*
X-75217164Y-46860000D01*
%TO.C,LED124*%
D12*
X-80275000Y-38640000D02*
X-80275000Y-38300000D01*
X-80275000Y-40090000D02*
X-80275000Y-39910000D01*
X-80275000Y-41600000D02*
X-80275000Y-41360000D01*
X-80275000Y-41600000D02*
X-76575000Y-41600000D01*
X-76575000Y-38300000D02*
X-80275000Y-38300000D01*
X-76575000Y-38640000D02*
X-76575000Y-38300000D01*
X-76575000Y-40090000D02*
X-76575000Y-39910000D01*
X-76575000Y-41600000D02*
X-76575000Y-41360000D01*
D13*
X-81335000Y-38600000D02*
G75*
G02*
X-81395000Y-38600000I-30000J0D01*
G01*
X-81395000Y-38600000D02*
G75*
G02*
X-81335000Y-38600000I30000J0D01*
G01*
D14*
G36*
X-80837822Y-38729975D02*
G01*
X-80837822Y-38222025D01*
X-80329898Y-38222025D01*
X-80837822Y-38729975D01*
G37*
%TO.C,D79*%
D11*
X-34038683Y-47901272D02*
X-33342354Y-51850351D01*
X-34038683Y-47901272D02*
X-32069068Y-47553976D01*
X-32069068Y-47553976D02*
X-31372739Y-51503055D01*
%TO.C,SW110*%
D16*
X-61833220Y-4955520D02*
X-61914835Y-4492660D01*
X-61509255Y-3913432D02*
X-57013781Y-3120759D01*
X-61298384Y-7988728D02*
X-61338323Y-7762222D01*
X-59771932Y-7719573D02*
X-61298384Y-7988728D01*
X-52484355Y-6434577D02*
X-58294720Y-7459101D01*
X-51495851Y-523116D02*
X-51537527Y-286763D01*
X-51000954Y-3329819D02*
X-50862035Y-4117665D01*
X-61914835Y-4492660D02*
G75*
G02*
X-61509255Y-3913432I492405J86823D01*
G01*
X-55073828Y-910308D02*
G75*
G02*
X-57013781Y-3120759I-2347061J103342D01*
G01*
X-50862035Y-4117665D02*
G75*
G02*
X-52484356Y-6434573I-1969612J-347295D01*
G01*
%TO.C,D114*%
D11*
X-97075000Y-76540000D02*
X-97075000Y-80550000D01*
X-97075000Y-76540000D02*
X-95075000Y-76540000D01*
X-95075000Y-76540000D02*
X-95075000Y-80550000D01*
%TO.C,D101*%
X-53349502Y18794617D02*
X-57298581Y18098288D01*
X-53349502Y18794617D02*
X-53002206Y16825002D01*
X-53002206Y16825002D02*
X-56951285Y16128673D01*
%TO.C,SW102*%
D16*
X-159399445Y-43820367D02*
X-159359506Y-43593861D01*
X-158864608Y-40787159D02*
X-158782994Y-40324300D01*
X-158203766Y-39918720D02*
X-153708292Y-40711393D01*
X-157872993Y-44089522D02*
X-159399445Y-43820367D01*
X-150585415Y-45374518D02*
X-156395781Y-44349994D01*
X-148129585Y-42964353D02*
X-148268504Y-43752199D01*
X-147634688Y-40157651D02*
X-147593012Y-39921297D01*
X-158782994Y-40324300D02*
G75*
G02*
X-158203766Y-39918720I492405J-86825D01*
G01*
X-151129313Y-39297752D02*
G75*
G02*
X-153708292Y-40711393I-2170169J899849D01*
G01*
X-148268504Y-43752199D02*
G75*
G02*
X-150585415Y-45374517I-1969618J347301D01*
G01*
%TO.C,C105*%
D11*
X-128967164Y-37790000D02*
X-129182836Y-37790000D01*
X-128967164Y-38510000D02*
X-129182836Y-38510000D01*
%TO.C,D15*%
X-260473560Y36206983D02*
X-261169889Y32257904D01*
X-260473560Y36206983D02*
X-258503945Y35859687D01*
X-258503945Y35859687D02*
X-259200274Y31910608D01*
%TO.C,D81*%
X1572364Y-30452391D02*
X2268693Y-34401470D01*
X1572364Y-30452391D02*
X3541979Y-30105095D01*
X3541979Y-30105095D02*
X4238308Y-34054174D01*
%TO.C,D82*%
X21374839Y-33053240D02*
X22071168Y-37002319D01*
X21374839Y-33053240D02*
X23344454Y-32705944D01*
X23344454Y-32705944D02*
X24040783Y-36655023D01*
%TO.C,D73*%
X-233753301Y-31664055D02*
X-234449630Y-35613134D01*
X-233753301Y-31664055D02*
X-231783686Y-32011351D01*
X-231783686Y-32011351D02*
X-232480015Y-35960430D01*
%TO.C,C127*%
X-153474654Y-21723272D02*
X-153687049Y-21685821D01*
X-153349627Y-21014211D02*
X-153562022Y-20976760D01*
%TO.C,D87*%
X-217258822Y-47823794D02*
X-217955151Y-51772873D01*
X-217258822Y-47823794D02*
X-215289207Y-48171090D01*
X-215289207Y-48171090D02*
X-215985536Y-52120169D01*
%TO.C,D56*%
X54711095Y-2703377D02*
X55407424Y-6652456D01*
X54711095Y-2703377D02*
X56680710Y-2356081D01*
X56680710Y-2356081D02*
X57377039Y-6305160D01*
%TO.C,D94*%
X4880361Y-49212978D02*
X5576690Y-53162057D01*
X4880361Y-49212978D02*
X6849976Y-48865682D01*
X6849976Y-48865682D02*
X7546305Y-52814761D01*
%TO.C,LED106*%
D12*
X-127925000Y-28450000D02*
X-127925000Y-28690000D01*
X-127925000Y-29960000D02*
X-127925000Y-30140000D01*
X-127925000Y-31410000D02*
X-127925000Y-31750000D01*
X-127925000Y-31750000D02*
X-124225000Y-31750000D01*
X-124225000Y-28450000D02*
X-127925000Y-28450000D01*
X-124225000Y-28450000D02*
X-124225000Y-28690000D01*
X-124225000Y-29960000D02*
X-124225000Y-30140000D01*
X-124225000Y-31410000D02*
X-124225000Y-31750000D01*
D13*
X-123105000Y-31450000D02*
G75*
G02*
X-123165000Y-31450000I-30000J0D01*
G01*
X-123165000Y-31450000D02*
G75*
G02*
X-123105000Y-31450000I30000J0D01*
G01*
D14*
G36*
X-123662178Y-31827975D02*
G01*
X-124170102Y-31827975D01*
X-123662178Y-31320025D01*
X-123662178Y-31827975D01*
G37*
%TO.C,C8*%
D11*
X-137155271Y14495303D02*
X-137117820Y14707698D01*
X-136446210Y14370276D02*
X-136408759Y14582671D01*
%TO.C,D89*%
X-181647776Y-65272674D02*
X-182344105Y-69221753D01*
X-181647776Y-65272674D02*
X-179678161Y-65619970D01*
X-179678161Y-65619970D02*
X-180374490Y-69569049D01*
%TO.C,LED129*%
D12*
X-56429689Y-18238790D02*
X-56488729Y-17903955D01*
X-56177899Y-19666761D02*
X-56209156Y-19489495D01*
X-55915690Y-21153822D02*
X-55957366Y-20917467D01*
X-55915690Y-21153822D02*
X-52271902Y-20511322D01*
X-52844941Y-17261457D02*
X-56488729Y-17903955D01*
X-52785900Y-17596291D02*
X-52844941Y-17261457D01*
X-52534110Y-19024263D02*
X-52565367Y-18846997D01*
X-52271902Y-20511322D02*
X-52313577Y-20274968D01*
D13*
X-57480075Y-18388674D02*
G75*
G02*
X-57540075Y-18388674I-30000J0D01*
G01*
X-57540075Y-18388674D02*
G75*
G02*
X-57480075Y-18388674I30000J0D01*
G01*
D14*
G36*
X-56968336Y-18425131D02*
G01*
X-57056541Y-17924898D01*
X-56556333Y-17836698D01*
X-56968336Y-18425131D01*
G37*
%TO.C,C2*%
D11*
X-152283387Y18248377D02*
X-152530403Y16847484D01*
X-150491037Y17932338D02*
X-150738053Y16531445D01*
%TO.C,SW73*%
D16*
X-236881552Y-44424925D02*
X-236841613Y-44198419D01*
X-236346715Y-41391717D02*
X-236265101Y-40928858D01*
X-235685873Y-40523278D02*
X-231190399Y-41315951D01*
X-235355100Y-44694080D02*
X-236881552Y-44424925D01*
X-228067522Y-45979076D02*
X-233877888Y-44954552D01*
X-225611692Y-43568911D02*
X-225750611Y-44356757D01*
X-225116795Y-40762209D02*
X-225075119Y-40525855D01*
X-236265101Y-40928858D02*
G75*
G02*
X-235685873Y-40523278I492405J-86825D01*
G01*
X-228611420Y-39902310D02*
G75*
G02*
X-231190399Y-41315951I-2170169J899849D01*
G01*
X-225750611Y-44356757D02*
G75*
G02*
X-228067522Y-45979075I-1969618J347301D01*
G01*
%TD*%
%LPC*%
D18*
%TO.C,H112*%
X-216600000Y-12200000D03*
%TD*%
%TO.C,H111*%
X11000000Y-6200000D03*
%TD*%
%TO.C,H110*%
X55300000Y-38100000D03*
%TD*%
%TO.C,H109*%
X45400000Y18200000D03*
%TD*%
%TO.C,H108*%
X-18000000Y-61200000D03*
%TD*%
%TO.C,H107*%
X-31700000Y16800000D03*
%TD*%
%TO.C,H106*%
X-102300000Y-73100000D03*
%TD*%
%TO.C,H105*%
X-102200000Y-35000000D03*
%TD*%
%TO.C,H104*%
X-186500000Y-61200000D03*
%TD*%
%TO.C,H103*%
X-172800000Y16800000D03*
%TD*%
%TO.C,H102*%
X-259900000Y-38100000D03*
%TD*%
D19*
%TO.C,R34*%
X-85300000Y8875000D03*
X-85300000Y10525000D03*
%TD*%
D20*
%TO.C,R33*%
X-82625000Y2600000D03*
X-80975000Y2600000D03*
%TD*%
D21*
%TO.C,J104*%
X-69200874Y35906100D03*
X-66814503Y33889858D03*
X-65859438Y28473415D03*
%TD*%
%TO.C,J102*%
X-79984518Y34004653D03*
X-77598147Y31988411D03*
X-76643082Y26571968D03*
%TD*%
%TO.C,J101*%
X-144507079Y37529711D03*
X-142954219Y34818876D03*
X-143909284Y29402433D03*
%TD*%
%TO.C,J105*%
X-122939790Y33726816D03*
X-121386930Y31015981D03*
X-122341995Y25599538D03*
%TD*%
%TO.C,J103*%
X-58417229Y37807548D03*
X-56030858Y35791306D03*
X-55075793Y30374863D03*
%TD*%
%TO.C,J106*%
X-133723434Y35628263D03*
X-132170574Y32917428D03*
X-133125639Y27500985D03*
%TD*%
D22*
%TO.C,LED125*%
X-81125000Y-29320000D03*
X-81125000Y-30780000D03*
X-75725000Y-30780000D03*
X-75725000Y-29320000D03*
%TD*%
%TO.C,LED114*%
X-123375000Y-83380000D03*
X-123375000Y-81920000D03*
X-128775000Y-81920000D03*
X-128775000Y-83380000D03*
%TD*%
D23*
%TO.C,C101*%
X-139930190Y-16272433D03*
X-139447448Y-13534667D03*
%TD*%
D24*
%TO.C,SW47*%
X-192131421Y-8804327D03*
D25*
X-187128598Y-9686460D03*
D24*
X-182125775Y-10568593D03*
D26*
X-183817547Y-12849471D03*
D27*
X-180321479Y-13465922D03*
X-194008210Y-13631766D03*
D26*
X-190512142Y-14248217D03*
%TD*%
D24*
%TO.C,SW16*%
X-243880966Y26823149D03*
D25*
X-238878143Y25941016D03*
D24*
X-233875320Y25058883D03*
D26*
X-235567092Y22778005D03*
D27*
X-232071024Y22161554D03*
X-245757755Y21995710D03*
D26*
X-242261687Y21379259D03*
%TD*%
D28*
%TO.C,C140*%
X-78215000Y-14640000D03*
X-75435000Y-14640000D03*
%TD*%
D24*
%TO.C,SW58*%
X-253804960Y-29458614D03*
D25*
X-248802137Y-30340747D03*
D24*
X-243799314Y-31222880D03*
D26*
X-245491086Y-33503758D03*
D27*
X-241995018Y-34120209D03*
X-255681749Y-34286053D03*
D26*
X-252185681Y-34902504D03*
%TD*%
D29*
%TO.C,D108*%
X-115075000Y-20250000D03*
X-115075000Y-23550000D03*
%TD*%
D24*
%TO.C,SW79*%
X-33997873Y-54352189D03*
D25*
X-28995050Y-53470056D03*
D24*
X-23992227Y-52587923D03*
D26*
X-24801866Y-55309868D03*
D30*
X-21305799Y-54693417D03*
X-34110396Y-59530397D03*
D26*
X-30614329Y-58913946D03*
%TD*%
D31*
%TO.C,C104*%
X-139481955Y-19489137D03*
X-139315253Y-18543721D03*
%TD*%
D32*
%TO.C,R105*%
X-67021829Y21820495D03*
X-66735309Y20195563D03*
%TD*%
D24*
%TO.C,SW29*%
X-265949552Y11370558D03*
D25*
X-260946729Y10488425D03*
D24*
X-255943906Y9606292D03*
D26*
X-257635678Y7325414D03*
D27*
X-254139610Y6708963D03*
X-267826341Y6543119D03*
D26*
X-264330273Y5926668D03*
%TD*%
D33*
%TO.C,D58*%
X-250775448Y-24255639D03*
X-251348486Y-27505505D03*
%TD*%
D34*
%TO.C,C137*%
X-128595000Y-66200000D03*
X-129555000Y-66200000D03*
%TD*%
D33*
%TO.C,D102*%
X-148514176Y5590305D03*
X-149087214Y2340439D03*
%TD*%
D35*
%TO.C,D39*%
X-7243533Y25303807D03*
X-6670495Y22053941D03*
%TD*%
D33*
%TO.C,D86*%
X-236199782Y-51297503D03*
X-236772820Y-54547369D03*
%TD*%
D29*
%TO.C,D111*%
X-96075000Y-20250000D03*
X-96075000Y-23550000D03*
%TD*%
D24*
%TO.C,SW87*%
X-219426816Y-53899630D03*
D25*
X-214423993Y-54781763D03*
D24*
X-209421170Y-55663896D03*
D26*
X-211112942Y-57944774D03*
D27*
X-207616874Y-58561225D03*
X-221303605Y-58727069D03*
D26*
X-217807537Y-59343520D03*
%TD*%
D33*
%TO.C,D32*%
X-203165314Y26345696D03*
X-203738352Y23095830D03*
%TD*%
D36*
%TO.C,C132*%
X-64987414Y15350474D03*
X-65932830Y15183772D03*
%TD*%
D24*
%TO.C,SW55*%
X35991316Y-12462292D03*
D25*
X40994139Y-11580159D03*
D24*
X45996962Y-10698026D03*
D26*
X45187323Y-13419971D03*
D30*
X48683390Y-12803520D03*
X35878793Y-17640500D03*
D26*
X39374860Y-17024049D03*
%TD*%
D33*
%TO.C,D90*%
X-162025672Y-69453534D03*
X-162598710Y-72703400D03*
%TD*%
D24*
%TO.C,SW108*%
X-97805000Y-44550000D03*
D25*
X-92725000Y-44550000D03*
D24*
X-87645000Y-44550000D03*
D26*
X-88915000Y-47090000D03*
D37*
X-85365000Y-47090000D03*
X-98815000Y-49630000D03*
D26*
X-95265000Y-49630000D03*
%TD*%
D24*
%TO.C,SW17*%
X-222689304Y37302460D03*
D25*
X-217686481Y36420327D03*
D24*
X-212683658Y35538194D03*
D26*
X-214375430Y33257316D03*
D27*
X-210879362Y32640865D03*
X-224566093Y32475021D03*
D26*
X-221070025Y31858570D03*
%TD*%
D35*
%TO.C,D23*%
X-46162576Y26615515D03*
X-45589538Y23365649D03*
%TD*%
D24*
%TO.C,SW84*%
X61367899Y-46675470D03*
D25*
X66370722Y-45793337D03*
D24*
X71373545Y-44911204D03*
D26*
X70563906Y-47633149D03*
D30*
X74059973Y-47016698D03*
X61255376Y-51853678D03*
D26*
X64751443Y-51237227D03*
%TD*%
D38*
%TO.C,C121*%
X-75805000Y-84600000D03*
X-74845000Y-84600000D03*
%TD*%
D32*
%TO.C,R106*%
X-55610843Y25634942D03*
X-55324323Y24010010D03*
%TD*%
D35*
%TO.C,D80*%
X-14690942Y-42164416D03*
X-14117904Y-45414282D03*
%TD*%
D34*
%TO.C,C136*%
X-128595000Y-80700000D03*
X-129555000Y-80700000D03*
%TD*%
D24*
%TO.C,SW53*%
X-5002823Y617867D03*
D25*
X0Y1500000D03*
D24*
X5002823Y2382133D03*
D26*
X4193184Y-339812D03*
D30*
X7689251Y276639D03*
X-5115346Y-4560341D03*
D26*
X-1619279Y-3943890D03*
%TD*%
D35*
%TO.C,D51*%
X-39546579Y-10905661D03*
X-38973541Y-14155527D03*
%TD*%
D24*
%TO.C,SW30*%
X-247188964Y8062561D03*
D25*
X-242186141Y7180428D03*
D24*
X-237183318Y6298295D03*
D26*
X-238875090Y4017417D03*
D27*
X-235379022Y3400966D03*
X-249065753Y3235122D03*
D26*
X-245569685Y2618671D03*
%TD*%
D24*
%TO.C,SW31*%
X-225997302Y18541872D03*
D25*
X-220994479Y17659739D03*
D24*
X-215991656Y16777606D03*
D26*
X-217683428Y14496728D03*
D27*
X-214187360Y13880277D03*
X-227874091Y13714433D03*
D26*
X-224378023Y13097982D03*
%TD*%
D39*
%TO.C,IC102*%
X-79494879Y14239399D03*
X-79659845Y15174967D03*
X-79824810Y16110534D03*
X-77362791Y16544655D03*
X-77197825Y15609087D03*
X-77032860Y14673520D03*
%TD*%
D33*
%TO.C,D47*%
X-189101909Y-3601351D03*
X-189674947Y-6851217D03*
%TD*%
D40*
%TO.C,LED101*%
X-146806050Y-15963763D03*
X-146552524Y-14525943D03*
X-151870486Y-13588243D03*
X-152124012Y-15026063D03*
%TD*%
D33*
%TO.C,D19*%
X-182485914Y33919824D03*
X-183058952Y30669958D03*
%TD*%
D24*
%TO.C,SW74*%
X-216118819Y-35139042D03*
D25*
X-211115996Y-36021175D03*
D24*
X-206113173Y-36903308D03*
D26*
X-207804945Y-39184186D03*
D27*
X-204308877Y-39800637D03*
X-217995608Y-39966481D03*
D26*
X-214499540Y-40582932D03*
%TD*%
D35*
%TO.C,D25*%
X-10770258Y43721199D03*
X-10197220Y40471333D03*
%TD*%
D24*
%TO.C,SW106*%
X-116855000Y-25500000D03*
D25*
X-111775000Y-25500000D03*
D24*
X-106695000Y-25500000D03*
D26*
X-107965000Y-28040000D03*
D37*
X-104415000Y-28040000D03*
X-117865000Y-30580000D03*
D26*
X-114315000Y-30580000D03*
%TD*%
D28*
%TO.C,C142*%
X-125935000Y-16820000D03*
X-128715000Y-16820000D03*
%TD*%
D24*
%TO.C,SW83*%
X42607312Y-49983468D03*
D25*
X47610135Y-49101335D03*
D24*
X52612958Y-48219202D03*
D26*
X51803319Y-50941147D03*
D30*
X55299386Y-50324696D03*
X42494789Y-55161676D03*
D26*
X45990856Y-54545225D03*
%TD*%
D33*
%TO.C,D17*%
X-219659793Y42505435D03*
X-220232831Y39255569D03*
%TD*%
D41*
%TO.C,C125*%
X-151482796Y-12570097D03*
X-152428212Y-12403395D03*
%TD*%
D36*
%TO.C,C130*%
X-75815958Y13415723D03*
X-76761374Y13249021D03*
%TD*%
D38*
%TO.C,C117*%
X-75805000Y-22900000D03*
X-74845000Y-22900000D03*
%TD*%
D42*
%TO.C,C128*%
X-52267543Y-16245761D03*
X-51322127Y-16079059D03*
%TD*%
D24*
%TO.C,SW105*%
X-116855000Y-44550000D03*
D25*
X-111775000Y-44550000D03*
D24*
X-106695000Y-44550000D03*
D26*
X-107965000Y-47090000D03*
D37*
X-104415000Y-47090000D03*
X-117865000Y-49630000D03*
D26*
X-114315000Y-49630000D03*
%TD*%
D24*
%TO.C,SW86*%
X-239229293Y-56500479D03*
D25*
X-234226470Y-57382612D03*
D24*
X-229223647Y-58264745D03*
D26*
X-230915419Y-60545623D03*
D27*
X-227419351Y-61162074D03*
X-241106082Y-61327918D03*
D26*
X-237610014Y-61944369D03*
%TD*%
D41*
%TO.C,C126*%
X-152264213Y-17001732D03*
X-153209629Y-16835030D03*
%TD*%
D43*
%TO.C,C10*%
X-146567201Y18071839D03*
X-146733903Y17126423D03*
%TD*%
D32*
%TO.C,R103*%
X-76178501Y20193996D03*
X-75891981Y18569064D03*
%TD*%
D38*
%TO.C,C118*%
X-75805000Y-32000000D03*
X-74845000Y-32000000D03*
%TD*%
D24*
%TO.C,SW101*%
X-151823192Y385842D03*
D25*
X-146820369Y-496291D03*
D24*
X-141817546Y-1378424D03*
D26*
X-143509318Y-3659302D03*
D27*
X-140013250Y-4275753D03*
X-153699981Y-4441597D03*
D26*
X-150203913Y-5058048D03*
%TD*%
D44*
%TO.C,IC3*%
X-145592229Y13237695D03*
X-145190859Y15513980D03*
X-144789488Y17790264D03*
D45*
X-138887301Y14402492D03*
%TD*%
D29*
%TO.C,D109*%
X-96075000Y-58250000D03*
X-96075000Y-61550000D03*
%TD*%
D32*
%TO.C,R102*%
X-77852674Y19898794D03*
X-77566154Y18273862D03*
%TD*%
D46*
%TO.C,TP2*%
X-133726498Y16031070D03*
%TD*%
D34*
%TO.C,C108*%
X-128595000Y-19150000D03*
X-129555000Y-19150000D03*
%TD*%
D22*
%TO.C,LED123*%
X-81125000Y-43820000D03*
X-81125000Y-45280000D03*
X-75725000Y-45280000D03*
X-75725000Y-43820000D03*
%TD*%
D33*
%TO.C,D45*%
X-226275788Y4984260D03*
X-226848826Y1734394D03*
%TD*%
D22*
%TO.C,LED127*%
X-81125000Y-20220000D03*
X-81125000Y-21680000D03*
X-75725000Y-21680000D03*
X-75725000Y-20220000D03*
%TD*%
D38*
%TO.C,C113*%
X-75805000Y-65600000D03*
X-74845000Y-65600000D03*
%TD*%
D24*
%TO.C,SW95*%
X24723647Y-58264745D03*
D25*
X29726470Y-57382612D03*
D24*
X34729293Y-56500479D03*
D26*
X33919654Y-59222424D03*
D30*
X37415721Y-58605973D03*
X24611124Y-63442953D03*
D26*
X28107191Y-62826502D03*
%TD*%
D22*
%TO.C,LED109*%
X-123375000Y-49830000D03*
X-123375000Y-48370000D03*
X-128775000Y-48370000D03*
X-128775000Y-49830000D03*
%TD*%
D24*
%TO.C,SW54*%
X14799654Y-1982982D03*
D25*
X19802477Y-1100849D03*
D24*
X24805300Y-218716D03*
D26*
X23995661Y-2940661D03*
D30*
X27491728Y-2324210D03*
X14687131Y-7161190D03*
D26*
X18183198Y-6544739D03*
%TD*%
D47*
%TO.C,C143*%
X-61665210Y-24107080D03*
X-61182468Y-26844846D03*
%TD*%
D35*
%TO.C,D54*%
X15866943Y3942371D03*
X16439981Y692505D03*
%TD*%
%TO.C,D37*%
X-42854577Y7854926D03*
X-42281539Y4605060D03*
%TD*%
D33*
%TO.C,D59*%
X-229583786Y-13776328D03*
X-230156824Y-17026194D03*
%TD*%
D35*
%TO.C,D66*%
X-17998938Y-23403828D03*
X-17425900Y-26653694D03*
%TD*%
D24*
%TO.C,SW46*%
X-209502823Y2382133D03*
D25*
X-204500000Y1500000D03*
D24*
X-199497177Y617867D03*
D26*
X-201188949Y-1663011D03*
D27*
X-197692881Y-2279462D03*
X-211379612Y-2445306D03*
D26*
X-207883544Y-3061757D03*
%TD*%
D33*
%TO.C,D72*%
X-254083446Y-43016226D03*
X-254656484Y-46266092D03*
%TD*%
D38*
%TO.C,C115*%
X-75805000Y-51100000D03*
X-74845000Y-51100000D03*
%TD*%
D48*
%TO.C,IC12*%
X-121855575Y18568251D03*
X-122076108Y17317545D03*
X-122296641Y16066839D03*
X-122517174Y14816133D03*
X-127858771Y15758001D03*
X-127638238Y17008707D03*
X-127417705Y18259413D03*
X-127197172Y19510119D03*
%TD*%
D24*
%TO.C,SW43*%
X-269257550Y-7390029D03*
D25*
X-264254727Y-8272162D03*
D24*
X-259251904Y-9154295D03*
D26*
X-260943676Y-11435173D03*
D27*
X-257447608Y-12051624D03*
X-271134339Y-12217468D03*
D26*
X-267638271Y-12833919D03*
%TD*%
D28*
%TO.C,C141*%
X-125935000Y-14650000D03*
X-128715000Y-14650000D03*
%TD*%
D34*
%TO.C,C107*%
X-128595000Y-47400000D03*
X-129555000Y-47400000D03*
%TD*%
D24*
%TO.C,SW65*%
X-37305871Y-35591602D03*
D25*
X-32303048Y-34709469D03*
D24*
X-27300225Y-33827336D03*
D26*
X-28109864Y-36549281D03*
D30*
X-24613797Y-35932830D03*
X-37418394Y-40769810D03*
D26*
X-33922327Y-40153359D03*
%TD*%
D24*
%TO.C,SW60*%
X-212810821Y-16378455D03*
D25*
X-207807998Y-17260588D03*
D24*
X-202805175Y-18142721D03*
D26*
X-204496947Y-20423599D03*
D27*
X-201000879Y-21040050D03*
X-214687610Y-21205894D03*
D26*
X-211191542Y-21822345D03*
%TD*%
D33*
%TO.C,D46*%
X-206473312Y7585109D03*
X-207046350Y4335243D03*
%TD*%
D29*
%TO.C,D110*%
X-96075000Y-39250000D03*
X-96075000Y-42550000D03*
%TD*%
D24*
%TO.C,SW107*%
X-97805000Y-63600000D03*
D25*
X-92725000Y-63600000D03*
D24*
X-87645000Y-63600000D03*
D26*
X-88915000Y-66140000D03*
D37*
X-85365000Y-66140000D03*
X-98815000Y-68680000D03*
D26*
X-95265000Y-68680000D03*
%TD*%
D42*
%TO.C,C110*%
X-50687344Y-25207512D03*
X-49741928Y-25040810D03*
%TD*%
D24*
%TO.C,SW104*%
X-116855000Y-63600000D03*
D25*
X-111775000Y-63600000D03*
D24*
X-106695000Y-63600000D03*
D26*
X-107965000Y-66140000D03*
D37*
X-104415000Y-66140000D03*
X-117865000Y-68680000D03*
D26*
X-114315000Y-68680000D03*
%TD*%
D29*
%TO.C,D105*%
X-115075000Y-77250000D03*
X-115075000Y-80550000D03*
%TD*%
D33*
%TO.C,D48*%
X-170862266Y-9863772D03*
X-171435304Y-13113638D03*
%TD*%
D24*
%TO.C,SW111*%
X-56066458Y-38899599D03*
D25*
X-51063635Y-38017466D03*
D24*
X-46060812Y-37135333D03*
D26*
X-46870451Y-39857278D03*
D30*
X-43374384Y-39240827D03*
X-56178981Y-44077807D03*
D26*
X-52682914Y-43461356D03*
%TD*%
D24*
%TO.C,SW41*%
X32683318Y6298295D03*
D25*
X37686141Y7180428D03*
D24*
X42688964Y8062561D03*
D26*
X41879325Y5340616D03*
D30*
X45375392Y5957067D03*
X32570795Y1120087D03*
D26*
X36066862Y1736538D03*
%TD*%
D24*
%TO.C,SW109*%
X-97805000Y-25500000D03*
D25*
X-92725000Y-25500000D03*
D24*
X-87645000Y-25500000D03*
D26*
X-88915000Y-28040000D03*
D37*
X-85365000Y-28040000D03*
X-98815000Y-30580000D03*
D26*
X-95265000Y-30580000D03*
%TD*%
D24*
%TO.C,SW28*%
X48135908Y28366881D03*
D25*
X53138731Y29249014D03*
D24*
X58141554Y30131147D03*
D26*
X57331915Y27409202D03*
D30*
X60827982Y28025653D03*
X48023385Y23188673D03*
D26*
X51519452Y23805124D03*
%TD*%
D24*
%TO.C,SW38*%
X-25682223Y8191995D03*
D25*
X-20679400Y9074128D03*
D24*
X-15676577Y9956261D03*
D26*
X-16486216Y7234316D03*
D30*
X-12990149Y7850767D03*
X-25794746Y3013787D03*
D26*
X-22298679Y3630238D03*
%TD*%
D34*
%TO.C,C124*%
X-128595000Y-23650000D03*
X-129555000Y-23650000D03*
%TD*%
D24*
%TO.C,SW42*%
X51443906Y9606293D03*
D25*
X56446729Y10488426D03*
D24*
X61449552Y11370559D03*
D26*
X60639913Y8648614D03*
D30*
X64135980Y9265065D03*
X51331383Y4428085D03*
D26*
X54827450Y5044536D03*
%TD*%
D24*
%TO.C,SW45*%
X-229305300Y-218716D03*
D25*
X-224302477Y-1100849D03*
D24*
X-219299654Y-1982982D03*
D26*
X-220991426Y-4263860D03*
D27*
X-217495358Y-4880311D03*
X-231182089Y-5046155D03*
D26*
X-227686021Y-5662606D03*
%TD*%
D24*
%TO.C,SW23*%
X-47229864Y20690162D03*
D25*
X-42227041Y21572295D03*
D24*
X-37224218Y22454428D03*
D26*
X-38033857Y19732483D03*
D30*
X-34537790Y20348934D03*
X-47342387Y15511954D03*
D26*
X-43846320Y16128405D03*
%TD*%
D24*
%TO.C,SW59*%
X-232613298Y-18979303D03*
D25*
X-227610475Y-19861436D03*
D24*
X-222607652Y-20743569D03*
D26*
X-224299424Y-23024447D03*
D27*
X-220803356Y-23640898D03*
X-234490087Y-23806742D03*
D26*
X-230994019Y-24423193D03*
%TD*%
D22*
%TO.C,LED111*%
X-123375000Y-64330000D03*
X-123375000Y-62870000D03*
X-128775000Y-62870000D03*
X-128775000Y-64330000D03*
%TD*%
D49*
%TO.C,IC101*%
X-141425902Y-20435958D03*
X-142361469Y-20270993D03*
X-143297037Y-20106027D03*
X-142862916Y-17644008D03*
X-141927349Y-17808973D03*
X-140991781Y-17973939D03*
%TD*%
D50*
%TO.C,C131*%
X-70416544Y16886044D03*
X-70249842Y15940628D03*
%TD*%
D35*
%TO.C,D69*%
X40366603Y-25297528D03*
X40939641Y-28547394D03*
%TD*%
D33*
%TO.C,D44*%
X-247467451Y-5495051D03*
X-248040489Y-8744917D03*
%TD*%
D22*
%TO.C,LED110*%
X-123375000Y-59780000D03*
X-123375000Y-58320000D03*
X-128775000Y-58320000D03*
X-128775000Y-59780000D03*
%TD*%
D51*
%TO.C,LED130*%
X-57947476Y-14525943D03*
X-57693950Y-15963763D03*
X-52375988Y-15026063D03*
X-52629514Y-13588243D03*
%TD*%
D31*
%TO.C,C103*%
X-139829251Y-21458753D03*
X-139662549Y-20513337D03*
%TD*%
D22*
%TO.C,LED117*%
X-81125000Y-81920000D03*
X-81125000Y-83380000D03*
X-75725000Y-83380000D03*
X-75725000Y-81920000D03*
%TD*%
D24*
%TO.C,SW27*%
X29375320Y25058883D03*
D25*
X34378143Y25941016D03*
D24*
X39380966Y26823149D03*
D26*
X38571327Y24101204D03*
D30*
X42067394Y24717655D03*
X29262797Y19880675D03*
D26*
X32758864Y20497126D03*
%TD*%
D52*
%TO.C,R24*%
X-129108644Y19974091D03*
X-130733576Y20260611D03*
%TD*%
D24*
%TO.C,SW40*%
X11491656Y16777606D03*
D25*
X16494479Y17659739D03*
D24*
X21497302Y18541872D03*
D26*
X20687663Y15819927D03*
D30*
X24183730Y16436378D03*
X11379133Y11599398D03*
D26*
X14875200Y12215849D03*
%TD*%
D35*
%TO.C,D41*%
X33750606Y12223648D03*
X34323644Y8973782D03*
%TD*%
%TO.C,D67*%
X-627536Y-12217368D03*
X-54498Y-15467234D03*
%TD*%
D34*
%TO.C,C138*%
X-128595000Y-76200000D03*
X-129555000Y-76200000D03*
%TD*%
D24*
%TO.C,SW72*%
X-257112958Y-48219202D03*
D25*
X-252110135Y-49101335D03*
D24*
X-247107312Y-49983468D03*
D26*
X-248799084Y-52264346D03*
D27*
X-245303016Y-52880797D03*
X-258989747Y-53046641D03*
D26*
X-255493679Y-53663092D03*
%TD*%
D24*
%TO.C,SW112*%
X-97805000Y-82650000D03*
D25*
X-92725000Y-82650000D03*
D24*
X-87645000Y-82650000D03*
D26*
X-88915000Y-85190000D03*
D37*
X-85365000Y-85190000D03*
X-98815000Y-87730000D03*
D26*
X-95265000Y-87730000D03*
%TD*%
D24*
%TO.C,SW75*%
X-198747416Y-46325502D03*
D25*
X-193744593Y-47207635D03*
D24*
X-188741770Y-48089768D03*
D26*
X-190433542Y-50370646D03*
D27*
X-186937474Y-50987097D03*
X-200624205Y-51152941D03*
D26*
X-197128137Y-51769392D03*
%TD*%
D53*
%TO.C,C1*%
X-134164959Y13544430D03*
X-134677221Y10639248D03*
%TD*%
D24*
%TO.C,SW82*%
X21415649Y-39504157D03*
D25*
X26418472Y-38622024D03*
D24*
X31421295Y-37739891D03*
D26*
X30611656Y-40461836D03*
D30*
X34107723Y-39845385D03*
X21303126Y-44682365D03*
D26*
X24799193Y-44065914D03*
%TD*%
D35*
%TO.C,D28*%
X49203196Y34292233D03*
X49776234Y31042367D03*
%TD*%
D24*
%TO.C,SW15*%
X-262641554Y30131147D03*
D25*
X-257638731Y29249014D03*
D24*
X-252635908Y28366881D03*
D26*
X-254327680Y26086003D03*
D27*
X-250831612Y25469552D03*
X-264518343Y25303708D03*
D26*
X-261022275Y24687257D03*
%TD*%
D32*
%TO.C,R107*%
X-65347656Y22115697D03*
X-65061136Y20490765D03*
%TD*%
D35*
%TO.C,D70*%
X59127189Y-21989530D03*
X59700227Y-25239396D03*
%TD*%
D24*
%TO.C,SW32*%
X-206194825Y21142721D03*
D25*
X-201192002Y20260588D03*
D24*
X-196189179Y19378455D03*
D26*
X-197880951Y17097577D03*
D27*
X-194384883Y16481126D03*
X-208071614Y16315282D03*
D26*
X-204575546Y15698831D03*
%TD*%
D22*
%TO.C,LED122*%
X-81125000Y-48370000D03*
X-81125000Y-49830000D03*
X-75725000Y-49830000D03*
X-75725000Y-48370000D03*
%TD*%
%TO.C,LED116*%
X-81125000Y-86470000D03*
X-81125000Y-87930000D03*
X-75725000Y-87930000D03*
X-75725000Y-86470000D03*
%TD*%
D24*
%TO.C,SW68*%
X18107652Y-20743569D03*
D25*
X23110475Y-19861436D03*
D24*
X28113298Y-18979303D03*
D26*
X27303659Y-21701248D03*
D30*
X30799726Y-21084797D03*
X17995129Y-25921777D03*
D26*
X21491196Y-25305326D03*
%TD*%
D33*
%TO.C,D30*%
X-244159453Y13265537D03*
X-244732491Y10015671D03*
%TD*%
D38*
%TO.C,C114*%
X-75805000Y-61100000D03*
X-74845000Y-61100000D03*
%TD*%
D54*
%TO.C,Q1*%
X-87062500Y33150000D03*
X-87062500Y31250000D03*
X-88937500Y32200000D03*
%TD*%
D23*
%TO.C,C102*%
X-142255597Y-15862401D03*
X-141772855Y-13124635D03*
%TD*%
D38*
%TO.C,C122*%
X-75805000Y-80100000D03*
X-74845000Y-80100000D03*
%TD*%
D34*
%TO.C,C134*%
X-128595000Y-85300000D03*
X-129555000Y-85300000D03*
%TD*%
%TO.C,C106*%
X-128595000Y-42650000D03*
X-129555000Y-42650000D03*
%TD*%
D24*
%TO.C,SW93*%
X-12450232Y-66850356D03*
D25*
X-7447409Y-65968223D03*
D24*
X-2444586Y-65086090D03*
D26*
X-3254225Y-67808035D03*
D30*
X241842Y-67191584D03*
X-12562755Y-72028564D03*
D26*
X-9066688Y-71412113D03*
%TD*%
D24*
%TO.C,SW34*%
X-170583780Y3693840D03*
D25*
X-165580957Y2811707D03*
D24*
X-160578134Y1929574D03*
D26*
X-162269906Y-351304D03*
D27*
X-158773838Y-967755D03*
X-172460569Y-1133599D03*
D26*
X-168964501Y-1750050D03*
%TD*%
D35*
%TO.C,D68*%
X19174941Y-14818217D03*
X19747979Y-18068083D03*
%TD*%
D24*
%TO.C,SW103*%
X-116855000Y-82650000D03*
D25*
X-111775000Y-82650000D03*
D24*
X-106695000Y-82650000D03*
D26*
X-107965000Y-85190000D03*
D37*
X-104415000Y-85190000D03*
X-117865000Y-87730000D03*
D26*
X-114315000Y-87730000D03*
%TD*%
D33*
%TO.C,D34*%
X-167554268Y8896815D03*
X-168127306Y5646949D03*
%TD*%
D35*
%TO.C,D65*%
X-36238582Y-29666249D03*
X-35665544Y-32916115D03*
%TD*%
D33*
%TO.C,D88*%
X-199025903Y-59883114D03*
X-199598941Y-63132980D03*
%TD*%
%TO.C,D57*%
X-269536036Y-20947641D03*
X-270109074Y-24197507D03*
%TD*%
D24*
%TO.C,SW88*%
X-202055414Y-65086090D03*
D25*
X-197052591Y-65968223D03*
D24*
X-192049768Y-66850356D03*
D26*
X-193741540Y-69131234D03*
D27*
X-190245472Y-69747685D03*
X-203932203Y-69913529D03*
D26*
X-200436135Y-70529980D03*
%TD*%
D33*
%TO.C,D16*%
X-240851455Y32026124D03*
X-241424493Y28776258D03*
%TD*%
D55*
%TO.C,C129*%
X-81016649Y13027292D03*
X-81183351Y13972708D03*
%TD*%
D24*
%TO.C,SW67*%
X-1694825Y-18142721D03*
D25*
X3307998Y-17260588D03*
D24*
X8310821Y-16378455D03*
D26*
X7501182Y-19100400D03*
D30*
X10997249Y-18483949D03*
X-1807348Y-23320929D03*
D26*
X1688719Y-22704478D03*
%TD*%
D34*
%TO.C,C135*%
X-128595000Y-57100000D03*
X-129555000Y-57100000D03*
%TD*%
D33*
%TO.C,D31*%
X-222967791Y23744848D03*
X-223540829Y20494982D03*
%TD*%
D38*
%TO.C,C119*%
X-75805000Y-70100000D03*
X-74845000Y-70100000D03*
%TD*%
D24*
%TO.C,SW39*%
X-8310821Y19378455D03*
D25*
X-3307998Y20260588D03*
D24*
X1694825Y21142721D03*
D26*
X885186Y18420776D03*
D30*
X4381253Y19037227D03*
X-8423344Y14200247D03*
D26*
X-4927277Y14816698D03*
%TD*%
D33*
%TO.C,D61*%
X-192409907Y-22361939D03*
X-192982945Y-25611805D03*
%TD*%
D22*
%TO.C,LED120*%
X-81125000Y-62870000D03*
X-81125000Y-64330000D03*
X-75725000Y-64330000D03*
X-75725000Y-62870000D03*
%TD*%
D24*
%TO.C,SW70*%
X58059902Y-27914882D03*
D25*
X63062725Y-27032749D03*
D24*
X68065548Y-26150616D03*
D26*
X67255909Y-28872561D03*
D30*
X70751976Y-28256110D03*
X57947379Y-33093090D03*
D26*
X61443446Y-32476639D03*
%TD*%
D56*
%TO.C,R101*%
X-144205791Y-14894042D03*
X-144492311Y-16518974D03*
%TD*%
D35*
%TO.C,D40*%
X12558944Y22702958D03*
X13131982Y19453092D03*
%TD*%
D24*
%TO.C,SW52*%
X-22374225Y-10568593D03*
D25*
X-17371402Y-9686460D03*
D24*
X-12368579Y-8804327D03*
D26*
X-13178218Y-11526272D03*
D30*
X-9682151Y-10909821D03*
X-22486748Y-15746801D03*
D26*
X-18990681Y-15130350D03*
%TD*%
D33*
%TO.C,D76*%
X-177478262Y-47384948D03*
X-178051300Y-50634814D03*
%TD*%
D24*
%TO.C,SW33*%
X-188823423Y9956261D03*
D25*
X-183820600Y9074128D03*
D24*
X-178817777Y8191995D03*
D26*
X-180509549Y5911117D03*
D27*
X-177013481Y5294666D03*
X-190700212Y5128822D03*
D26*
X-187204144Y4512371D03*
%TD*%
D51*
%TO.C,LED128*%
X-56367278Y-23487694D03*
X-56113752Y-24925514D03*
X-50795790Y-23987814D03*
X-51049316Y-22549994D03*
%TD*%
D38*
%TO.C,C111*%
X-75805000Y-27400000D03*
X-74845000Y-27400000D03*
%TD*%
D47*
%TO.C,C144*%
X-59444469Y-23715504D03*
X-58961727Y-26453270D03*
%TD*%
D35*
%TO.C,D84*%
X62435187Y-40750118D03*
X63008225Y-43999984D03*
%TD*%
D24*
%TO.C,SW56*%
X54751904Y-9154295D03*
D25*
X59754727Y-8272162D03*
D24*
X64757550Y-7390029D03*
D26*
X63947911Y-10111974D03*
D30*
X67443978Y-9495523D03*
X54639381Y-14332503D03*
D26*
X58135448Y-13716052D03*
%TD*%
D39*
%TO.C,IC104*%
X-68617095Y16182831D03*
X-68782061Y17118399D03*
X-68947026Y18053966D03*
X-66485007Y18488087D03*
X-66320041Y17552519D03*
X-66155076Y16616952D03*
%TD*%
D24*
%TO.C,SW57*%
X-272565547Y-26150616D03*
D25*
X-267562724Y-27032749D03*
D24*
X-262559901Y-27914882D03*
D26*
X-264251673Y-30195760D03*
D27*
X-260755605Y-30812211D03*
X-274442336Y-30978055D03*
D26*
X-270946268Y-31594506D03*
%TD*%
D24*
%TO.C,SW71*%
X-275872056Y-44909780D03*
D25*
X-270869233Y-45791913D03*
D24*
X-265866410Y-46674046D03*
D26*
X-267558182Y-48954924D03*
D27*
X-264062114Y-49571375D03*
X-277748845Y-49737219D03*
D26*
X-274252777Y-50353670D03*
%TD*%
D24*
%TO.C,SW24*%
X-28990221Y26952583D03*
D25*
X-23987398Y27834716D03*
D24*
X-18984575Y28716849D03*
D26*
X-19794214Y25994904D03*
D30*
X-16298147Y26611355D03*
X-29102744Y21774375D03*
D26*
X-25606677Y22390826D03*
%TD*%
D24*
%TO.C,SW89*%
X-183815771Y-71348511D03*
D25*
X-178812948Y-72230644D03*
D24*
X-173810125Y-73112777D03*
D26*
X-175501897Y-75393655D03*
D27*
X-172005829Y-76010106D03*
X-185692560Y-76175950D03*
D26*
X-182196492Y-76792401D03*
%TD*%
D22*
%TO.C,LED121*%
X-81125000Y-58320000D03*
X-81125000Y-59780000D03*
X-75725000Y-59780000D03*
X-75725000Y-58320000D03*
%TD*%
D24*
%TO.C,SW20*%
X-167275782Y22454428D03*
D25*
X-162272959Y21572295D03*
D24*
X-157270136Y20690162D03*
D26*
X-158961908Y18409284D03*
D27*
X-155465840Y17792833D03*
X-169152571Y17626989D03*
D26*
X-165656503Y17010538D03*
%TD*%
D24*
%TO.C,SW18*%
X-202886828Y39903309D03*
D25*
X-197884005Y39021176D03*
D24*
X-192881182Y38139043D03*
D26*
X-194572954Y35858165D03*
D27*
X-191076886Y35241714D03*
X-204763617Y35075870D03*
D26*
X-201267549Y34459419D03*
%TD*%
D22*
%TO.C,LED115*%
X-123375000Y-87930000D03*
X-123375000Y-86470000D03*
X-128775000Y-86470000D03*
X-128775000Y-87930000D03*
%TD*%
D42*
%TO.C,C109*%
X-51486126Y-20677396D03*
X-50540710Y-20510694D03*
%TD*%
D24*
%TO.C,SW62*%
X-177199775Y-33827336D03*
D25*
X-172196952Y-34709469D03*
D24*
X-167194129Y-35591602D03*
D26*
X-168885901Y-37872480D03*
D27*
X-165389833Y-38488931D03*
X-179076564Y-38654775D03*
D26*
X-175580496Y-39271226D03*
%TD*%
D24*
%TO.C,SW92*%
X-30689875Y-73112777D03*
D25*
X-25687052Y-72230644D03*
D24*
X-20684229Y-71348511D03*
D26*
X-21493868Y-74070456D03*
D30*
X-17997801Y-73454005D03*
X-30802398Y-78290985D03*
D26*
X-27306331Y-77674534D03*
%TD*%
D33*
%TO.C,D43*%
X-266228038Y-2187053D03*
X-266801076Y-5436919D03*
%TD*%
%TO.C,D18*%
X-199857316Y45106283D03*
X-200430354Y41856417D03*
%TD*%
D34*
%TO.C,C133*%
X-128595000Y-61700000D03*
X-129555000Y-61700000D03*
%TD*%
D57*
%TO.C,C99*%
X-86700000Y8920000D03*
X-86700000Y9880000D03*
%TD*%
D35*
%TO.C,D26*%
X9250946Y41463547D03*
X9823984Y38213681D03*
%TD*%
D24*
%TO.C,SW51*%
X-40613868Y-16831014D03*
D25*
X-35611045Y-15948881D03*
D24*
X-30608222Y-15066748D03*
D26*
X-31417861Y-17788693D03*
D30*
X-27921794Y-17172242D03*
X-40726391Y-22009222D03*
D26*
X-37230324Y-21392771D03*
%TD*%
D28*
%TO.C,C139*%
X-78215000Y-16900000D03*
X-75435000Y-16900000D03*
%TD*%
D24*
%TO.C,SW48*%
X-173891778Y-15066748D03*
D25*
X-168888955Y-15948881D03*
D24*
X-163886132Y-16831014D03*
D26*
X-165577904Y-19111892D03*
D27*
X-162081836Y-19728343D03*
X-175768567Y-19894187D03*
D26*
X-172272499Y-20510638D03*
%TD*%
D33*
%TO.C,D71*%
X-273292442Y-39803801D03*
X-273865480Y-43053667D03*
%TD*%
D22*
%TO.C,LED113*%
X-123375000Y-78830000D03*
X-123375000Y-77370000D03*
X-128775000Y-77370000D03*
X-128775000Y-78830000D03*
%TD*%
D35*
%TO.C,D113*%
X-54951357Y-32813502D03*
X-54378319Y-36063368D03*
%TD*%
D33*
%TO.C,D62*%
X-174170264Y-28624361D03*
X-174743302Y-31874227D03*
%TD*%
D35*
%TO.C,D93*%
X-11382944Y-60925003D03*
X-10809906Y-64174869D03*
%TD*%
D24*
%TO.C,SW76*%
X-180507773Y-52587923D03*
D25*
X-175504950Y-53470056D03*
D24*
X-170502127Y-54352189D03*
D26*
X-172193899Y-56633067D03*
D27*
X-168697831Y-57249518D03*
X-182384562Y-57415362D03*
D26*
X-178888494Y-58031813D03*
%TD*%
D40*
%TO.C,LED102*%
X-147596149Y-20444639D03*
X-147342623Y-19006819D03*
X-152660585Y-18069119D03*
X-152914111Y-19506939D03*
%TD*%
D33*
%TO.C,D60*%
X-209781309Y-11175479D03*
X-210354347Y-14425345D03*
%TD*%
D53*
%TO.C,C9*%
X-148546367Y18364970D03*
X-149058629Y15459788D03*
%TD*%
D24*
%TO.C,SW69*%
X39299314Y-31222880D03*
D25*
X44302137Y-30340747D03*
D24*
X49304960Y-29458614D03*
D26*
X48495321Y-32180559D03*
D30*
X51991388Y-31564108D03*
X39186791Y-36401088D03*
D26*
X42682858Y-35784637D03*
%TD*%
D22*
%TO.C,LED105*%
X-123375000Y-26230000D03*
X-123375000Y-24770000D03*
X-128775000Y-24770000D03*
X-128775000Y-26230000D03*
%TD*%
D24*
%TO.C,SW44*%
X-250496962Y-10698026D03*
D25*
X-245494139Y-11580159D03*
D24*
X-240491316Y-12462292D03*
D26*
X-242183088Y-14743170D03*
D27*
X-238687020Y-15359621D03*
X-252373751Y-15525465D03*
D26*
X-248877683Y-16141916D03*
%TD*%
D22*
%TO.C,LED119*%
X-81125000Y-67420000D03*
X-81125000Y-68880000D03*
X-75725000Y-68880000D03*
X-75725000Y-67420000D03*
%TD*%
D29*
%TO.C,D107*%
X-115075000Y-39250000D03*
X-115075000Y-42550000D03*
%TD*%
D35*
%TO.C,D112*%
X-61437116Y3969067D03*
X-60864078Y719201D03*
%TD*%
D29*
%TO.C,D106*%
X-115075000Y-58250000D03*
X-115075000Y-61550000D03*
%TD*%
D35*
%TO.C,D91*%
X-48383175Y-70495422D03*
X-47810137Y-73745288D03*
%TD*%
D38*
%TO.C,C112*%
X-75805000Y-41900000D03*
X-74845000Y-41900000D03*
%TD*%
D24*
%TO.C,SW25*%
X-11618819Y38139042D03*
D25*
X-6615996Y39021175D03*
D24*
X-1613173Y39903308D03*
D26*
X-2422812Y37181363D03*
D30*
X1073255Y37797814D03*
X-11731342Y32960834D03*
D26*
X-8235275Y33577285D03*
%TD*%
D58*
%TO.C,R104*%
X-55387534Y14443260D03*
X-57012466Y14156740D03*
%TD*%
D59*
%TO.C,D104*%
X-143010219Y20968177D03*
X-139070987Y20273585D03*
%TD*%
D33*
%TO.C,D75*%
X-195717905Y-41122527D03*
X-196290943Y-44372393D03*
%TD*%
D22*
%TO.C,LED104*%
X-123375000Y-21680000D03*
X-123375000Y-20220000D03*
X-128775000Y-20220000D03*
X-128775000Y-21680000D03*
%TD*%
D60*
%TO.C,C78*%
X-120500000Y15600000D03*
X-119554584Y15433298D03*
%TD*%
D24*
%TO.C,SW94*%
X4921170Y-55663896D03*
D25*
X9923993Y-54781763D03*
D24*
X14926816Y-53899630D03*
D26*
X14117177Y-56621575D03*
D30*
X17613244Y-56005124D03*
X4808647Y-60842104D03*
D26*
X8304714Y-60225653D03*
%TD*%
D24*
%TO.C,SW91*%
X-49450463Y-76420775D03*
D25*
X-44447640Y-75538642D03*
D24*
X-39444817Y-74656509D03*
D26*
X-40254456Y-77378454D03*
D30*
X-36758389Y-76762003D03*
X-49562986Y-81598983D03*
D26*
X-46066919Y-80982532D03*
%TD*%
D24*
%TO.C,SW61*%
X-195439419Y-27564915D03*
D25*
X-190436596Y-28447048D03*
D24*
X-185433773Y-29329181D03*
D26*
X-187125545Y-31610059D03*
D27*
X-183629477Y-32226510D03*
X-197316208Y-32392354D03*
D26*
X-193820140Y-33008805D03*
%TD*%
D33*
%TO.C,D33*%
X-185793911Y15159236D03*
X-186366949Y11909370D03*
%TD*%
D22*
%TO.C,LED107*%
X-123375000Y-40730000D03*
X-123375000Y-39270000D03*
X-128775000Y-39270000D03*
X-128775000Y-40730000D03*
%TD*%
D40*
%TO.C,LED103*%
X-148386248Y-24925514D03*
X-148132722Y-23487694D03*
X-153450684Y-22549994D03*
X-153704210Y-23987814D03*
%TD*%
D24*
%TO.C,SW26*%
X8183658Y35538194D03*
D25*
X13186481Y36420327D03*
D24*
X18189304Y37302460D03*
D26*
X17379665Y34580515D03*
D30*
X20875732Y35196966D03*
X8071135Y30359986D03*
D26*
X11567202Y30976437D03*
%TD*%
D35*
%TO.C,D83*%
X43674601Y-44058115D03*
X44247639Y-47307981D03*
%TD*%
%TO.C,D53*%
X-3935535Y6543219D03*
X-3362497Y3293353D03*
%TD*%
%TO.C,D27*%
X30442609Y30984236D03*
X31015647Y27734370D03*
%TD*%
D24*
%TO.C,SW80*%
X-15758230Y-48089768D03*
D25*
X-10755407Y-47207635D03*
D24*
X-5752584Y-46325502D03*
D26*
X-6562223Y-49047447D03*
D30*
X-3066156Y-48430996D03*
X-15870753Y-53267976D03*
D26*
X-12374686Y-52651525D03*
%TD*%
D33*
%TO.C,D103*%
X-155138854Y-31980112D03*
X-155711892Y-35229978D03*
%TD*%
D24*
%TO.C,SW37*%
X-43921866Y1929574D03*
D25*
X-38919043Y2811707D03*
D24*
X-33916220Y3693840D03*
D26*
X-34725859Y971895D03*
D30*
X-31229792Y1588346D03*
X-44034389Y-3248634D03*
D26*
X-40538322Y-2632183D03*
%TD*%
D35*
%TO.C,D92*%
X-29622587Y-67187424D03*
X-29049549Y-70437290D03*
%TD*%
D22*
%TO.C,LED118*%
X-81125000Y-77370000D03*
X-81125000Y-78830000D03*
X-75725000Y-78830000D03*
X-75725000Y-77370000D03*
%TD*%
%TO.C,LED112*%
X-123375000Y-68880000D03*
X-123375000Y-67420000D03*
X-128775000Y-67420000D03*
X-128775000Y-68880000D03*
%TD*%
D35*
%TO.C,D42*%
X52511195Y15531646D03*
X53084233Y12281780D03*
%TD*%
D22*
%TO.C,LED126*%
X-81125000Y-24770000D03*
X-81125000Y-26230000D03*
X-75725000Y-26230000D03*
X-75725000Y-24770000D03*
%TD*%
D35*
%TO.C,D52*%
X-21306936Y-4643240D03*
X-20733898Y-7893106D03*
%TD*%
D38*
%TO.C,C120*%
X-75805000Y-89200000D03*
X-74845000Y-89200000D03*
%TD*%
D24*
%TO.C,SW81*%
X1613173Y-36903308D03*
D25*
X6615996Y-36021175D03*
D24*
X11618819Y-35139042D03*
D26*
X10809180Y-37860987D03*
D30*
X14305247Y-37244536D03*
X1500650Y-42081516D03*
D26*
X4996717Y-41465065D03*
%TD*%
D34*
%TO.C,C123*%
X-128595000Y-28150000D03*
X-129555000Y-28150000D03*
%TD*%
D33*
%TO.C,D29*%
X-262920041Y16573535D03*
X-263493079Y13323669D03*
%TD*%
D35*
%TO.C,D24*%
X-27922933Y32877936D03*
X-27349895Y29628070D03*
%TD*%
D33*
%TO.C,D20*%
X-164246271Y27657403D03*
X-164819309Y24407537D03*
%TD*%
D24*
%TO.C,SW90*%
X-165055183Y-74656509D03*
D25*
X-160052360Y-75538642D03*
D24*
X-155049537Y-76420775D03*
D26*
X-156741309Y-78701653D03*
D27*
X-153245241Y-79318104D03*
X-166931972Y-79483948D03*
D26*
X-163435904Y-80100399D03*
%TD*%
D35*
%TO.C,D95*%
X25790935Y-52339392D03*
X26363973Y-55589258D03*
%TD*%
%TO.C,D38*%
X-24614935Y14117347D03*
X-24041897Y10867481D03*
%TD*%
D24*
%TO.C,SW66*%
X-19066227Y-29329181D03*
D25*
X-14063404Y-28447048D03*
D24*
X-9060581Y-27564915D03*
D26*
X-9870220Y-30286860D03*
D30*
X-6374153Y-29670409D03*
X-19178750Y-34507389D03*
D26*
X-15682683Y-33890938D03*
%TD*%
D22*
%TO.C,LED108*%
X-123375000Y-45280000D03*
X-123375000Y-43820000D03*
X-128775000Y-43820000D03*
X-128775000Y-45280000D03*
%TD*%
D33*
%TO.C,D74*%
X-213089307Y-29936067D03*
X-213662345Y-33185933D03*
%TD*%
D24*
%TO.C,SW19*%
X-185515425Y28716849D03*
D25*
X-180512602Y27834716D03*
D24*
X-175509779Y26952583D03*
D26*
X-177201551Y24671705D03*
D27*
X-173705483Y24055254D03*
X-187392214Y23889410D03*
D26*
X-183896146Y23272959D03*
%TD*%
D35*
%TO.C,D55*%
X37058604Y-6536940D03*
X37631642Y-9786806D03*
%TD*%
D38*
%TO.C,C116*%
X-75805000Y-46500000D03*
X-74845000Y-46500000D03*
%TD*%
D22*
%TO.C,LED124*%
X-81125000Y-39270000D03*
X-81125000Y-40730000D03*
X-75725000Y-40730000D03*
X-75725000Y-39270000D03*
%TD*%
D35*
%TO.C,D79*%
X-32930585Y-48426837D03*
X-32357547Y-51676703D03*
%TD*%
D24*
%TO.C,SW110*%
X-62682454Y-1378424D03*
D25*
X-57679631Y-496291D03*
D24*
X-52676808Y385842D03*
D26*
X-53486447Y-2336103D03*
D30*
X-49990380Y-1719652D03*
X-62794977Y-6556632D03*
D26*
X-59298910Y-5940181D03*
%TD*%
D29*
%TO.C,D114*%
X-96075000Y-77250000D03*
X-96075000Y-80550000D03*
%TD*%
D61*
%TO.C,D101*%
X-53875067Y17686519D03*
X-57124933Y17113481D03*
%TD*%
D24*
%TO.C,SW102*%
X-158439188Y-37135333D03*
D25*
X-153436365Y-38017466D03*
D24*
X-148433542Y-38899599D03*
D26*
X-150125314Y-41180477D03*
D27*
X-146629246Y-41796928D03*
X-160315977Y-41962772D03*
D26*
X-156819909Y-42579223D03*
%TD*%
D34*
%TO.C,C105*%
X-128595000Y-38150000D03*
X-129555000Y-38150000D03*
%TD*%
D33*
%TO.C,D15*%
X-259612043Y35334122D03*
X-260185081Y32084256D03*
%TD*%
D35*
%TO.C,D81*%
X2680462Y-30977956D03*
X3253500Y-34227822D03*
%TD*%
%TO.C,D82*%
X22482937Y-33578805D03*
X23055975Y-36828671D03*
%TD*%
D33*
%TO.C,D73*%
X-232891784Y-32536916D03*
X-233464822Y-35786782D03*
%TD*%
D41*
%TO.C,C127*%
X-153045630Y-21433367D03*
X-153991046Y-21266665D03*
%TD*%
D33*
%TO.C,D87*%
X-216397305Y-48696655D03*
X-216970343Y-51946521D03*
%TD*%
D35*
%TO.C,D56*%
X55819193Y-3228942D03*
X56392231Y-6478808D03*
%TD*%
%TO.C,D94*%
X5988459Y-49738543D03*
X6561497Y-52988409D03*
%TD*%
D22*
%TO.C,LED106*%
X-123375000Y-30780000D03*
X-123375000Y-29320000D03*
X-128775000Y-29320000D03*
X-128775000Y-30780000D03*
%TD*%
D31*
%TO.C,C8*%
X-136865366Y14066279D03*
X-136698664Y15011695D03*
%TD*%
D33*
%TO.C,D89*%
X-180786259Y-66145535D03*
X-181359297Y-69395401D03*
%TD*%
D51*
%TO.C,LED129*%
X-57157377Y-19006819D03*
X-56903851Y-20444639D03*
X-51585889Y-19506939D03*
X-51839415Y-18069119D03*
%TD*%
D53*
%TO.C,C2*%
X-151254589Y18842502D03*
X-151766851Y15937320D03*
%TD*%
D24*
%TO.C,SW73*%
X-235921295Y-37739891D03*
D25*
X-230918472Y-38622024D03*
D24*
X-225915649Y-39504157D03*
D26*
X-227607421Y-41785035D03*
D27*
X-224111353Y-42401486D03*
X-237798084Y-42567330D03*
D26*
X-234302016Y-43183781D03*
%TD*%
D18*
%TO.C,H101*%
X-249900000Y18200000D03*
%TD*%
%LPD*%
M02*
