%TF.GenerationSoftware,KiCad,Pcbnew,10.0.5*%
%TF.CreationDate,2026-09-30T11:54:41+02:00*%
%TF.ProjectId,Clavier_drive_1,436c6176-6965-4725-9f64-726976655f31,rev?*%
%TF.SameCoordinates,Original*%
%TF.FileFunction,Paste,Bot*%
%TF.FilePolarity,Positive*%
%FSLAX46Y46*%
G04 Gerber Fmt 4.6, Leading zero omitted, Abs format (unit mm)*
G04 Created by KiCad (PCBNEW 10.0.5) date 2026-09-30 11:54:41*
%MOMM*%
%LPD*%
G01*
G04 APERTURE LIST*
G04 Aperture macros list*
%AMRoundRect*
0 Rectangle with rounded corners*
0 $1 Rounding radius*
0 $2 $3 $4 $5 $6 $7 $8 $9 X,Y pos of 4 corners*
0 Add a 4 corners polygon primitive as box body*
4,1,4,$2,$3,$4,$5,$6,$7,$8,$9,$2,$3,0*
0 Add four circle primitives for the rounded corners*
1,1,$1+$1,$2,$3*
1,1,$1+$1,$4,$5*
1,1,$1+$1,$6,$7*
1,1,$1+$1,$8,$9*
0 Add four rect primitives between the rounded corners*
20,1,$1+$1,$2,$3,$4,$5,0*
20,1,$1+$1,$4,$5,$6,$7,0*
20,1,$1+$1,$6,$7,$8,$9,0*
20,1,$1+$1,$8,$9,$2,$3,0*%
%AMRotRect*
0 Rectangle, with rotation*
0 The origin of the aperture is its center*
0 $1 length*
0 $2 width*
0 $3 Rotation angle, in degrees counterclockwise*
0 Add horizontal line*
21,1,$1,$2,0,0,$3*%
G04 Aperture macros list end*
%ADD10RoundRect,0.200000X0.275000X-0.200000X0.275000X0.200000X-0.275000X0.200000X-0.275000X-0.200000X0*%
%ADD11RoundRect,0.200000X-0.200000X-0.275000X0.200000X-0.275000X0.200000X0.275000X-0.200000X0.275000X0*%
%ADD12R,1.700000X0.800000*%
%ADD13RotRect,1.050000X1.820000X80.000000*%
%ADD14RoundRect,0.250000X-1.183076X-0.806818X0.835780X-1.162797X1.183076X0.806818X-0.835780X1.162797X0*%
%ADD15R,1.050000X1.820000*%
%ADD16RoundRect,0.225000X-0.375000X0.225000X-0.375000X-0.225000X0.375000X-0.225000X0.375000X0.225000X0*%
%ADD17RoundRect,0.250000X-0.835780X-1.162797X1.183076X-0.806818X0.835780X1.162797X-1.183076X0.806818X0*%
%ADD18RoundRect,0.140000X0.143107X-0.167393X0.191728X0.108353X-0.143107X0.167393X-0.191728X-0.108353X0*%
%ADD19RoundRect,0.200000X-0.305552X0.149208X-0.236092X-0.244715X0.305552X-0.149208X0.236092X0.244715X0*%
%ADD20RoundRect,0.225000X-0.330232X0.286700X-0.408374X-0.156464X0.330232X-0.286700X0.408374X0.156464X0*%
%ADD21RoundRect,0.140000X0.140000X0.170000X-0.140000X0.170000X-0.140000X-0.170000X0.140000X-0.170000X0*%
%ADD22RoundRect,0.225000X-0.408374X0.156464X-0.330232X-0.286700X0.408374X-0.156464X0.330232X0.286700X0*%
%ADD23RoundRect,0.140000X0.108353X0.191728X-0.167393X0.143107X-0.108353X-0.191728X0.167393X-0.143107X0*%
%ADD24RoundRect,0.250000X-1.025000X-1.000000X1.025000X-1.000000X1.025000X1.000000X-1.025000X1.000000X0*%
%ADD25RoundRect,0.140000X-0.140000X-0.170000X0.140000X-0.170000X0.140000X0.170000X-0.140000X0.170000X0*%
%ADD26RotRect,0.600000X1.200000X280.000000*%
%ADD27RotRect,1.700000X0.800000X350.000000*%
%ADD28RoundRect,0.140000X0.167393X0.143107X-0.108353X0.191728X-0.167393X-0.143107X0.108353X-0.191728X0*%
%ADD29RoundRect,0.140000X-0.108353X-0.191728X0.167393X-0.143107X0.108353X0.191728X-0.167393X0.143107X0*%
%ADD30RoundRect,0.140000X-0.143107X0.167393X-0.191728X-0.108353X0.143107X-0.167393X0.191728X0.108353X0*%
%ADD31RotRect,0.889000X1.625600X260.000000*%
%ADD32RotRect,1.625600X3.175000X350.000000*%
%ADD33RotRect,1.050000X1.820000X280.000000*%
%ADD34RotRect,0.650000X1.525000X80.000000*%
%ADD35RotRect,0.600000X1.200000X350.000000*%
%ADD36RoundRect,0.140000X-0.191728X0.108353X-0.143107X-0.167393X0.191728X-0.108353X0.143107X0.167393X0*%
%ADD37RotRect,1.700000X0.800000X190.000000*%
%ADD38RoundRect,0.200000X0.244715X0.236092X-0.149208X0.305552X-0.244715X-0.236092X0.149208X-0.305552X0*%
%ADD39RoundRect,0.250000X-0.583689X0.432934X-0.696561X-0.207191X0.583689X-0.432934X0.696561X0.207191X0*%
%ADD40RoundRect,0.150000X0.587500X0.150000X-0.587500X0.150000X-0.587500X-0.150000X0.587500X-0.150000X0*%
%ADD41RoundRect,0.140000X0.191728X-0.108353X0.143107X0.167393X-0.191728X0.108353X-0.143107X-0.167393X0*%
%ADD42RoundRect,0.200000X-0.236092X0.244715X-0.305552X-0.149208X0.236092X-0.244715X0.305552X0.149208X0*%
%ADD43RoundRect,0.140000X0.170000X-0.140000X0.170000X0.140000X-0.170000X0.140000X-0.170000X-0.140000X0*%
%ADD44RoundRect,0.200000X0.149208X0.305552X-0.244715X0.236092X-0.149208X-0.305552X0.244715X-0.236092X0*%
%ADD45RoundRect,0.250000X-1.097679X-0.466477X0.871936X-0.813773X1.097679X0.466477X-0.871936X0.813773X0*%
%ADD46RoundRect,0.140000X-0.167393X-0.143107X0.108353X-0.191728X0.167393X0.143107X-0.108353X0.191728X0*%
%ADD47RoundRect,0.225000X0.156464X0.408374X-0.286700X0.330232X-0.156464X-0.408374X0.286700X-0.330232X0*%
G04 APERTURE END LIST*
D10*
%TO.C,R34*%
X-85300000Y8875000D03*
X-85300000Y10525000D03*
%TD*%
D11*
%TO.C,R33*%
X-82625000Y2600000D03*
X-80975000Y2600000D03*
%TD*%
D12*
%TO.C,LED125*%
X-81125000Y-29320000D03*
X-81125000Y-30780000D03*
X-75725000Y-30780000D03*
X-75725000Y-29320000D03*
%TD*%
%TO.C,LED114*%
X-123375000Y-83380000D03*
X-123375000Y-81920000D03*
X-128775000Y-81920000D03*
X-128775000Y-83380000D03*
%TD*%
D13*
%TO.C,C101*%
X-139930190Y-16272433D03*
X-139447448Y-13534667D03*
%TD*%
D14*
%TO.C,SW47*%
X-180321479Y-13465922D03*
X-194008210Y-13631766D03*
%TD*%
%TO.C,SW16*%
X-232071024Y22161554D03*
X-245757755Y21995710D03*
%TD*%
D15*
%TO.C,C140*%
X-78215000Y-14640000D03*
X-75435000Y-14640000D03*
%TD*%
D14*
%TO.C,SW58*%
X-241995018Y-34120209D03*
X-255681749Y-34286053D03*
%TD*%
D16*
%TO.C,D108*%
X-115075000Y-20250000D03*
X-115075000Y-23550000D03*
%TD*%
D17*
%TO.C,SW79*%
X-21305799Y-54693417D03*
X-34110396Y-59530397D03*
%TD*%
D18*
%TO.C,C104*%
X-139481955Y-19489137D03*
X-139315253Y-18543721D03*
%TD*%
D19*
%TO.C,R105*%
X-67021829Y21820495D03*
X-66735309Y20195563D03*
%TD*%
D14*
%TO.C,SW29*%
X-254139610Y6708963D03*
X-267826341Y6543119D03*
%TD*%
D20*
%TO.C,D58*%
X-250775448Y-24255639D03*
X-251348486Y-27505505D03*
%TD*%
D21*
%TO.C,C137*%
X-128595000Y-66200000D03*
X-129555000Y-66200000D03*
%TD*%
D20*
%TO.C,D102*%
X-148514176Y5590305D03*
X-149087214Y2340439D03*
%TD*%
D22*
%TO.C,D39*%
X-7243533Y25303807D03*
X-6670495Y22053941D03*
%TD*%
D20*
%TO.C,D86*%
X-236199782Y-51297503D03*
X-236772820Y-54547369D03*
%TD*%
D16*
%TO.C,D111*%
X-96075000Y-20250000D03*
X-96075000Y-23550000D03*
%TD*%
D14*
%TO.C,SW87*%
X-207616874Y-58561225D03*
X-221303605Y-58727069D03*
%TD*%
D20*
%TO.C,D32*%
X-203165314Y26345696D03*
X-203738352Y23095830D03*
%TD*%
D23*
%TO.C,C132*%
X-64987414Y15350474D03*
X-65932830Y15183772D03*
%TD*%
D17*
%TO.C,SW55*%
X48683390Y-12803520D03*
X35878793Y-17640500D03*
%TD*%
D20*
%TO.C,D90*%
X-162025672Y-69453534D03*
X-162598710Y-72703400D03*
%TD*%
D24*
%TO.C,SW108*%
X-85365000Y-47090000D03*
X-98815000Y-49630000D03*
%TD*%
D14*
%TO.C,SW17*%
X-210879362Y32640865D03*
X-224566093Y32475021D03*
%TD*%
D22*
%TO.C,D23*%
X-46162576Y26615515D03*
X-45589538Y23365649D03*
%TD*%
D17*
%TO.C,SW84*%
X74059973Y-47016698D03*
X61255376Y-51853678D03*
%TD*%
D25*
%TO.C,C121*%
X-75805000Y-84600000D03*
X-74845000Y-84600000D03*
%TD*%
D19*
%TO.C,R106*%
X-55610843Y25634942D03*
X-55324323Y24010010D03*
%TD*%
D22*
%TO.C,D80*%
X-14690942Y-42164416D03*
X-14117904Y-45414282D03*
%TD*%
D21*
%TO.C,C136*%
X-128595000Y-80700000D03*
X-129555000Y-80700000D03*
%TD*%
D17*
%TO.C,SW53*%
X7689251Y276639D03*
X-5115346Y-4560341D03*
%TD*%
D22*
%TO.C,D51*%
X-39546579Y-10905661D03*
X-38973541Y-14155527D03*
%TD*%
D14*
%TO.C,SW30*%
X-235379022Y3400966D03*
X-249065753Y3235122D03*
%TD*%
%TO.C,SW31*%
X-214187360Y13880277D03*
X-227874091Y13714433D03*
%TD*%
D26*
%TO.C,IC102*%
X-79494879Y14239399D03*
X-79659845Y15174967D03*
X-79824810Y16110534D03*
X-77362791Y16544655D03*
X-77197825Y15609087D03*
X-77032860Y14673520D03*
%TD*%
D20*
%TO.C,D47*%
X-189101909Y-3601351D03*
X-189674947Y-6851217D03*
%TD*%
D27*
%TO.C,LED101*%
X-146806050Y-15963763D03*
X-146552524Y-14525943D03*
X-151870486Y-13588243D03*
X-152124012Y-15026063D03*
%TD*%
D20*
%TO.C,D19*%
X-182485914Y33919824D03*
X-183058952Y30669958D03*
%TD*%
D14*
%TO.C,SW74*%
X-204308877Y-39800637D03*
X-217995608Y-39966481D03*
%TD*%
D22*
%TO.C,D25*%
X-10770258Y43721199D03*
X-10197220Y40471333D03*
%TD*%
D24*
%TO.C,SW106*%
X-104415000Y-28040000D03*
X-117865000Y-30580000D03*
%TD*%
D15*
%TO.C,C142*%
X-125935000Y-16820000D03*
X-128715000Y-16820000D03*
%TD*%
D17*
%TO.C,SW83*%
X55299386Y-50324696D03*
X42494789Y-55161676D03*
%TD*%
D20*
%TO.C,D17*%
X-219659793Y42505435D03*
X-220232831Y39255569D03*
%TD*%
D28*
%TO.C,C125*%
X-151482796Y-12570097D03*
X-152428212Y-12403395D03*
%TD*%
D23*
%TO.C,C130*%
X-75815958Y13415723D03*
X-76761374Y13249021D03*
%TD*%
D25*
%TO.C,C117*%
X-75805000Y-22900000D03*
X-74845000Y-22900000D03*
%TD*%
D29*
%TO.C,C128*%
X-52267543Y-16245761D03*
X-51322127Y-16079059D03*
%TD*%
D24*
%TO.C,SW105*%
X-104415000Y-47090000D03*
X-117865000Y-49630000D03*
%TD*%
D14*
%TO.C,SW86*%
X-227419351Y-61162074D03*
X-241106082Y-61327918D03*
%TD*%
D28*
%TO.C,C126*%
X-152264213Y-17001732D03*
X-153209629Y-16835030D03*
%TD*%
D30*
%TO.C,C10*%
X-146567201Y18071839D03*
X-146733903Y17126423D03*
%TD*%
D19*
%TO.C,R103*%
X-76178501Y20193996D03*
X-75891981Y18569064D03*
%TD*%
D25*
%TO.C,C118*%
X-75805000Y-32000000D03*
X-74845000Y-32000000D03*
%TD*%
D14*
%TO.C,SW101*%
X-140013250Y-4275753D03*
X-153699981Y-4441597D03*
%TD*%
D31*
%TO.C,IC3*%
X-145592229Y13237695D03*
X-145190859Y15513980D03*
X-144789488Y17790264D03*
D32*
X-138887301Y14402492D03*
%TD*%
D16*
%TO.C,D109*%
X-96075000Y-58250000D03*
X-96075000Y-61550000D03*
%TD*%
D19*
%TO.C,R102*%
X-77852674Y19898794D03*
X-77566154Y18273862D03*
%TD*%
D21*
%TO.C,C108*%
X-128595000Y-19150000D03*
X-129555000Y-19150000D03*
%TD*%
D12*
%TO.C,LED123*%
X-81125000Y-43820000D03*
X-81125000Y-45280000D03*
X-75725000Y-45280000D03*
X-75725000Y-43820000D03*
%TD*%
D20*
%TO.C,D45*%
X-226275788Y4984260D03*
X-226848826Y1734394D03*
%TD*%
D12*
%TO.C,LED127*%
X-81125000Y-20220000D03*
X-81125000Y-21680000D03*
X-75725000Y-21680000D03*
X-75725000Y-20220000D03*
%TD*%
D25*
%TO.C,C113*%
X-75805000Y-65600000D03*
X-74845000Y-65600000D03*
%TD*%
D17*
%TO.C,SW95*%
X37415721Y-58605973D03*
X24611124Y-63442953D03*
%TD*%
D12*
%TO.C,LED109*%
X-123375000Y-49830000D03*
X-123375000Y-48370000D03*
X-128775000Y-48370000D03*
X-128775000Y-49830000D03*
%TD*%
D17*
%TO.C,SW54*%
X27491728Y-2324210D03*
X14687131Y-7161190D03*
%TD*%
D33*
%TO.C,C143*%
X-61665210Y-24107080D03*
X-61182468Y-26844846D03*
%TD*%
D22*
%TO.C,D54*%
X15866943Y3942371D03*
X16439981Y692505D03*
%TD*%
%TO.C,D37*%
X-42854577Y7854926D03*
X-42281539Y4605060D03*
%TD*%
D20*
%TO.C,D59*%
X-229583786Y-13776328D03*
X-230156824Y-17026194D03*
%TD*%
D22*
%TO.C,D66*%
X-17998938Y-23403828D03*
X-17425900Y-26653694D03*
%TD*%
D14*
%TO.C,SW46*%
X-197692881Y-2279462D03*
X-211379612Y-2445306D03*
%TD*%
D20*
%TO.C,D72*%
X-254083446Y-43016226D03*
X-254656484Y-46266092D03*
%TD*%
D25*
%TO.C,C115*%
X-75805000Y-51100000D03*
X-74845000Y-51100000D03*
%TD*%
D34*
%TO.C,IC12*%
X-121855575Y18568251D03*
X-122076108Y17317545D03*
X-122296641Y16066839D03*
X-122517174Y14816133D03*
X-127858771Y15758001D03*
X-127638238Y17008707D03*
X-127417705Y18259413D03*
X-127197172Y19510119D03*
%TD*%
D14*
%TO.C,SW43*%
X-257447608Y-12051624D03*
X-271134339Y-12217468D03*
%TD*%
D15*
%TO.C,C141*%
X-125935000Y-14650000D03*
X-128715000Y-14650000D03*
%TD*%
D21*
%TO.C,C107*%
X-128595000Y-47400000D03*
X-129555000Y-47400000D03*
%TD*%
D17*
%TO.C,SW65*%
X-24613797Y-35932830D03*
X-37418394Y-40769810D03*
%TD*%
D14*
%TO.C,SW60*%
X-201000879Y-21040050D03*
X-214687610Y-21205894D03*
%TD*%
D20*
%TO.C,D46*%
X-206473312Y7585109D03*
X-207046350Y4335243D03*
%TD*%
D16*
%TO.C,D110*%
X-96075000Y-39250000D03*
X-96075000Y-42550000D03*
%TD*%
D24*
%TO.C,SW107*%
X-85365000Y-66140000D03*
X-98815000Y-68680000D03*
%TD*%
D29*
%TO.C,C110*%
X-50687344Y-25207512D03*
X-49741928Y-25040810D03*
%TD*%
D24*
%TO.C,SW104*%
X-104415000Y-66140000D03*
X-117865000Y-68680000D03*
%TD*%
D16*
%TO.C,D105*%
X-115075000Y-77250000D03*
X-115075000Y-80550000D03*
%TD*%
D20*
%TO.C,D48*%
X-170862266Y-9863772D03*
X-171435304Y-13113638D03*
%TD*%
D17*
%TO.C,SW111*%
X-43374384Y-39240827D03*
X-56178981Y-44077807D03*
%TD*%
%TO.C,SW41*%
X45375392Y5957067D03*
X32570795Y1120087D03*
%TD*%
D24*
%TO.C,SW109*%
X-85365000Y-28040000D03*
X-98815000Y-30580000D03*
%TD*%
D17*
%TO.C,SW28*%
X60827982Y28025653D03*
X48023385Y23188673D03*
%TD*%
%TO.C,SW38*%
X-12990149Y7850767D03*
X-25794746Y3013787D03*
%TD*%
D21*
%TO.C,C124*%
X-128595000Y-23650000D03*
X-129555000Y-23650000D03*
%TD*%
D17*
%TO.C,SW42*%
X64135980Y9265065D03*
X51331383Y4428085D03*
%TD*%
D14*
%TO.C,SW45*%
X-217495358Y-4880311D03*
X-231182089Y-5046155D03*
%TD*%
D17*
%TO.C,SW23*%
X-34537790Y20348934D03*
X-47342387Y15511954D03*
%TD*%
D14*
%TO.C,SW59*%
X-220803356Y-23640898D03*
X-234490087Y-23806742D03*
%TD*%
D12*
%TO.C,LED111*%
X-123375000Y-64330000D03*
X-123375000Y-62870000D03*
X-128775000Y-62870000D03*
X-128775000Y-64330000D03*
%TD*%
D35*
%TO.C,IC101*%
X-141425902Y-20435958D03*
X-142361469Y-20270993D03*
X-143297037Y-20106027D03*
X-142862916Y-17644008D03*
X-141927349Y-17808973D03*
X-140991781Y-17973939D03*
%TD*%
D36*
%TO.C,C131*%
X-70416544Y16886044D03*
X-70249842Y15940628D03*
%TD*%
D22*
%TO.C,D69*%
X40366603Y-25297528D03*
X40939641Y-28547394D03*
%TD*%
D20*
%TO.C,D44*%
X-247467451Y-5495051D03*
X-248040489Y-8744917D03*
%TD*%
D12*
%TO.C,LED110*%
X-123375000Y-59780000D03*
X-123375000Y-58320000D03*
X-128775000Y-58320000D03*
X-128775000Y-59780000D03*
%TD*%
D37*
%TO.C,LED130*%
X-57947476Y-14525943D03*
X-57693950Y-15963763D03*
X-52375988Y-15026063D03*
X-52629514Y-13588243D03*
%TD*%
D18*
%TO.C,C103*%
X-139829251Y-21458753D03*
X-139662549Y-20513337D03*
%TD*%
D12*
%TO.C,LED117*%
X-81125000Y-81920000D03*
X-81125000Y-83380000D03*
X-75725000Y-83380000D03*
X-75725000Y-81920000D03*
%TD*%
D17*
%TO.C,SW27*%
X42067394Y24717655D03*
X29262797Y19880675D03*
%TD*%
D38*
%TO.C,R24*%
X-129108644Y19974091D03*
X-130733576Y20260611D03*
%TD*%
D17*
%TO.C,SW40*%
X24183730Y16436378D03*
X11379133Y11599398D03*
%TD*%
D22*
%TO.C,D41*%
X33750606Y12223648D03*
X34323644Y8973782D03*
%TD*%
%TO.C,D67*%
X-627536Y-12217368D03*
X-54498Y-15467234D03*
%TD*%
D21*
%TO.C,C138*%
X-128595000Y-76200000D03*
X-129555000Y-76200000D03*
%TD*%
D14*
%TO.C,SW72*%
X-245303016Y-52880797D03*
X-258989747Y-53046641D03*
%TD*%
D24*
%TO.C,SW112*%
X-85365000Y-85190000D03*
X-98815000Y-87730000D03*
%TD*%
D14*
%TO.C,SW75*%
X-186937474Y-50987097D03*
X-200624205Y-51152941D03*
%TD*%
D39*
%TO.C,C1*%
X-134164959Y13544430D03*
X-134677221Y10639248D03*
%TD*%
D17*
%TO.C,SW82*%
X34107723Y-39845385D03*
X21303126Y-44682365D03*
%TD*%
D22*
%TO.C,D28*%
X49203196Y34292233D03*
X49776234Y31042367D03*
%TD*%
D14*
%TO.C,SW15*%
X-250831612Y25469552D03*
X-264518343Y25303708D03*
%TD*%
D19*
%TO.C,R107*%
X-65347656Y22115697D03*
X-65061136Y20490765D03*
%TD*%
D22*
%TO.C,D70*%
X59127189Y-21989530D03*
X59700227Y-25239396D03*
%TD*%
D14*
%TO.C,SW32*%
X-194384883Y16481126D03*
X-208071614Y16315282D03*
%TD*%
D12*
%TO.C,LED122*%
X-81125000Y-48370000D03*
X-81125000Y-49830000D03*
X-75725000Y-49830000D03*
X-75725000Y-48370000D03*
%TD*%
%TO.C,LED116*%
X-81125000Y-86470000D03*
X-81125000Y-87930000D03*
X-75725000Y-87930000D03*
X-75725000Y-86470000D03*
%TD*%
D17*
%TO.C,SW68*%
X30799726Y-21084797D03*
X17995129Y-25921777D03*
%TD*%
D20*
%TO.C,D30*%
X-244159453Y13265537D03*
X-244732491Y10015671D03*
%TD*%
D25*
%TO.C,C114*%
X-75805000Y-61100000D03*
X-74845000Y-61100000D03*
%TD*%
D40*
%TO.C,Q1*%
X-87062500Y33150000D03*
X-87062500Y31250000D03*
X-88937500Y32200000D03*
%TD*%
D13*
%TO.C,C102*%
X-142255597Y-15862401D03*
X-141772855Y-13124635D03*
%TD*%
D25*
%TO.C,C122*%
X-75805000Y-80100000D03*
X-74845000Y-80100000D03*
%TD*%
D21*
%TO.C,C134*%
X-128595000Y-85300000D03*
X-129555000Y-85300000D03*
%TD*%
%TO.C,C106*%
X-128595000Y-42650000D03*
X-129555000Y-42650000D03*
%TD*%
D17*
%TO.C,SW93*%
X241842Y-67191584D03*
X-12562755Y-72028564D03*
%TD*%
D14*
%TO.C,SW34*%
X-158773838Y-967755D03*
X-172460569Y-1133599D03*
%TD*%
D22*
%TO.C,D68*%
X19174941Y-14818217D03*
X19747979Y-18068083D03*
%TD*%
D24*
%TO.C,SW103*%
X-104415000Y-85190000D03*
X-117865000Y-87730000D03*
%TD*%
D20*
%TO.C,D34*%
X-167554268Y8896815D03*
X-168127306Y5646949D03*
%TD*%
D22*
%TO.C,D65*%
X-36238582Y-29666249D03*
X-35665544Y-32916115D03*
%TD*%
D20*
%TO.C,D88*%
X-199025903Y-59883114D03*
X-199598941Y-63132980D03*
%TD*%
%TO.C,D57*%
X-269536036Y-20947641D03*
X-270109074Y-24197507D03*
%TD*%
D14*
%TO.C,SW88*%
X-190245472Y-69747685D03*
X-203932203Y-69913529D03*
%TD*%
D20*
%TO.C,D16*%
X-240851455Y32026124D03*
X-241424493Y28776258D03*
%TD*%
D41*
%TO.C,C129*%
X-81016649Y13027292D03*
X-81183351Y13972708D03*
%TD*%
D17*
%TO.C,SW67*%
X10997249Y-18483949D03*
X-1807348Y-23320929D03*
%TD*%
D21*
%TO.C,C135*%
X-128595000Y-57100000D03*
X-129555000Y-57100000D03*
%TD*%
D20*
%TO.C,D31*%
X-222967791Y23744848D03*
X-223540829Y20494982D03*
%TD*%
D25*
%TO.C,C119*%
X-75805000Y-70100000D03*
X-74845000Y-70100000D03*
%TD*%
D17*
%TO.C,SW39*%
X4381253Y19037227D03*
X-8423344Y14200247D03*
%TD*%
D20*
%TO.C,D61*%
X-192409907Y-22361939D03*
X-192982945Y-25611805D03*
%TD*%
D12*
%TO.C,LED120*%
X-81125000Y-62870000D03*
X-81125000Y-64330000D03*
X-75725000Y-64330000D03*
X-75725000Y-62870000D03*
%TD*%
D17*
%TO.C,SW70*%
X70751976Y-28256110D03*
X57947379Y-33093090D03*
%TD*%
D42*
%TO.C,R101*%
X-144205791Y-14894042D03*
X-144492311Y-16518974D03*
%TD*%
D22*
%TO.C,D40*%
X12558944Y22702958D03*
X13131982Y19453092D03*
%TD*%
D17*
%TO.C,SW52*%
X-9682151Y-10909821D03*
X-22486748Y-15746801D03*
%TD*%
D20*
%TO.C,D76*%
X-177478262Y-47384948D03*
X-178051300Y-50634814D03*
%TD*%
D14*
%TO.C,SW33*%
X-177013481Y5294666D03*
X-190700212Y5128822D03*
%TD*%
D37*
%TO.C,LED128*%
X-56367278Y-23487694D03*
X-56113752Y-24925514D03*
X-50795790Y-23987814D03*
X-51049316Y-22549994D03*
%TD*%
D25*
%TO.C,C111*%
X-75805000Y-27400000D03*
X-74845000Y-27400000D03*
%TD*%
D33*
%TO.C,C144*%
X-59444469Y-23715504D03*
X-58961727Y-26453270D03*
%TD*%
D22*
%TO.C,D84*%
X62435187Y-40750118D03*
X63008225Y-43999984D03*
%TD*%
D17*
%TO.C,SW56*%
X67443978Y-9495523D03*
X54639381Y-14332503D03*
%TD*%
D26*
%TO.C,IC104*%
X-68617095Y16182831D03*
X-68782061Y17118399D03*
X-68947026Y18053966D03*
X-66485007Y18488087D03*
X-66320041Y17552519D03*
X-66155076Y16616952D03*
%TD*%
D14*
%TO.C,SW57*%
X-260755605Y-30812211D03*
X-274442336Y-30978055D03*
%TD*%
%TO.C,SW71*%
X-264062114Y-49571375D03*
X-277748845Y-49737219D03*
%TD*%
D17*
%TO.C,SW24*%
X-16298147Y26611355D03*
X-29102744Y21774375D03*
%TD*%
D14*
%TO.C,SW89*%
X-172005829Y-76010106D03*
X-185692560Y-76175950D03*
%TD*%
D12*
%TO.C,LED121*%
X-81125000Y-58320000D03*
X-81125000Y-59780000D03*
X-75725000Y-59780000D03*
X-75725000Y-58320000D03*
%TD*%
D14*
%TO.C,SW20*%
X-155465840Y17792833D03*
X-169152571Y17626989D03*
%TD*%
%TO.C,SW18*%
X-191076886Y35241714D03*
X-204763617Y35075870D03*
%TD*%
D12*
%TO.C,LED115*%
X-123375000Y-87930000D03*
X-123375000Y-86470000D03*
X-128775000Y-86470000D03*
X-128775000Y-87930000D03*
%TD*%
D29*
%TO.C,C109*%
X-51486126Y-20677396D03*
X-50540710Y-20510694D03*
%TD*%
D14*
%TO.C,SW62*%
X-165389833Y-38488931D03*
X-179076564Y-38654775D03*
%TD*%
D17*
%TO.C,SW92*%
X-17997801Y-73454005D03*
X-30802398Y-78290985D03*
%TD*%
D20*
%TO.C,D43*%
X-266228038Y-2187053D03*
X-266801076Y-5436919D03*
%TD*%
%TO.C,D18*%
X-199857316Y45106283D03*
X-200430354Y41856417D03*
%TD*%
D21*
%TO.C,C133*%
X-128595000Y-61700000D03*
X-129555000Y-61700000D03*
%TD*%
D43*
%TO.C,C99*%
X-86700000Y8920000D03*
X-86700000Y9880000D03*
%TD*%
D22*
%TO.C,D26*%
X9250946Y41463547D03*
X9823984Y38213681D03*
%TD*%
D17*
%TO.C,SW51*%
X-27921794Y-17172242D03*
X-40726391Y-22009222D03*
%TD*%
D15*
%TO.C,C139*%
X-78215000Y-16900000D03*
X-75435000Y-16900000D03*
%TD*%
D14*
%TO.C,SW48*%
X-162081836Y-19728343D03*
X-175768567Y-19894187D03*
%TD*%
D20*
%TO.C,D71*%
X-273292442Y-39803801D03*
X-273865480Y-43053667D03*
%TD*%
D12*
%TO.C,LED113*%
X-123375000Y-78830000D03*
X-123375000Y-77370000D03*
X-128775000Y-77370000D03*
X-128775000Y-78830000D03*
%TD*%
D22*
%TO.C,D113*%
X-54951357Y-32813502D03*
X-54378319Y-36063368D03*
%TD*%
D20*
%TO.C,D62*%
X-174170264Y-28624361D03*
X-174743302Y-31874227D03*
%TD*%
D22*
%TO.C,D93*%
X-11382944Y-60925003D03*
X-10809906Y-64174869D03*
%TD*%
D14*
%TO.C,SW76*%
X-168697831Y-57249518D03*
X-182384562Y-57415362D03*
%TD*%
D27*
%TO.C,LED102*%
X-147596149Y-20444639D03*
X-147342623Y-19006819D03*
X-152660585Y-18069119D03*
X-152914111Y-19506939D03*
%TD*%
D20*
%TO.C,D60*%
X-209781309Y-11175479D03*
X-210354347Y-14425345D03*
%TD*%
D39*
%TO.C,C9*%
X-148546367Y18364970D03*
X-149058629Y15459788D03*
%TD*%
D17*
%TO.C,SW69*%
X51991388Y-31564108D03*
X39186791Y-36401088D03*
%TD*%
D12*
%TO.C,LED105*%
X-123375000Y-26230000D03*
X-123375000Y-24770000D03*
X-128775000Y-24770000D03*
X-128775000Y-26230000D03*
%TD*%
D14*
%TO.C,SW44*%
X-238687020Y-15359621D03*
X-252373751Y-15525465D03*
%TD*%
D12*
%TO.C,LED119*%
X-81125000Y-67420000D03*
X-81125000Y-68880000D03*
X-75725000Y-68880000D03*
X-75725000Y-67420000D03*
%TD*%
D16*
%TO.C,D107*%
X-115075000Y-39250000D03*
X-115075000Y-42550000D03*
%TD*%
D22*
%TO.C,D112*%
X-61437116Y3969067D03*
X-60864078Y719201D03*
%TD*%
D16*
%TO.C,D106*%
X-115075000Y-58250000D03*
X-115075000Y-61550000D03*
%TD*%
D22*
%TO.C,D91*%
X-48383175Y-70495422D03*
X-47810137Y-73745288D03*
%TD*%
D25*
%TO.C,C112*%
X-75805000Y-41900000D03*
X-74845000Y-41900000D03*
%TD*%
D17*
%TO.C,SW25*%
X1073255Y37797814D03*
X-11731342Y32960834D03*
%TD*%
D44*
%TO.C,R104*%
X-55387534Y14443260D03*
X-57012466Y14156740D03*
%TD*%
D45*
%TO.C,D104*%
X-143010219Y20968177D03*
X-139070987Y20273585D03*
%TD*%
D20*
%TO.C,D75*%
X-195717905Y-41122527D03*
X-196290943Y-44372393D03*
%TD*%
D12*
%TO.C,LED104*%
X-123375000Y-21680000D03*
X-123375000Y-20220000D03*
X-128775000Y-20220000D03*
X-128775000Y-21680000D03*
%TD*%
D46*
%TO.C,C78*%
X-120500000Y15600000D03*
X-119554584Y15433298D03*
%TD*%
D17*
%TO.C,SW94*%
X17613244Y-56005124D03*
X4808647Y-60842104D03*
%TD*%
%TO.C,SW91*%
X-36758389Y-76762003D03*
X-49562986Y-81598983D03*
%TD*%
D14*
%TO.C,SW61*%
X-183629477Y-32226510D03*
X-197316208Y-32392354D03*
%TD*%
D20*
%TO.C,D33*%
X-185793911Y15159236D03*
X-186366949Y11909370D03*
%TD*%
D12*
%TO.C,LED107*%
X-123375000Y-40730000D03*
X-123375000Y-39270000D03*
X-128775000Y-39270000D03*
X-128775000Y-40730000D03*
%TD*%
D27*
%TO.C,LED103*%
X-148386248Y-24925514D03*
X-148132722Y-23487694D03*
X-153450684Y-22549994D03*
X-153704210Y-23987814D03*
%TD*%
D17*
%TO.C,SW26*%
X20875732Y35196966D03*
X8071135Y30359986D03*
%TD*%
D22*
%TO.C,D83*%
X43674601Y-44058115D03*
X44247639Y-47307981D03*
%TD*%
%TO.C,D53*%
X-3935535Y6543219D03*
X-3362497Y3293353D03*
%TD*%
%TO.C,D27*%
X30442609Y30984236D03*
X31015647Y27734370D03*
%TD*%
D17*
%TO.C,SW80*%
X-3066156Y-48430996D03*
X-15870753Y-53267976D03*
%TD*%
D20*
%TO.C,D103*%
X-155138854Y-31980112D03*
X-155711892Y-35229978D03*
%TD*%
D17*
%TO.C,SW37*%
X-31229792Y1588346D03*
X-44034389Y-3248634D03*
%TD*%
D22*
%TO.C,D92*%
X-29622587Y-67187424D03*
X-29049549Y-70437290D03*
%TD*%
D12*
%TO.C,LED118*%
X-81125000Y-77370000D03*
X-81125000Y-78830000D03*
X-75725000Y-78830000D03*
X-75725000Y-77370000D03*
%TD*%
%TO.C,LED112*%
X-123375000Y-68880000D03*
X-123375000Y-67420000D03*
X-128775000Y-67420000D03*
X-128775000Y-68880000D03*
%TD*%
D22*
%TO.C,D42*%
X52511195Y15531646D03*
X53084233Y12281780D03*
%TD*%
D12*
%TO.C,LED126*%
X-81125000Y-24770000D03*
X-81125000Y-26230000D03*
X-75725000Y-26230000D03*
X-75725000Y-24770000D03*
%TD*%
D22*
%TO.C,D52*%
X-21306936Y-4643240D03*
X-20733898Y-7893106D03*
%TD*%
D25*
%TO.C,C120*%
X-75805000Y-89200000D03*
X-74845000Y-89200000D03*
%TD*%
D17*
%TO.C,SW81*%
X14305247Y-37244536D03*
X1500650Y-42081516D03*
%TD*%
D21*
%TO.C,C123*%
X-128595000Y-28150000D03*
X-129555000Y-28150000D03*
%TD*%
D20*
%TO.C,D29*%
X-262920041Y16573535D03*
X-263493079Y13323669D03*
%TD*%
D22*
%TO.C,D24*%
X-27922933Y32877936D03*
X-27349895Y29628070D03*
%TD*%
D20*
%TO.C,D20*%
X-164246271Y27657403D03*
X-164819309Y24407537D03*
%TD*%
D14*
%TO.C,SW90*%
X-153245241Y-79318104D03*
X-166931972Y-79483948D03*
%TD*%
D22*
%TO.C,D95*%
X25790935Y-52339392D03*
X26363973Y-55589258D03*
%TD*%
%TO.C,D38*%
X-24614935Y14117347D03*
X-24041897Y10867481D03*
%TD*%
D17*
%TO.C,SW66*%
X-6374153Y-29670409D03*
X-19178750Y-34507389D03*
%TD*%
D12*
%TO.C,LED108*%
X-123375000Y-45280000D03*
X-123375000Y-43820000D03*
X-128775000Y-43820000D03*
X-128775000Y-45280000D03*
%TD*%
D20*
%TO.C,D74*%
X-213089307Y-29936067D03*
X-213662345Y-33185933D03*
%TD*%
D14*
%TO.C,SW19*%
X-173705483Y24055254D03*
X-187392214Y23889410D03*
%TD*%
D22*
%TO.C,D55*%
X37058604Y-6536940D03*
X37631642Y-9786806D03*
%TD*%
D25*
%TO.C,C116*%
X-75805000Y-46500000D03*
X-74845000Y-46500000D03*
%TD*%
D12*
%TO.C,LED124*%
X-81125000Y-39270000D03*
X-81125000Y-40730000D03*
X-75725000Y-40730000D03*
X-75725000Y-39270000D03*
%TD*%
D22*
%TO.C,D79*%
X-32930585Y-48426837D03*
X-32357547Y-51676703D03*
%TD*%
D17*
%TO.C,SW110*%
X-49990380Y-1719652D03*
X-62794977Y-6556632D03*
%TD*%
D16*
%TO.C,D114*%
X-96075000Y-77250000D03*
X-96075000Y-80550000D03*
%TD*%
D47*
%TO.C,D101*%
X-53875067Y17686519D03*
X-57124933Y17113481D03*
%TD*%
D14*
%TO.C,SW102*%
X-146629246Y-41796928D03*
X-160315977Y-41962772D03*
%TD*%
D21*
%TO.C,C105*%
X-128595000Y-38150000D03*
X-129555000Y-38150000D03*
%TD*%
D20*
%TO.C,D15*%
X-259612043Y35334122D03*
X-260185081Y32084256D03*
%TD*%
D22*
%TO.C,D81*%
X2680462Y-30977956D03*
X3253500Y-34227822D03*
%TD*%
%TO.C,D82*%
X22482937Y-33578805D03*
X23055975Y-36828671D03*
%TD*%
D20*
%TO.C,D73*%
X-232891784Y-32536916D03*
X-233464822Y-35786782D03*
%TD*%
D28*
%TO.C,C127*%
X-153045630Y-21433367D03*
X-153991046Y-21266665D03*
%TD*%
D20*
%TO.C,D87*%
X-216397305Y-48696655D03*
X-216970343Y-51946521D03*
%TD*%
D22*
%TO.C,D56*%
X55819193Y-3228942D03*
X56392231Y-6478808D03*
%TD*%
%TO.C,D94*%
X5988459Y-49738543D03*
X6561497Y-52988409D03*
%TD*%
D12*
%TO.C,LED106*%
X-123375000Y-30780000D03*
X-123375000Y-29320000D03*
X-128775000Y-29320000D03*
X-128775000Y-30780000D03*
%TD*%
D18*
%TO.C,C8*%
X-136865366Y14066279D03*
X-136698664Y15011695D03*
%TD*%
D20*
%TO.C,D89*%
X-180786259Y-66145535D03*
X-181359297Y-69395401D03*
%TD*%
D37*
%TO.C,LED129*%
X-57157377Y-19006819D03*
X-56903851Y-20444639D03*
X-51585889Y-19506939D03*
X-51839415Y-18069119D03*
%TD*%
D39*
%TO.C,C2*%
X-151254589Y18842502D03*
X-151766851Y15937320D03*
%TD*%
D14*
%TO.C,SW73*%
X-224111353Y-42401486D03*
X-237798084Y-42567330D03*
%TD*%
M02*
